<?xml version="1.0" encoding="utf-8"?>
<!-- Generator: Adobe Illustrator 25.2.1, SVG Export Plug-In . SVG Version: 6.00 Build 0)  -->
<svg version="1.1" id="Layer_1" xmlns="http://www.w3.org/2000/svg" x="0px" y="0px"
     viewBox="0 0 372.4 385.6" style="enable-background:new 0 0 372.4 385.6;" xml:space="preserve">
<style type="text/css">
	.st0{fill:#52267D;}
</style>
<path class="st0" d="M301.9,376.8c1.6,4.6,2.9,7.8,3.4,8.8c0.1,0.1-0.1-0.1,0,0c-10.5-101,46.7-143,65.1-210
	c0.1-1.1,0.3-2.2,0.6-3.3c0.4-1.5,0.7-3.1,0.9-4.6c2.7-18.5-4.9-40.1-19.3-62.6c-0.1-0.1-0.2-0.2-0.2-0.4c-1.2-1.9-2.5-3.8-3.7-5.6
	c0,0,0,0,0-0.1c-2.4-3.4-4.9-6.9-7.5-10.3c-0.3-0.4-0.5-0.7-0.8-1.1c-0.8-0.9-1.5-1.9-2.2-2.8s-1.5-2-2.3-2.9s-1.6-1.9-2.4-2.8
	s-1.6-1.9-2.5-2.9c-0.6-0.7-1.2-1.3-1.8-2c-22.6-26.1-52-51.8-82.8-74.2c4.1,38,4.6,76,1,106.3c-4.3,36.6-17.4,79.2-35.6,117.9
	c-42.5-3.5-86-13.4-119.9-27.8C63.5,184.3,31,165.2,0,142.5c0.3,3.2,0.7,6.3,1.1,9.4c0.1,0.9,0.3,1.9,0.4,2.8
	c0.3,2.2,0.6,4.5,0.9,6.7c0.1,1,0.3,2.1,0.5,3.1c0.3,2.3,0.7,4.5,1,6.7c0.2,0.9,0.3,1.8,0.4,2.7c0.5,2.8,1,5.6,1.5,8.5
	c0,0.3,0.1,0.6,0.1,0.8c0.6,3.3,1.2,6.5,1.8,9.7c0,0.2,0.1,0.5,0.2,0.8c0.6,2.9,1.2,5.8,1.8,8.6c0.1,0.6,0.3,1.2,0.4,1.8
	c0.6,2.6,1.2,5.2,1.8,7.8c0.2,0.5,0.3,1,0.4,1.5c0.7,3,1.5,6,2.2,8.9v0.1c2.5,9.4,5.2,18.5,8.2,27.3c0,0.1,0.1,0.2,0.1,0.3
	c4.6,13.8,10.4,27.2,17.2,40c1,1.7,1.9,3.4,2.9,5c0.1,0.1,0.1,0.1,0.1,0.2c0.9,1.5,1.8,3,2.6,4.4c0,0.1,0.1,0.1,0.1,0.2
	c1,1.5,1.9,3,3,4.5c0.1,0.2,0.3,0.4,0.4,0.6c1.3,1.9,2.6,3.7,3.9,5.4c0.3,0.3,0.5,0.6,0.7,0.8c0.1,0.1,0.2,0.2,0.2,0.3
	c1.5,1.9,3.1,3.8,4.7,5.5c1.1,1.2,2.3,2.4,3.4,3.6c0.5,0.5,1,0.9,1.5,1.4c0.7,0.7,1.4,1.3,2.2,2c0.5,0.5,1.1,0.9,1.7,1.4
	s1.4,1.1,2.1,1.7s1.1,0.8,1.7,1.2s1.5,1,2.2,1.5c0.6,0.4,1.1,0.7,1.7,1c0.8,0.5,1.6,0.9,2.4,1.3c0.5,0.3,1.1,0.6,1.6,0.9
	c0.9,0.4,1.8,0.8,2.7,1.2c0.4,0.2,0.9,0.4,1.4,0.6c1.4,0.6,2.8,1,4.2,1.4c1,0.3,1.8,0.6,2.5,0.9c67.4,17.8,133-10.4,215.2,48.4"/>
</svg>
