<svg id="Layer_1" data-name="Layer 1" xmlns="http://www.w3.org/2000/svg" viewBox="0 0 300 300"><defs><style>.cls-1{fill:#0e60aa;}</style></defs><title>-icon-color</title><path class="cls-1" d="M256.64,76.12C229.15,52.05,193.8,40.37,157.1,40.37c-.91,0-1.8.05-2.71.06s-1.8-.06-2.69-.06c-36.7,0-72.06,11.68-99.55,35.75-1.79,1.58-4.61,4.77-4,7.08S52.7,86.53,55,87a293.49,293.49,0,0,1,87.14,33.36c3.42,2.1,6.3,3.92,8.69,5.44a6.32,6.32,0,0,0,3.4,1l.12,0c.06,0,.09,0,.14,0a6.29,6.29,0,0,0,3.39-1c2.39-1.52,5.27-3.34,8.7-5.44A293.28,293.28,0,0,1,253.76,87c2.33-.49,6.27-1.51,6.88-3.82s-2.21-5.5-4-7.08"/><path class="cls-1" d="M17.13,221a30.74,30.74,0,0,1-10.68-1.85A6.56,6.56,0,0,1,2.2,214,159.88,159.88,0,0,1,.5,191.43a158.16,158.16,0,0,1,16.91-71.64,6.53,6.53,0,0,1,5.81-3.59,6.44,6.44,0,0,1,2.94.68c4.75,2.37,9.53,5,14.19,8a6.54,6.54,0,0,1,1.13,10.21A60.42,60.42,0,0,0,23.6,177.94,59.63,59.63,0,0,0,32.44,209a6.54,6.54,0,0,1-2.92,9.43A31,31,0,0,1,17.13,221"/><path class="cls-1" d="M299.45,95.75c-.24-1.63-1.58-4.43-7.67-5h-.43c-28.64,0-41.51,4.95-68,14.55A304.83,304.83,0,0,0,158,138.17a8.43,8.43,0,0,1-3.78,1.11c-1.79,0-3.49-1.14-5-2a306.57,306.57,0,0,0-64-32c-26.5-9.6-39.38-14.54-68-14.55h-.42c-6.1.52-7.44,3.32-7.68,5a4.89,4.89,0,0,0,0,.87s0,.07,0,.11a3.83,3.83,0,0,0,.09.72s0,0,0,0a0,0,0,0,1,0,0,5.15,5.15,0,0,0,.55,1.38c.84,1.44,2.61,3,6.19,4.25l.36.14,1.34.52C50.9,116.21,72.42,133.54,92,152.38c25.62,25.68,42.47,63.39,52.68,101.43a9.29,9.29,0,0,0,8.82,5.82l.41,0,.37,0h0c.14,0,.26,0,.39,0s.26,0,.4,0a9.31,9.31,0,0,0,8.83-5.82c10.2-38,27-75.75,52.68-101.43,19.52-18.84,41.07-36.17,74.34-48.59l1.36-.52.35-.14c3.57-1.26,5.35-2.81,6.19-4.25a5.2,5.2,0,0,0,.56-1.38v0a3.15,3.15,0,0,0,.09-.72s0-.07,0-.11a7.85,7.85,0,0,0-.05-.87"/><path class="cls-1" d="M101.5,181.9a21.63,21.63,0,1,1-24.79-28.39,247.13,247.13,0,0,0-21.12-18.46A49.15,49.15,0,0,0,83.1,224.94c13.29,0,27-6.84,35.85-15.43A214.15,214.15,0,0,0,101.5,181.9"/></svg>