<?xml version="1.0" encoding="utf-8"?>
<!-- Generator: Adobe Illustrator 27.0.0, SVG Export Plug-In . SVG Version: 6.00 Build 0)  -->
<svg version="1.1" id="Capa_1" xmlns="http://www.w3.org/2000/svg" x="0px" y="0px"
     viewBox="0 0 512 512" style="enable-background:new 0 0 512 512;" xml:space="preserve">
<style type="text/css">
	.st0{fill:#3AC6A6;}
</style>
<g>
	<g>
		<rect x="155.3" y="77.1" transform="matrix(0.7071 -0.7071 0.7071 0.7071 -68.8804 166.282)" width="22" height="178.4"/>
		<path d="M503.4,408.8L373.9,279.3c-2.6-2.6-6.4-3.7-9.9-3c-2.1,0.4-4.2,0.6-6.3,0.6c-23.3,0-41.6-24.8-41.8-25
			c-1.9-2.6-4.8-4.3-8-4.5c-3.2-0.3-4.8,5.1-7.1,7.4l-44,47.4c-2.3,2.3-9.6,2.4-9.4,5.6c0.2,3.2,1.9,6.1,4.5,8
			c0.3,0.2,29.6,22,24.4,48.2c-0.6,3.6,0.4,7.3,3,9.9l129.5,129.5c5.7,5.7,13.2,8.6,20.8,8.6c7.5,0,15-2.9,20.8-8.6l53.1-53.1
			c5.5-5.5,8.6-12.9,8.6-20.8C512,421.7,508.9,414.3,503.4,408.8z M272.9,305.3l32.5-32c7.5,7.6,20.6,18.7,35.7,23.2l-44.7,44.7
			C291.9,326,280.5,312.8,272.9,305.3z M487.8,434.7l-53.1,53.1c-2.9,2.9-7.5,2.9-10.4,0L302.6,366.1l63.5-63.5l121.7,121.7
			c1.4,1.4,2.2,3.2,2.2,5.2C490,431.5,489.2,433.3,487.8,434.7z"/>
	</g>
	<path class="st0" d="M78.1,139.4c-0.2,0-0.5,0-0.7,0c-3.2-0.2-6.1-1.8-8-4.3L22.6,74c-3.3-4.4-2.9-10.6,1-14.5l35.9-35.9
		c3.9-3.9,10.1-4.3,14.5-1l61.1,46.7c2.5,1.9,4.1,4.8,4.3,8c0.2,3.2-1,6.3-3.2,8.5l-50.3,50.3C83.8,138.2,81,139.4,78.1,139.4z
		 M45.9,68.2l33.2,43.5l32.6-32.6L68.2,45.9L45.9,68.2z"/>
	<g>
		<path class="st0" d="M102.4,512c-15,0-30-3.3-44.1-10c-3.2-1.5-5.5-4.5-6.1-8.1c-0.6-3.5,0.5-7.1,3.1-9.6l50.9-50.9l-5-22.6
			l-22.6-4.9l-50.9,50.9c-2.5,2.5-6.1,3.7-9.6,3.1c-3.5-0.6-6.5-2.9-8.1-6.1c-18.7-39.1-10.6-86,20-116.7
			c26.7-26.7,66-36.4,101.8-25.7l179.4-179.4C300.6,96,310.3,56.7,337,30c30.7-30.7,77.5-38.7,116.7-20c3.2,1.5,5.5,4.5,6.1,8.1
			c0.6,3.5-0.5,7.1-3.1,9.6l-50.9,50.9l4.9,22.6l22.6,5l50.9-50.9c2.5-2.5,6.1-3.7,9.6-3.1c3.5,0.6,6.5,2.9,8.1,6.1
			c18.7,39.1,10.6,86-20,116.7c-19.6,19.6-45.9,30-72.6,30c-9.8,0-19.6-1.4-29.2-4.3L200.7,380.1c10.7,35.8,1,75.1-25.7,101.8l0,0
			c0,0,0,0,0,0C155.3,501.6,129,512,102.4,512z M83,487.6c6.4,1.6,12.9,2.4,19.3,2.4c20.9,0,41.6-8.1,57-23.6l0,0
			c22.3-22.3,29.5-55.8,18.4-85.4c-1.5-4-0.5-8.6,2.5-11.7l189.1-189.1c3.1-3.1,7.6-4,11.7-2.5c29.5,11.1,63,3.9,85.4-18.4
			c20.2-20.2,27.9-49.4,21.2-76.4l-42.9,42.9c-2.6,2.7-6.5,3.8-10.1,3l-35.4-7.7c-4.2-0.9-7.5-4.2-8.4-8.4l-7.7-35.4
			c-0.8-3.7,0.3-7.5,3-10.1l42.9-42.9c-27-6.7-56.2,1-76.4,21.2c-22.3,22.3-29.5,55.8-18.4,85.4c1.5,4,0.5,8.6-2.5,11.7L142.6,331.7
			c-3.1,3.1-7.6,4-11.7,2.5c-29.5-11.1-63.1-3.9-85.4,18.4c-20.2,20.2-27.9,49.3-21.2,76.4l42.9-42.9c2.6-2.6,6.5-3.8,10.1-3
			l35.4,7.7c4.2,0.9,7.5,4.2,8.4,8.4l7.7,35.4c0.8,3.7-0.3,7.5-3,10.1L83,487.6z"/>
	</g>
</g>
</svg>
