<svg id="Layer_1" data-name="Layer 1" xmlns="http://www.w3.org/2000/svg" viewBox="0 0 300 300">
    <defs>
        <style>.cls-1,.cls-2{fill:#181616;}.cls-1{fill-rule:evenodd;}</style>
    </defs>
    <title>-icon-color</title>
    <path class="cls-1"
          d="M150,4.19a149.52,149.52,0,0,0-47.26,291.36c7.47,1.38,10.21-3.24,10.21-7.19,0-3.56-.14-15.34-.2-27.84-41.59,9.05-50.37-17.63-50.37-17.63C55.58,225.61,45.78,221,45.78,221c-13.56-9.28,1-9.09,1-9.09,15,1.06,22.91,15.41,22.91,15.41,13.34,22.85,35,16.25,43.51,12.43,1.34-9.66,5.21-16.26,9.49-20C89.51,216,54.6,203.17,54.6,145.88A57.89,57.89,0,0,1,70,105.75c-1.55-3.76-6.67-19,1.45-39.56,0,0,12.55-4,41.12,15.33a141.55,141.55,0,0,1,74.87,0C216,62.17,228.52,66.19,228.52,66.19c8.14,20.59,3,35.8,1.47,39.56a57.74,57.74,0,0,1,15.39,40.13c0,57.42-35,70.07-68.27,73.77,5.36,4.64,10.14,13.73,10.14,27.68,0,20-.17,36.1-.17,41,0,4,2.69,8.64,10.27,7.17A149.52,149.52,0,0,0,150,4.19Z"/>
    <path class="cls-2" d="M57.12,218.84c-.33.74-1.5,1-2.56.46s-1.69-1.5-1.34-2.25,1.49-1,2.57-.47,1.71,1.51,1.33,2.26Zm-1.84-1.36"/>
    <path class="cls-2" d="M63.18,225.59c-.71.66-2.11.36-3-.69s-1.16-2.43-.44-3.1,2.09-.35,3.06.69,1.17,2.43.43,3.1Zm-1.43-1.53"/>
    <path class="cls-2" d="M69.07,234.2c-.91.64-2.41,0-3.34-1.28s-.91-2.93,0-3.57,2.41-.06,3.35,1.26.91,2.94,0,3.59Zm0,0"/>
    <path class="cls-2" d="M77.15,242.52c-.82.91-2.57.66-3.84-.57s-1.67-2.92-.85-3.82,2.58-.65,3.87.57,1.69,2.93.82,3.82Zm0,0"/>
    <path class="cls-2" d="M88.29,247.35c-.36,1.17-2,1.71-3.74,1.21s-2.79-1.89-2.45-3.07,2-1.73,3.74-1.2,2.8,1.87,2.45,3.06Zm0,0"/>
    <path class="cls-2" d="M100.53,248.25c0,1.23-1.4,2.25-3.18,2.28s-3.23-1-3.25-2.18,1.4-2.25,3.19-2.28,3.24,1,3.24,2.18Zm0,0"/>
    <path class="cls-2" d="M111.91,246.31c.21,1.2-1,2.44-2.79,2.77s-3.34-.43-3.56-1.62,1-2.47,2.77-2.79,3.36.42,3.58,1.64Zm0,0"/>
</svg>
