<svg id="Layer_1" data-name="Layer 1" xmlns="http://www.w3.org/2000/svg" viewBox="0 0 300 300">
    <defs>
        <style>.cls-1{fill:#fc6d26;}.cls-2{fill:#e24329;}.cls-3{fill:#fca326;}</style>
    </defs>
    <title>-icon-color</title>
    <g id="g44">
        <path id="path46" class="cls-1"
              d="M299,169.77,282.2,118.3,249.05,16.2a5.72,5.72,0,0,0-10.86,0L205,118.24H94.93L61.79,16.2a5.73,5.73,0,0,0-10.87,0l-33.08,102L1.09,169.77a11.41,11.41,0,0,0,4.12,12.75L150,287.72l144.77-105.2A11.43,11.43,0,0,0,299,169.77"/>
    </g>
    <g id="g48">
        <path id="path50" class="cls-2" d="M150,287.65h0l55.05-169.42H95L150,287.65Z"/>
    </g>
    <g id="g56">
        <path id="path58" class="cls-1" d="M150,287.65,94.93,118.23H17.84L150,287.65Z"/>
    </g>
    <g id="g64">
        <path id="path66" class="cls-3" d="M17.81,118.29h0L1.06,169.76a11.4,11.4,0,0,0,4.13,12.75L150,287.71,17.81,118.29Z"/>
    </g>
    <g id="g72">
        <path id="path74" class="cls-2" d="M17.83,118.29H95l-33.21-102a5.72,5.72,0,0,0-10.86,0l-33.09,102Z"/>
    </g>
    <g id="g76">
        <path id="path78" class="cls-1" d="M150,287.65l55.05-169.42h77.16L150,287.65Z"/>
    </g>
    <g id="g80">
        <path id="path82" class="cls-3" d="M282.18,118.29h0l16.76,51.47a11.43,11.43,0,0,1-4.13,12.75L150,287.65,282.18,118.29Z"/>
    </g>
    <g id="g84">
        <path id="path86" class="cls-2" d="M282.22,118.29H205.07l33.14-102a5.73,5.73,0,0,1,10.87,0l33.14,102Z"/>
    </g>
</svg>
