<svg width="100" height="100" viewBox="0 0 100 100" fill="none" xmlns="http://www.w3.org/2000/svg">
    <path d="M6.81818 87.0193H22.7273V48.383L0 31.3375V80.2012C0 83.9739 3.05682 87.0193 6.81818 87.0193Z" fill="#4285F4"/>
    <path d="M77.2727 87.0193H93.1818C96.9545 87.0193 100 83.9625 100 80.2012V31.3375L77.2727 48.383" fill="#34A853"/>
    <path d="M77.2727 18.8375V48.383L100 31.3375V22.2466C100 13.8148 90.375 9.00798 83.6363 14.0648" fill="#FBBC04"/>
    <path d="M22.7273 48.383V18.8375L50 39.2921L77.2727 18.8375V48.383L50 68.8375" fill="#EA4335"/>
    <path d="M0 22.2466V31.3375L22.7273 48.383V18.8375L16.3636 14.0648C9.61364 9.00798 0 13.8148 0 22.2466" fill="#C5221F"/>
</svg>
