<svg width="100" height="100" viewBox="0 0 100 100" fill="none" xmlns="http://www.w3.org/2000/svg">
<path d="M95.3325 87.4475C95.3325 94.2486 89.8066 99.987 83.0056 99.987C82.5805 99.987 81.9429 99.987 81.5178 99.987C75.1418 99.1369 70.4661 93.3985 70.6786 87.0225V13.0606C70.4661 6.68463 75.1418 1.15874 81.5178 0.096075C88.3189 -0.754061 94.4824 4.13422 95.3325 10.9353C95.3325 11.3604 95.3325 11.998 95.3325 12.423V87.4475Z" fill="#F9AB00"/>
<path d="M17.3327 75.3331C24.1338 75.3331 29.6597 80.859 29.6597 87.6601C29.6597 94.4611 24.1338 99.987 17.3327 99.987C10.5316 99.987 5.00572 94.4611 5.00572 87.6601C4.79319 80.859 10.5316 75.3331 17.3327 75.3331ZM49.8504 37.7146C43.0493 38.1397 37.736 43.8781 37.736 50.6792V84.047C37.736 92.9734 41.7741 98.4993 47.5125 99.7745C54.3136 101.05 60.6896 96.799 62.1774 89.9979C62.3899 89.1478 62.3899 88.2977 62.3899 87.4475V50.2541C62.3899 43.453 56.864 37.7146 50.0629 37.7146H49.8504Z" fill="#E37400"/>
</svg>
