<svg width="100" height="100" viewBox="0 0 100 100" fill="none" xmlns="http://www.w3.org/2000/svg">
    <path d="M97.5615 47.2017L54.5308 4.17107L50.3598 0L17.968 32.3918L3.15808 47.2017C2.41652 47.9442 2 48.9506 2 50C2 51.0494 2.41652 52.0558 3.15808 52.7983L32.7515 82.3918L50.3598 100L82.7515 67.6082L83.2531 67.1067L97.5615 52.7983C98.303 52.0558 98.7195 51.0494 98.7195 50C98.7195 48.9506 98.303 47.9442 97.5615 47.2017V47.2017ZM50.3598 64.7835L35.5762 50L50.3598 35.2165L65.1433 50L50.3598 64.7835Z"
          fill="#2684FF"/>
    <path d="M50.3598 35.2165C45.7102 30.5663 43.0893 24.2653 43.0695 17.6894C43.0498 11.1135 45.6326 4.79684 50.2542 0.118774L17.902 32.4577L35.5103 50.066L50.3598 35.2165Z" fill="url(#paint0_linear)"/>
    <path d="M65.1829 49.9603L50.3597 64.7835C52.673 67.0953 54.508 69.8403 55.76 72.8616C57.012 75.8829 57.6564 79.1213 57.6564 82.3917C57.6564 85.6621 57.012 88.9005 55.76 91.9218C54.508 94.9431 52.673 97.6881 50.3597 99.9999V99.9999L82.7911 67.5686L65.1829 49.9603Z"
          fill="url(#paint1_linear)"/>
    <defs>
        <linearGradient id="paint0_linear" x1="47.7199" y1="20.2613" x2="27.0757" y2="40.9055" gradientUnits="userSpaceOnUse">
            <stop offset="0.18" stop-color="#0052CC"/>
            <stop offset="1" stop-color="#2684FF"/>
        </linearGradient>
        <linearGradient id="paint1_linear" x1="1308.05" y1="3066.35" x2="2021.06" y2="2604.24" gradientUnits="userSpaceOnUse">
            <stop offset="0.18" stop-color="#0052CC"/>
            <stop offset="1" stop-color="#2684FF"/>
        </linearGradient>
    </defs>
</svg>
