<svg xmlns="http://www.w3.org/2000/svg" width="50" height="50" viewBox="0 0 50 50" fill="none">
<path d="M9.06185 38.6453L10.8787 45.6724H9.5072L8.29701 40.6107L6.01541 45.6724H4.85687L2.58818 40.6397L1.3425 45.6724H0L1.80075 38.6453H2.98834L5.44098 44.0863L7.88394 38.6453H9.06185Z" fill="#003545"/>
<path d="M16.06 41.361V40.5429H17.3848V45.6724H16.06V44.8463C15.7099 45.4401 14.9902 45.7805 14.114 45.7805C12.2826 45.7805 11.2612 44.4897 11.2612 43.0052C11.2612 41.5739 12.2294 40.4235 13.9188 40.4235C14.8821 40.4348 15.6808 40.7575 16.06 41.361ZM12.6715 43.0746C12.6715 44.0185 13.2653 44.8269 14.4142 44.8269C15.5227 44.8269 16.1262 44.0379 16.1262 43.1036C16.1262 42.1694 15.5033 41.3706 14.3512 41.3706C13.2475 41.3706 12.6731 42.1677 12.6731 43.0746H12.6715Z" fill="#003545"/>
<path d="M20.3715 45.6725H19.0483V40.5429H20.3715V41.6918C20.5228 41.3242 20.7787 41.0092 21.1074 40.7857C21.4361 40.5623 21.8232 40.4403 22.2206 40.4348C22.5024 40.4309 22.7826 40.4768 23.0484 40.5703L22.766 41.5385C22.5374 41.4778 22.3022 41.4453 22.0657 41.4417C21.1105 41.4417 20.3715 42.1613 20.3715 43.2166V45.6725Z" fill="#003545"/>
<path d="M23.7098 39.1891C23.7072 39.096 23.724 39.0034 23.759 38.9172C23.794 38.8309 23.8465 38.7529 23.9133 38.688C23.98 38.6231 24.0595 38.5727 24.1466 38.5401C24.2338 38.5075 24.3268 38.4933 24.4198 38.4985C24.5145 38.4954 24.6089 38.5116 24.6972 38.5462C24.7854 38.5807 24.8657 38.6329 24.9332 38.6994C25.0007 38.766 25.0539 38.8456 25.0896 38.9334C25.1254 39.0212 25.1429 39.1153 25.1411 39.2101C25.1429 39.3035 25.1252 39.3962 25.0891 39.4824C25.0529 39.5685 24.9992 39.6462 24.9312 39.7103C24.8633 39.7744 24.7827 39.8236 24.6946 39.8547C24.6066 39.8859 24.5129 39.8982 24.4198 39.891C24.3262 39.895 24.2327 39.8797 24.1453 39.846C24.0578 39.8122 23.9783 39.7608 23.9117 39.6949C23.845 39.629 23.7927 39.5501 23.758 39.4631C23.7232 39.376 23.7068 39.2828 23.7098 39.1891V39.1891ZM23.7679 40.5429H25.0926V44.2912C25.0926 44.5236 25.1411 44.6898 25.3347 44.6898C25.4198 44.6877 25.5046 44.6779 25.588 44.6607L25.7929 45.6289C25.5141 45.7388 25.2165 45.7936 24.9168 45.7902C24.3617 45.7902 23.7679 45.6289 23.7679 44.3687V40.5429Z" fill="#003545"/>
<path d="M31.0098 41.361V40.5429H32.3393V45.6724H31.0146V44.8463C30.6645 45.4401 29.9448 45.7805 29.0686 45.7805C27.2388 45.7805 26.2158 44.4897 26.2158 43.0052C26.2158 41.5739 27.184 40.4235 28.8734 40.4235C29.8318 40.4348 30.6306 40.7575 31.0098 41.361ZM27.6212 43.0746C27.6212 44.0185 28.215 44.8269 29.3639 44.8269C30.474 44.8269 31.0775 44.0379 31.0775 43.1036C31.0775 42.1694 30.4531 41.3706 29.3026 41.3706C28.1973 41.3706 27.6229 42.1677 27.6229 43.0746H27.6212Z" fill="#003545"/>
<path d="M34.3677 38.6453H37.5416C40.2088 38.6453 41.5416 40.1153 41.5223 42.1581C41.5416 44.2815 40.0701 45.6724 37.7755 45.6724H34.3677V38.6453ZM35.2438 39.2682V45.0593H37.6642C39.7861 45.0593 40.5945 43.628 40.5945 42.1387C40.5945 40.4558 39.5828 39.2682 37.6642 39.2682H35.2438Z" fill="#003545"/>
<path d="M46.9343 45.6724H42.9004V38.6453H46.539C47.9299 38.6453 49.2547 38.9067 49.2353 40.4654C49.2353 41.5643 48.5527 41.8676 47.8331 41.9838C48.8545 42.0709 49.4693 42.7228 49.4693 43.7749C49.4757 45.3513 48.0929 45.6724 46.9343 45.6724ZM46.6326 41.7111C48.0251 41.7111 48.3365 41.1754 48.3365 40.4945C48.3365 39.4715 47.7137 39.2391 46.6326 39.2391H43.7411V41.7111H46.6326ZM46.6713 42.3049H43.7411V45.0787H46.7972C47.654 45.0787 48.5592 44.7963 48.5592 43.7168C48.5592 42.4711 47.5184 42.3049 46.6713 42.3049V42.3049Z" fill="#003545"/>
<path d="M49.7786 5.15393C49.6501 5.04799 49.4868 4.99339 49.3204 5.00064C48.8637 5.00064 48.2732 5.31045 47.9553 5.47665L47.8294 5.54119C47.2962 5.79932 46.7158 5.94539 46.1239 5.9704C45.5172 5.98976 44.9944 6.02526 44.3135 6.09626C40.2795 6.51095 38.4804 9.60256 36.7474 12.5925C35.8034 14.219 34.8288 15.9084 33.4928 17.1993C33.2164 17.4673 32.9226 17.7169 32.6134 17.9464C31.2306 18.9742 29.4944 19.7084 28.1438 20.228C26.8433 20.7249 25.4233 21.1719 24.0518 21.6043C22.7948 21.9997 21.6088 22.374 20.518 22.779C20.0259 22.9614 19.608 23.1017 19.2385 23.2244C18.2445 23.5471 17.5281 23.794 16.4809 24.5152C16.0726 24.7944 15.6628 25.0961 15.3852 25.322C14.554 25.9853 13.8182 26.7601 13.1989 27.6246C12.6662 28.422 12.0507 29.1609 11.3626 29.8287C11.1415 30.045 10.7494 30.1515 10.1621 30.1515C9.47471 30.1515 8.6405 30.0095 7.75787 29.8594C6.84781 29.698 5.9071 29.5448 5.10031 29.5448C4.4452 29.5448 3.94337 29.6513 3.56902 29.8675C3.56902 29.8675 2.93812 30.2354 2.67188 30.7114L2.93327 30.8292C3.33863 31.0489 3.71393 31.3201 4.04987 31.636C4.40037 31.9597 4.79079 32.2373 5.21165 32.4621C5.34599 32.5114 5.46816 32.589 5.56986 32.6896C5.46014 32.851 5.29878 33.0591 5.12935 33.2818C4.19832 34.5001 3.65454 35.2697 3.96596 35.6893C4.11522 35.7668 4.28193 35.8046 4.45004 35.799C6.47992 35.799 7.57069 35.2713 8.9503 34.6033C9.35047 34.4097 9.75709 34.2112 10.2412 34.0063C11.048 33.6562 11.9161 33.0979 12.8374 32.5073C14.0428 31.7215 15.303 30.9147 16.526 30.5258C17.5312 30.2193 18.5782 30.0723 19.629 30.0901C20.9198 30.0901 22.2784 30.2628 23.5887 30.4306C24.5649 30.5565 25.5766 30.6856 26.5689 30.7453C26.9546 30.7678 27.3112 30.7791 27.6581 30.7791C28.1222 30.7805 28.586 30.7563 29.0474 30.7065L29.1587 30.6678C29.8542 30.2402 30.1801 29.3221 30.4964 28.4346C30.6997 27.8634 30.8707 27.3503 31.1418 27.0244C31.1578 27.0084 31.1751 26.9939 31.1935 26.9808C31.2062 26.9737 31.2209 26.9711 31.2352 26.9735C31.2496 26.9758 31.2627 26.983 31.2725 26.9937C31.2725 26.9937 31.2725 27.0018 31.2725 27.0195C31.1112 30.4903 29.7138 32.6945 28.3003 34.6533L27.3564 35.6651C27.3564 35.6651 28.6779 35.6651 29.4298 35.3746C32.1729 34.5549 34.2431 32.7477 35.7502 29.8659C36.1219 29.1261 36.4542 28.3672 36.7458 27.5923C36.7716 27.5278 37.0088 27.4084 36.9862 27.7424C36.9781 27.8408 36.9717 27.9505 36.9636 28.0651C36.9636 28.1329 36.9636 28.2023 36.9507 28.2716C36.912 28.7557 36.7974 29.7787 36.7974 29.7787L37.6445 29.3253C39.6873 28.0344 41.2622 25.4301 42.4562 21.3784C42.9532 19.6906 43.3179 18.0141 43.639 16.5377C44.023 14.7628 44.3538 13.2412 44.733 12.6506C45.3284 11.7244 46.2368 11.0983 47.1162 10.49C47.2356 10.4077 47.3567 10.3287 47.4744 10.2415C48.5797 9.46541 49.6786 8.56987 49.9206 6.89982V6.86271C50.0965 5.61703 49.9481 5.29915 49.7786 5.15393Z" fill="#003545"/>
</svg>