<svg width="50" height="50" viewBox="0 0 50 50" fill="none" xmlns="http://www.w3.org/2000/svg">
<path d="M26.3748 50L25.0312 49.5561C25.0312 49.5561 25.2026 42.7683 22.7501 42.293C21.1329 40.4226 22.999 -37.6031 28.8741 42.0257C28.8741 42.0257 26.8632 43.0335 26.4826 44.745C26.1021 46.4576 26.3748 50 26.3748 50" fill="url(#paint0_linear)"/>
<path d="M27.0992 43.4453C27.0992 43.4453 38.7743 35.7699 36.0391 19.8298C33.405 8.24893 27.1859 4.44179 26.5176 2.98835C25.7819 1.95971 25.0409 0.136539 25.0409 0.136539L25.5375 32.4042C25.5375 32.4042 24.5103 42.2568 27.0992 43.4453" fill="url(#paint1_linear)"/>
<path d="M24.3477 43.8742C24.3477 43.8742 13.3961 36.4169 14.0262 23.2592C14.6565 10.1011 22.3915 3.63157 23.898 2.4579C24.872 1.42165 24.9123 1.02237 24.9876 -7.02791e-06C25.6703 1.46372 25.5567 21.863 25.6291 24.2473C25.9097 33.5288 25.1141 42.1222 24.3477 43.8742" fill="url(#paint2_linear)"/>
<defs>
<linearGradient id="paint0_linear" x1="17.4873" y1="25.5005" x2="32.9176" y2="30.743" gradientUnits="userSpaceOnUse">
<stop stop-color="#929669"/>
<stop offset="0.230769" stop-color="#929669"/>
<stop offset="1" stop-color="#FDFCF1"/>
</linearGradient>
<linearGradient id="paint1_linear" x1="23.1454" y1="0.44003" x2="29.9545" y2="42.9882" gradientUnits="userSpaceOnUse">
<stop stop-color="#45AA3A"/>
<stop offset="1" stop-color="#3D9439"/>
</linearGradient>
<linearGradient id="paint2_linear" x1="12.8752" y1="24.6115" x2="31.185" y2="18.4725" gradientUnits="userSpaceOnUse">
<stop stop-color="#41A83B"/>
<stop offset="1" stop-color="#5EBC44"/>
</linearGradient>
</defs>
</svg>
