<svg width="50" height="50" viewBox="0 0 50 50" fill="none" xmlns="http://www.w3.org/2000/svg">
<path fill-rule="evenodd" clip-rule="evenodd" d="M34.1787 11.4439C33.9424 11.4439 33.7758 11.4724 33.6077 11.5138V11.5418H33.6347C33.7472 11.7641 33.9424 11.9185 34.0805 12.1131C34.1927 12.336 34.2903 12.5583 34.4016 12.7809C34.4153 12.7675 34.4287 12.7529 34.4287 12.7529C34.6251 12.6142 34.7224 12.3913 34.7224 12.0566C34.6382 11.9587 34.6251 11.862 34.5548 11.764C34.4715 11.6251 34.2903 11.5555 34.1787 11.4439Z" fill="#5B7F93"/>
<path fill-rule="evenodd" clip-rule="evenodd" d="M12.0213 38.935H10.0918C10.024 35.6787 9.83592 32.6167 9.52853 29.7484H9.51157L6.57424 38.935H5.10513L2.18566 29.7484H2.1684C1.95207 32.503 1.81578 35.565 1.75894 38.935H0C0.113672 34.8365 0.39815 30.9946 0.853434 27.4083H3.24442L6.0279 35.8777H6.04516L8.8456 27.4083H11.1333C11.6344 31.6085 11.9302 35.4516 12.0213 38.935Z" fill="#196D80"/>
<path fill-rule="evenodd" clip-rule="evenodd" d="M20.3883 30.4307C19.6027 34.6934 18.5666 37.7911 17.2802 39.7235C16.278 41.2126 15.1802 41.9571 13.9846 41.9571C13.6659 41.9571 13.2731 41.861 12.8065 41.6703V40.6427C13.0345 40.6761 13.3017 40.6939 13.6094 40.6939C14.167 40.6939 14.6163 40.5398 14.9586 40.2321C15.368 39.8572 15.5727 39.4358 15.5727 38.9689C15.5727 38.6499 15.4129 37.9956 15.0948 37.0055L12.9773 30.4307H14.8729L16.3923 35.3481C16.7339 36.4645 16.8761 37.2439 16.8193 37.6882C17.6504 35.4683 18.2309 33.049 18.5613 30.4307H20.3883Z" fill="#196D80"/>
<path fill-rule="evenodd" clip-rule="evenodd" d="M46.07 38.935H40.589V27.4083H42.4333V37.5171H46.07V38.935Z" fill="#E6892E"/>
<path fill-rule="evenodd" clip-rule="evenodd" d="M32.2904 36.6291C31.8235 35.8777 31.5896 34.672 31.5896 33.0094C31.5896 30.1069 32.4722 28.6548 34.2365 28.6548C35.159 28.6548 35.8359 29.0021 36.2689 29.696C36.7352 30.4477 36.9691 31.643 36.9691 33.2823C36.9691 36.208 36.0865 37.6715 34.3222 37.6715C33.4 37.6715 32.7228 37.3245 32.2904 36.6291ZM39.1548 39.2129L37.0361 38.1681C37.2247 38.0134 37.4038 37.8465 37.566 37.6533C38.4656 36.5958 38.9158 35.0306 38.9158 32.9583C38.9158 29.1449 37.4187 27.2372 34.4249 27.2372C32.9563 27.2372 31.8119 27.7207 30.9924 28.6893C30.0925 29.7481 29.6432 31.3073 29.6432 33.368C29.6432 35.3942 30.0413 36.8806 30.8382 37.8247C31.567 38.6782 32.6656 39.1055 34.1344 39.1055C34.6829 39.1055 35.186 39.0379 35.6434 38.9028L38.4025 40.5085L39.1548 39.2129Z" fill="#E6892E"/>
<path fill-rule="evenodd" clip-rule="evenodd" d="M28.8394 35.74C28.8394 36.7175 28.4802 37.52 27.7642 38.1479C27.0477 38.7731 26.0851 39.0865 24.8796 39.0865C23.7521 39.0865 22.6594 38.7258 21.601 38.0101L22.0961 37.0201C23.007 37.4754 23.8312 37.7027 24.5713 37.7027C25.2655 37.7027 25.8089 37.5483 26.202 37.243C26.5942 36.9356 26.8293 36.5068 26.8293 35.9628C26.8293 35.2784 26.352 34.6934 25.4762 34.2027C24.6677 33.759 23.0519 32.8327 23.0519 32.8327C22.1765 32.1941 21.7375 31.5088 21.7375 30.3798C21.7375 29.446 22.0649 28.6914 22.7186 28.1171C23.3739 27.5419 24.2193 27.2541 25.2545 27.2541C26.3246 27.2541 27.2977 27.5398 28.174 28.1088L27.7288 29.0979C26.979 28.7801 26.2395 28.6206 25.5104 28.6206C24.9189 28.6206 24.463 28.7625 24.1452 29.0482C23.8256 29.3315 23.628 29.696 23.628 30.1403C23.628 30.8229 24.1157 31.4151 25.0162 31.9153C25.8348 32.3593 27.4902 33.3035 27.4902 33.3035C28.3906 33.9408 28.8394 34.6205 28.8394 35.74Z" fill="#E6892E"/>
<path fill-rule="evenodd" clip-rule="evenodd" d="M48.3845 23.5473C47.2698 23.5193 46.4065 23.6306 45.6825 23.9371C45.4736 24.0207 45.1398 24.0207 45.1112 24.2853C45.2234 24.3965 45.2368 24.5775 45.335 24.7313C45.5016 25.0098 45.7935 25.3851 46.0587 25.5809C46.3512 25.8038 46.6437 26.0258 46.9505 26.2207C47.4933 26.5563 48.1063 26.7503 48.6347 27.0848C48.9421 27.2797 49.2474 27.53 49.5548 27.7395C49.7075 27.851 49.8042 28.0323 50 28.101V28.0591C49.9018 27.9341 49.8744 27.7528 49.7774 27.613C49.6385 27.4746 49.4989 27.3485 49.3593 27.2098C48.9552 26.6667 48.4532 26.1936 47.9113 25.8038C47.4653 25.4964 46.4899 25.0786 46.3095 24.565C46.3095 24.565 46.2949 24.5501 46.2813 24.5364C46.5878 24.5081 46.9505 24.3965 47.2427 24.312C47.7155 24.1871 48.1473 24.2153 48.6347 24.0903C48.8579 24.0341 49.0808 23.9642 49.3046 23.8957V23.7696C49.0525 23.5193 48.8722 23.1845 48.6077 22.948C47.898 22.3353 47.1171 21.7372 46.3095 21.2349C45.8772 20.9563 45.3201 20.776 44.8603 20.5385C44.694 20.4549 44.4158 20.4136 44.3179 20.2737C44.067 19.9672 43.9272 19.564 43.7465 19.2013C43.343 18.4362 42.9523 17.5869 42.6048 16.7778C42.3542 16.2351 42.201 15.6923 41.8945 15.1906C40.4593 12.8225 38.9 11.3888 36.5046 9.9819C35.9892 9.68879 35.3765 9.56381 34.7224 9.41056C34.3736 9.39598 34.0258 9.3689 33.6776 9.35521C33.4544 9.25731 33.2313 8.99247 33.0367 8.8672C32.2424 8.36609 30.196 7.27995 29.6107 8.71424C29.2346 9.62005 30.1678 10.511 30.4883 10.9707C30.7248 11.2906 31.0316 11.6534 31.198 12.0149C31.2956 12.2518 31.3235 12.5029 31.4214 12.7532C31.644 13.3659 31.8526 14.0485 32.1457 14.6198C32.2984 14.9124 32.4653 15.2192 32.6602 15.4825C32.7727 15.6366 32.967 15.7054 33.009 15.9568C32.8147 16.2351 32.7995 16.6529 32.6882 17.0013C32.1871 18.5752 32.3817 20.5248 33.0923 21.6806C33.3146 22.0288 33.8446 22.795 34.5549 22.5019C35.1815 22.2517 35.0423 21.4577 35.2232 20.7617C35.2649 20.5936 35.2369 20.4832 35.3202 20.3719V20.4002C35.5151 20.7894 35.7106 21.1646 35.8916 21.5556C36.3239 22.2374 37.0753 22.948 37.7026 23.4211C38.0358 23.6726 38.3007 24.1037 38.7185 24.2573V24.2153H38.6911C38.6072 24.0903 38.4822 24.0341 38.3706 23.9371C38.1201 23.6862 37.8421 23.3797 37.6463 23.1015C37.0616 22.3219 36.5456 21.4577 36.0871 20.5665C35.8636 20.1338 35.669 19.6607 35.4877 19.2292C35.4044 19.0629 35.4044 18.8114 35.2649 18.7281C35.0554 19.0343 34.7498 19.2992 34.5968 19.6741C34.332 20.2737 34.3043 21.0117 34.2061 21.7779C34.1508 21.7925 34.1787 21.7779 34.1508 21.8056C33.7056 21.6943 33.5523 21.2349 33.3848 20.8459C32.967 19.8559 32.8968 18.2684 33.2595 17.1263C33.3565 16.8344 33.7755 15.9152 33.6077 15.6366C33.5235 15.3709 33.2453 15.2192 33.0923 15.0094C32.9117 14.7448 32.7156 14.4112 32.5915 14.1181C32.257 13.3385 32.0889 12.4747 31.7279 11.695C31.5607 11.3323 31.2676 10.9561 31.0316 10.6226C30.7665 10.2464 30.4743 9.9819 30.2651 9.53673C30.196 9.38318 30.0984 9.13233 30.2094 8.96569C30.2368 8.8541 30.2933 8.81215 30.4049 8.78388C30.585 8.63092 31.101 8.82554 31.2816 8.90915C31.7973 9.11745 32.229 9.31355 32.6602 9.60547C32.8554 9.74503 33.0643 10.0096 33.3146 10.0798H33.6077C34.0532 10.1765 34.5549 10.1069 34.973 10.2328C35.7106 10.4693 36.379 10.8175 36.9783 11.1936C38.8021 12.3497 40.3063 13.9935 41.3225 15.9568C41.4901 16.2767 41.5603 16.5695 41.7132 16.9031C42.0058 17.5869 42.3682 18.2832 42.6601 18.951C42.9523 19.6057 43.2314 20.2737 43.6498 20.8177C43.8581 21.1096 44.694 21.2628 45.0701 21.4161C45.3481 21.5411 45.7804 21.6526 46.0313 21.8056C46.5047 22.0978 46.9773 22.4326 47.4236 22.7534C47.6459 22.9203 48.3425 23.2682 48.3845 23.5473Z" fill="#196D80"/>
<path fill-rule="evenodd" clip-rule="evenodd" d="M47.3865 38.9338H47.6921V37.7611H48.092V37.5215H46.9711V37.7611H47.3865V38.9338ZM49.712 38.9338H50V37.5215H49.5668L49.2142 38.4842L48.8303 37.5215H48.4128V38.9338H48.6854V37.859H48.7009L49.1029 38.9338H49.3106L49.712 37.859V38.9338Z" fill="#E6892E"/>
</svg>
