<?xml version="1.0" encoding="utf-8"?>
<!-- Generator: Adobe Illustrator 26.1.0, SVG Export Plug-In . SVG Version: 6.00 Build 0)  -->
<svg version="1.1" id="Layer_1" xmlns="http://www.w3.org/2000/svg" x="0px" y="0px"
     viewBox="0 0 17.7 22.4" style="enable-background:new 0 0 17.7 22.4;" xml:space="preserve">
<style type="text/css">
	.st0{fill:#FF7070;}
	.st1{fill:#1E1F4D;}
</style>
<g>
	<path class="st0" d="M3.9,21.8L4.9,18c1.3,0.3,2.6,0.5,4,0.5c2.4,0,4.7-0.5,6.8-1.6l1.9,3.5c-2.6,1.4-5.6,2-8.6,2
		C7.3,22.5,5.5,22.3,3.9,21.8z"/>
	<path class="st1" d="M0,20.3l1.9-3.5c0.9,0.5,2,0.9,3,1.2l-1.1,3.8C2.5,21.5,1.3,20.9,0,20.3z"/>
	<path class="st1" d="M9,0c4.2,0,7.6,3.3,7.6,7.4s-3.4,7.4-7.6,7.4s-7.6-3.3-7.6-7.4S4.8,0,9,0z M9,10.8c2,0,3.7-1.6,3.7-3.6
		S11,3.7,9,3.7S5.4,5.3,5.4,7.3S7,10.8,9,10.8z"/>
</g>
</svg>
