<?xml version="1.0" encoding="utf-8"?>
<!-- Generator: Adobe Illustrator 25.2.1, SVG Export Plug-In . SVG Version: 6.00 Build 0)  -->
<svg version="1.1" id="CARD" xmlns="http://www.w3.org/2000/svg" x="0px" y="0px"
     viewBox="0 0 72 42" style="enable-background:new 0 0 72 42;" xml:space="preserve">
<style type="text/css">
	.st0{fill:#6428B4;}
</style>
<path class="st0" d="M57,5.9c-5.2,0-9.8,2.7-12.5,6.7l-11,16.6c-2.7,4-7.3,6.7-12.5,6.7c-8.3,0-15-6.7-15-15s6.7-15,15-15
	c5.2,0,9.7,2.6,12.4,6.6l2,3l3.6-5.4l-0.5-0.8C34.7,3.7,28.3,0,21,0C9.4,0,0,9.4,0,21s9.4,21,21,21c7.3,0,13.8-3.7,17.5-9.4l4.1-6.2
	l1.9,2.9c2.7,4,7.3,6.7,12.5,6.7c8.3,0,15-6.7,15-15S65.3,5.9,57,5.9z M57,29.9c-3.1,0-5.9-1.6-7.5-4.1l-3.3-4.9l3.3-5
	c1.6-2.4,4.4-4,7.5-4c5,0,9,4,9,9S62,29.9,57,29.9z"/>
</svg>
