<svg width="50" height="50" viewBox="0 0 50 50" fill="none" xmlns="http://www.w3.org/2000/svg">
<g clip-path="url(#clip0)">
<path d="M36.9161 36.1149C37.2318 33.485 37.1372 33.0994 39.0961 33.5254L39.5934 33.569C41.0996 33.6376 43.07 33.3268 44.2275 32.789C46.7194 31.6328 48.1969 29.7024 45.7399 30.2096C40.1352 31.3658 39.7499 29.468 39.7499 29.468C45.6681 20.6868 48.1421 9.53999 46.0066 6.81147C40.1821 -0.630956 30.1 2.8884 29.9313 2.97977L29.8775 2.98969C28.7701 2.75992 27.5308 2.62263 26.1386 2.60012C23.6023 2.55845 21.6777 3.26504 20.2178 4.37233C20.2178 4.37233 2.23186 -3.03766 3.0686 13.6912C3.24656 17.2498 8.16961 40.6192 14.0413 33.5606C16.1874 30.9795 18.2613 28.7971 18.2613 28.7971C19.2912 29.4813 20.5242 29.8303 21.8173 29.7049L21.9173 29.6197C21.886 29.9401 21.8998 30.2536 21.9573 30.6247C20.4449 32.3148 20.8893 32.6115 17.8652 33.234C14.8056 33.8646 16.6031 34.9872 17.7764 35.2806C19.1991 35.6364 22.4905 36.1404 24.715 33.027L24.6264 33.3823C25.2198 33.857 25.1797 36.7942 25.2638 38.8928C25.3481 40.9915 25.4886 42.9499 25.9164 44.1046C26.3442 45.259 26.8489 48.2331 30.8234 47.3814C34.1451 46.6695 36.6847 45.645 36.9161 36.1148" fill="black"/>
<path d="M36.9161 36.1149C37.2318 33.485 37.1372 33.0994 39.0961 33.5254L39.5934 33.569C41.0996 33.6376 43.07 33.3268 44.2275 32.789C46.7194 31.6328 48.1969 29.7024 45.7399 30.2096C40.1352 31.3658 39.7499 29.468 39.7499 29.468C45.6681 20.6868 48.1421 9.53999 46.0066 6.81147C40.1821 -0.630956 30.1 2.8884 29.9313 2.97977L29.8775 2.98969C28.7701 2.75992 27.5308 2.62263 26.1386 2.60012C23.6023 2.55845 21.6777 3.26504 20.2179 4.37233C20.2179 4.37233 2.23186 -3.03766 3.0686 13.6912C3.24656 17.2498 8.16961 40.6192 14.0413 33.5606C16.1874 30.9795 18.2613 28.7971 18.2613 28.7971C19.2912 29.4813 20.5242 29.8303 21.8173 29.7049L21.9173 29.6197C21.886 29.9401 21.8998 30.2536 21.9573 30.6247C20.4449 32.3148 20.8893 32.6115 17.8652 33.234C14.8056 33.8646 16.6031 34.9872 17.7764 35.2806C19.1991 35.6364 22.4905 36.1404 24.715 33.027L24.6264 33.3823C25.2198 33.857 25.1797 36.7942 25.2638 38.8928C25.3481 40.9915 25.4886 42.9499 25.9164 44.1046C26.3442 45.259 26.8489 48.2331 30.8234 47.3814C34.1451 46.6695 36.6847 45.645 36.9161 36.1148" stroke="black" stroke-width="4.54902"/>
<path d="M45.7405 30.2093C40.1352 31.3656 39.7499 29.4678 39.7499 29.4678C45.6682 20.686 48.1422 9.53896 46.0071 6.81077C40.1826 -0.631202 30.1 2.88837 29.9318 2.97975L29.8776 2.98944C28.7702 2.75956 27.5308 2.62261 26.1379 2.59988C23.6016 2.55831 21.6778 3.26479 20.2179 4.37187C20.2179 4.37187 2.23158 -3.0378 3.06809 13.6909C3.24605 17.2498 8.169 40.6192 14.0409 33.5605C16.1871 30.9795 18.2607 28.7971 18.2607 28.7971C19.2907 29.4813 20.5237 29.8303 21.8163 29.7049L21.9167 29.6196C21.8855 29.9401 21.8997 30.2536 21.9569 30.6247C20.4442 32.3147 20.8887 32.6115 17.8648 33.2339C14.805 33.8645 16.6025 34.9872 17.7761 35.2806C19.1989 35.6364 22.4904 36.1404 24.7145 33.027L24.6258 33.3823C25.2185 33.857 25.6347 36.4701 25.565 38.839C25.4952 41.2079 25.4486 42.8342 25.9156 44.1046C26.3826 45.3749 26.8481 48.2331 30.8233 47.3813C34.145 46.6695 35.8663 44.8249 36.1057 41.7479C36.2757 39.5604 36.6602 39.8837 36.6845 37.928L36.993 37.0021C37.3487 34.0368 37.0495 33.0802 39.0959 33.5251L39.5932 33.5688C41.0995 33.6373 43.0708 33.3265 44.2278 32.7888C46.7192 31.6326 48.1968 29.7021 45.7403 30.2093H45.7405Z" fill="#336791"/>
<path d="M24.9551 31.9092C24.8008 37.4269 24.9939 42.983 25.5338 44.3333C26.074 45.6836 27.2301 48.3101 31.2057 47.4584C34.527 46.7464 35.7355 45.3684 36.2599 42.3269C36.6461 40.0891 37.3907 33.8743 37.4862 32.601" stroke="white" stroke-width="1.51634" stroke-linecap="round" stroke-linejoin="round"/>
<path d="M20.1901 4.24872C20.1901 4.24872 2.19155 -3.10757 3.0283 13.6211C3.20625 17.18 8.12954 40.5502 14.0013 33.4912C16.1471 30.9098 18.0876 28.8852 18.0876 28.8852" stroke="white" stroke-width="1.51634" stroke-linecap="round" stroke-linejoin="round"/>
<path d="M29.9121 2.90608C29.2891 3.10142 39.924 -0.98167 45.9679 6.74123C48.1029 9.46952 45.6289 20.6166 39.7107 29.3986" stroke="white" stroke-width="1.51634" stroke-linecap="round" stroke-linejoin="round"/>
<path d="M39.7106 29.3986C39.7106 29.3986 40.0963 31.2969 45.7016 30.1399C48.1576 29.6327 46.6795 31.5634 44.1887 32.7201C42.1445 33.6689 37.5614 33.912 37.4865 32.601C37.2939 29.2185 39.8987 30.2461 39.7107 29.3986C39.5408 28.6353 38.3759 27.8861 37.6053 26.018C36.9326 24.3874 28.3792 11.8829 39.9774 13.7401C40.4022 13.6521 36.9524 2.70808 26.0982 2.53012C15.2464 2.35217 15.6024 15.8754 15.6024 15.8754" stroke="white" stroke-width="1.51634" stroke-linecap="round" stroke-linejoin="bevel"/>
<path d="M21.9174 30.5553C20.4045 32.2453 20.8494 32.542 17.8253 33.1647C14.7655 33.7954 16.5632 34.9179 17.7365 35.2112C19.1592 35.5672 22.4508 36.0712 24.6749 32.957C25.3522 32.0088 24.6709 30.4959 23.7405 30.1103C23.291 29.924 22.6899 29.6907 21.9174 30.5553V30.5553Z" stroke="white" stroke-width="1.51634" stroke-linecap="round" stroke-linejoin="round"/>
<path d="M21.8182 30.5257C21.6658 29.532 22.1447 28.3496 22.6579 26.9663C23.4293 24.8908 25.209 22.8149 23.7853 16.2311C22.7241 11.3249 15.6066 15.21 15.6022 15.8753C15.5978 16.5403 15.9241 19.2472 15.4833 22.3994C14.9081 26.5127 18.1006 29.9915 21.7769 29.6356" stroke="white" stroke-width="1.51634" stroke-linecap="round" stroke-linejoin="round"/>
<path d="M20.1248 15.7757C20.0927 16.0029 20.5408 16.6092 21.125 16.6902C21.7082 16.7715 22.2075 16.2977 22.2391 16.0708C22.2707 15.8435 21.8232 15.5933 21.2388 15.5119C20.6552 15.4305 20.1558 15.549 20.1249 15.7757H20.1248Z" fill="white" stroke="white" stroke-width="0.505443"/>
<path d="M37.8897 15.3124C37.9213 15.5396 37.4738 16.146 36.8895 16.227C36.3058 16.3083 35.8066 15.8345 35.7746 15.6075C35.7437 15.3803 36.1913 15.13 36.7751 15.0487C37.3589 14.9673 37.858 15.0858 37.8897 15.3126V15.3124Z" fill="white" stroke="white" stroke-width="0.252722"/>
<path d="M39.9774 13.7399C40.0736 15.5222 39.5935 16.7361 39.533 18.6333C39.4434 21.3911 40.8478 24.5475 38.7317 27.7078" stroke="white" stroke-width="1.51634" stroke-linecap="round" stroke-linejoin="round"/>
</g>
<defs>
<clipPath id="clip0">
<rect width="50" height="50" fill="white"/>
</clipPath>
</defs>
</svg>
