<?xml version="1.0" encoding="utf-8"?>
<!-- Generator: Adobe Illustrator 25.2.1, SVG Export Plug-In . SVG Version: 6.00 Build 0)  -->
<svg version="1.1" id="Layer_1" xmlns="http://www.w3.org/2000/svg" x="0px" y="0px"
     viewBox="0 0 116.1 116.1" style="enable-background:new 0 0 116.1 116.1;" xml:space="preserve">
<style type="text/css">
	.st0{fill:#A0DBE8;}
	.st1{fill:#525353;}
	.st2{fill:#AA9678;}
	.st3{fill:#C0B098;}
	.st4{fill:#786453;}
	.st5{fill:#8B7460;}
	.st6{fill:none;}
	.st7{fill:#FFFFFF;}
	.st8{fill:#BBBCBD;}
	.st9{fill:#676A6A;}
	.st10{fill:#909393;}
	.st11{fill:#E2DDDB;}
	.st12{fill:#FBB040;}
	.st13{fill:#9F2255;}
	.st14{fill:#E2066F;}
</style>
<g id="Calque_1">
</g>
<path id="XMLID_176_" class="st0" d="M37.6,89.1c0.9-0.4,1.9-0.8,2.8-1.1c1.1-0.4,2.1-0.8,3.2-1.1c1.4-0.4,2.7-0.8,4.1-1.1
	c1.9-0.4,3.8-0.7,5.7-0.9c-1.1,3.4-2.3,6.7-3.5,10.1c0.1,0.6,0.1,1.3,0.1,1.9c2.6-0.5,5.3-0.8,8-0.8s5.4,0.3,8,0.8
	c0-0.7,0-1.3,0.1-1.9c-1.3-3.3-2.5-6.7-3.5-10.1c1.9,0.2,3.8,0.5,5.7,0.9c1.4,0.3,2.8,0.7,4.1,1.1c1.1,0.3,2.2,0.7,3.2,1.1
	c0.9,0.4,1.9,0.7,2.8,1.1C85,92,91,96.3,95.9,102c12.3-10.6,20.1-26.4,20.1-43.9c0-32.1-26-58-58-58S0,26,0,58
	C0,75.6,7.8,91.3,20.1,102C25.1,96.3,31,92,37.6,89.1z"/>
<path id="XMLID_175_" class="st1" d="M41.5,99.6c2.7-1.2,5.6-2.1,8.6-2.7c0-0.7,0-1.3-0.1-1.9c1.3-3.3,2.5-6.7,3.5-10.1
	c-1.9,0.2-3.8,0.5-5.7,0.9c-1.4,0.3-2.8,0.7-4.1,1.1c-1.1,0.3-2.2,0.7-3.2,1.1l4.2,1L41.5,99.6z"/>
<path id="XMLID_174_" class="st1" d="M31.5,105.8c0.1-1.1,0.2-2.2,0.2-3.3c0-0.7,0.5-1.2,1.2-1.2h1.1l3.7-12.3
	C31,92,25.1,96.3,20.1,102c2.7,2.3,5.6,4.4,8.8,6.2C29.7,107.4,30.6,106.6,31.5,105.8z"/>
<path id="XMLID_173_" class="st1" d="M78.5,89.1l3.7,12.3h1.1c0.7,0,1.2,0.5,1.2,1.2c0,1.1,0.1,2.2,0.2,3.3c0.9,0.8,1.8,1.6,2.6,2.4
	c3.1-1.8,6-3.9,8.8-6.2C91,96.3,85,92,78.5,89.1z"/>
<path id="XMLID_172_" class="st1" d="M71.4,88.9l4.2-1c-1.1-0.4-2.1-0.8-3.2-1.1c-1.4-0.4-2.7-0.8-4.1-1.1c-1.9-0.4-3.8-0.7-5.7-0.9
	c1.1,3.4,2.3,6.7,3.5,10.1c-0.1,0.6-0.1,1.3-0.1,1.9c3,0.6,5.9,1.5,8.6,2.7L71.4,88.9z"/>
<path id="XMLID_171_" d="M58,101.3h8.2c-0.2-1.5-0.2-3-0.2-4.5c-2.6-0.5-5.3-0.8-8-0.8s-5.4,0.3-8,0.8c0,1.5,0,3-0.2,4.5H58z"/>
<path id="XMLID_170_" d="M28.9,108.2c0.7,0.4,1.4,0.8,2,1.1c0.2-1.2,0.4-2.3,0.5-3.5C30.6,106.6,29.7,107.4,28.9,108.2z"/>
<path id="XMLID_169_" d="M40.9,101.3h9c0.2-1.5,0.2-3,0.2-4.5c-3,0.6-5.9,1.5-8.6,2.7L40.9,101.3z"/>
<path id="XMLID_168_" d="M84.6,105.8c0.1,1.2,0.3,2.4,0.5,3.5c0.7-0.4,1.4-0.7,2-1.1C86.4,107.4,85.5,106.6,84.6,105.8z"/>
<path id="XMLID_167_" d="M75.2,101.3l-0.5-1.8c-2.7-1.2-5.6-2.1-8.6-2.7c0,1.5,0,3,0.2,4.5L75.2,101.3L75.2,101.3z"/>
<path id="XMLID_166_" class="st2" d="M40.9,101.3l0.5-1.8l3.2-10.6l-4.2-1c-0.9,0.4-1.9,0.7-2.8,1.1l-3.7,12.3h4L40.9,101.3
	L40.9,101.3z"/>
<path id="XMLID_165_" class="st2" d="M74.6,99.6l0.5,1.8h3h4l-3.7-12.3c-0.9-0.4-1.9-0.8-2.8-1.1l-4.2,1L74.6,99.6z"/>
<path id="XMLID_164_" class="st3" d="M34,103.8c0,0,0.1-0.1,0.1-0.1L34,103.8C34,103.8,34,103.8,34,103.8z"/>
<path id="XMLID_163_" class="st3" d="M58,103.8h-8.5h-9.3h-6c0,0-0.1,0.1-0.1,0.1c-0.1,2.3-0.4,4.5-0.9,6.7c7.5,3.6,16,5.6,24.9,5.6
	V103.8z"/>
<path id="XMLID_162_" class="st2" d="M82.1,103.8h-0.1C82,103.8,82,103.8,82.1,103.8C82.1,103.8,82.1,103.8,82.1,103.8z"/>
<path id="XMLID_161_" class="st2" d="M81.9,103.8h-6h-9.3H58l0,0v12.3c8.9,0,17.3-2,24.9-5.6c-0.5-2.2-0.8-4.4-0.9-6.7
	C82,103.8,82,103.8,81.9,103.8z"/>
<rect id="XMLID_160_" x="58" y="102.6" class="st4" width="0" height="1.2"/>
<path id="XMLID_159_" class="st5" d="M84.6,105.8c-0.1-1.1-0.2-2.2-0.2-3.3c0-0.7-0.5-1.2-1.2-1.2h-1.1h-4h-3h-9H58h-8.2h-9h-3h-4
	h-1.1c-0.7,0-1.2,0.5-1.2,1.2c0,1.1-0.1,2.2-0.2,3.3c-0.1,1.2-0.3,2.4-0.5,3.5c0.7,0.4,1.5,0.8,2.2,1.1c0.5-2.2,0.8-4.4,0.9-6.7
	c0,0,0-0.1,0-0.1h0.1h6h9.3H58l0,0h8.5h9.3h6h0.1c0,0,0,0.1,0,0.1c0.1,2.3,0.4,4.5,0.9,6.7c0.7-0.4,1.5-0.7,2.2-1.1
	C84.9,108.2,84.7,107,84.6,105.8z"/>
<g id="XMLID_195_">
	<path id="XMLID_158_" class="st6" d="M77.6,49.2L77.6,49.2C77.6,49.2,77.6,49.2,77.6,49.2c0.7,2.1,1.6,4.2,2,6.4c0,0.2,0,0.3,0,0.5
		c0,0.2-0.1,0.4-0.1,0.6c0.1-0.3,0.1-0.6,0.2-1C79.2,53.5,78.3,51.3,77.6,49.2C77.6,49.2,77.6,49.2,77.6,49.2
		C77.6,49.2,77.6,49.2,77.6,49.2L77.6,49.2z"/>
	<path id="XMLID_157_" class="st6" d="M94.5,62.3C94.4,62.4,94.4,62.4,94.5,62.3C94.4,62.4,94.4,62.4,94.5,62.3z"/>
	<path id="XMLID_156_" class="st6" d="M94.9,62.1c0,0-0.1,0.1-0.1,0.1C94.8,62.1,94.8,62.1,94.9,62.1z"/>
	<path id="XMLID_155_" class="st6" d="M75.8,47.7c-1.3-1.1-2.7-2.2-4.2-3.1l0,0C73.1,45.5,74.5,46.6,75.8,47.7z"/>
	<path id="XMLID_154_" class="st6" d="M89.3,61.6C89.3,61.6,89.3,61.6,89.3,61.6C89.3,61.6,89.3,61.6,89.3,61.6z"/>
	<path id="XMLID_153_" class="st6" d="M91.8,64.7c0,0.1,0.1,0.1,0.1,0.1C91.8,64.8,91.8,64.7,91.8,64.7z"/>
	<path id="XMLID_152_" class="st6" d="M79.4,56.8c0,0.2-0.1,0.3-0.1,0.5C79.3,57.1,79.3,57,79.4,56.8z"/>
	<path id="XMLID_151_" class="st6" d="M73.7,78c-0.9,1.5-1.5,2.9-1.8,4.2C72.2,80.8,72.8,79.4,73.7,78c0.3-0.5,0.6-1,0.9-1.4
		C74.3,77,74,77.5,73.7,78C73.7,78,73.7,78,73.7,78z"/>
	<path id="XMLID_150_" class="st6" d="M77.6,49.2c0.1-0.1,0.1-0.2,0.2-0.3l0,0C77.7,49,77.6,49.1,77.6,49.2c0.3,0.3,0.7,0.6,1,0.9
		C78.3,49.8,77.9,49.5,77.6,49.2z"/>
	<path id="XMLID_149_" class="st6" d="M66.1,56.8C66.1,56.8,66.1,56.8,66.1,56.8C66.1,56.8,66.1,56.8,66.1,56.8z"/>
	<path id="XMLID_148_" class="st6" d="M65.6,55.9L65.6,55.9L65.6,55.9z"/>
	<path id="XMLID_147_" class="st6" d="M69.6,43.5c-0.1,0-0.1-0.1-0.2-0.1C69.4,43.4,69.5,43.4,69.6,43.5z"/>
	<path id="XMLID_146_" class="st6" d="M69.9,43.6c-0.1-0.1-0.2-0.1-0.2-0.1C69.7,43.5,69.8,43.6,69.9,43.6z"/>
	<path id="XMLID_145_" class="st6" d="M71.8,48.3c0,0.1,0,0.3,0,0.4C71.8,48.6,71.8,48.4,71.8,48.3z"/>
	<path id="XMLID_144_" class="st6" d="M65.9,56.3C65.9,56.3,65.9,56.3,65.9,56.3C65.9,56.3,65.9,56.3,65.9,56.3z"/>
	<path id="XMLID_143_" class="st6" d="M94.1,67.7c0.1,0.1,0.1,0.2,0.2,0.3C94.3,67.9,94.2,67.8,94.1,67.7z"/>
	<path id="XMLID_142_" class="st6" d="M71.7,50.1c0,0.6,0,1.2-0.1,1.8C71.7,51.3,71.7,50.7,71.7,50.1z"/>
	<path id="XMLID_141_" class="st6" d="M66.2,57.4C66.2,57.4,66.2,57.4,66.2,57.4C66.2,57.4,66.2,57.4,66.2,57.4z"/>
	<path id="XMLID_140_" class="st6" d="M71.5,44.6c-0.2-0.1-0.8-0.4-1.3-0.7C70.7,44.1,71.3,44.4,71.5,44.6z"/>
	<path id="XMLID_139_" class="st6" d="M70.2,43.8c-0.1-0.1-0.2-0.1-0.4-0.2C70,43.7,70.1,43.8,70.2,43.8z"/>
	<path id="XMLID_138_" class="st6" d="M71.6,44.6L71.6,44.6C71.6,44.6,71.6,44.6,71.6,44.6C71.6,44.6,71.6,44.6,71.6,44.6z"/>
	<path id="XMLID_137_" class="st6" d="M96.1,58.7c0,0,0-0.1,0-0.1c0,0,0,0,0,0c0,0,0,0,0,0c0,0,0-0.1,0-0.1c0,0,0,0.1,0,0.1
		C96.1,58.6,96.1,58.7,96.1,58.7z"/>
	<path id="XMLID_136_" class="st6" d="M86.6,58.4c0.1,0.1,0.1,0.1,0.2,0.2c0,0,0,0,0,0h0C86.7,58.5,86.6,58.5,86.6,58.4L86.6,58.4z"
		/>
	<path id="XMLID_135_" class="st6" d="M78.6,50.1c0.8,0.7,1.5,1.4,2.3,2.2C80.1,51.6,79.4,50.8,78.6,50.1z"/>
	<path id="XMLID_134_" class="st6" d="M93.7,54.6c0.1,0,0.3,0,0.4,0.1C94,54.6,93.9,54.6,93.7,54.6z"/>
	<path id="XMLID_133_" class="st6" d="M91.5,57.5c0,0.1,0,0.1,0,0.2C91.5,57.6,91.5,57.5,91.5,57.5z"/>
	<path id="XMLID_132_" class="st6" d="M94.3,54.7c0.1,0,0.2,0.1,0.3,0.1C94.5,54.8,94.4,54.7,94.3,54.7z"/>
	<path id="XMLID_131_" class="st6" d="M95.2,55.4c0,0,0.1,0.1,0.1,0.1C95.2,55.5,95.2,55.5,95.2,55.4z"/>
	<path id="XMLID_130_" class="st6" d="M96,57.7C96,57.7,96,57.7,96,57.7C96,57.7,96,57.7,96,57.7C96,57.7,96,57.7,96,57.7
		C96,57.7,96,57.7,96,57.7z"/>
	<path id="XMLID_129_" class="st6" d="M96,59.4C96,59.4,96,59.4,96,59.4C96,59.4,96,59.4,96,59.4C96,59.4,96,59.5,96,59.4
		C96,59.5,96,59.5,96,59.4z"/>
	<path id="XMLID_128_" class="st6" d="M92.2,55.6c0,0,0.1-0.1,0.1-0.1C92.3,55.5,92.2,55.5,92.2,55.6z"/>
	<path id="XMLID_127_" class="st6" d="M93.3,54.6c0.1,0,0.3-0.1,0.4-0.1C93.6,54.6,93.5,54.6,93.3,54.6z"/>
	<path id="XMLID_126_" class="st6" d="M83,54.5c-0.4-0.4-0.7-0.7-1.1-1.1C82.3,53.7,82.6,54.1,83,54.5z"/>
	<path id="XMLID_125_" class="st6" d="M93.7,41.9L93.7,41.9C93.7,41.9,93.7,41.9,93.7,41.9v5.4l-2.1,9.5c0,0,0,0,0,0.1
		c0,0,0,0,0-0.1l0,0l0,0l2.1-9.5L93.7,41.9L93.7,41.9L93.7,41.9L93.7,41.9z"/>
	<path id="XMLID_124_" class="st6" d="M84.9,56.5c-0.2-0.2-0.4-0.4-0.6-0.6C84.6,56.1,84.8,56.3,84.9,56.5z"/>
	<path id="XMLID_123_" class="st6" d="M95.8,56.7c0,0.1,0.1,0.1,0.1,0.2c0,0,0,0,0,0C95.8,56.9,95.8,56.8,95.8,56.7L95.8,56.7
		L95.8,56.7z"/>
	<path id="XMLID_122_" class="st6" d="M91.4,58.6L91.4,58.6c0,0,0-0.1,0-0.1C91.4,58.5,91.4,58.5,91.4,58.6z"/>
	<path id="XMLID_121_" class="st6" d="M92.9,54.8c0.1-0.1,0.2-0.1,0.3-0.1C93.1,54.7,93,54.8,92.9,54.8z"/>
	<path id="XMLID_120_" class="st6" d="M92.5,55.2c0.1-0.1,0.2-0.2,0.3-0.3C92.7,55,92.6,55.1,92.5,55.2z"/>
	<path id="XMLID_119_" class="st6" d="M95.9,60.2C95.9,60.2,95.9,60.2,95.9,60.2c-0.1,0.2-0.1,0.4-0.2,0.6
		C95.8,60.6,95.8,60.4,95.9,60.2L95.9,60.2L95.9,60.2z"/>
	<path id="XMLID_118_" class="st6" d="M25.1,56.8c0.1-0.1,0.2-0.3,0.3-0.4C25.3,56.5,25.2,56.6,25.1,56.8z"/>
	<path id="XMLID_117_" class="st6" d="M94.7,54.9c0.1,0.1,0.2,0.2,0.3,0.3C94.9,55.1,94.8,55,94.7,54.9z"/>
	<path id="XMLID_116_" class="st6" d="M26.8,54.4c0-0.1,0.1-0.1,0.1-0.2C26.9,54.2,26.8,54.3,26.8,54.4z"/>
	<path id="XMLID_115_" class="st6" d="M66.3,58.5L66.3,58.5C66.3,58.5,66.3,58.5,66.3,58.5L66.3,58.5L66.3,58.5L66.3,58.5
		C66.3,58.5,66.3,58.5,66.3,58.5z"/>
	<path id="XMLID_114_" class="st6" d="M22.6,61.4c-0.1,0.2-0.2,0.4-0.3,0.6C22.4,61.8,22.5,61.6,22.6,61.4z"/>
	<path id="XMLID_113_" class="st6" d="M21.3,64.4c0,0,0,0.1,0,0.1C21.3,64.4,21.3,64.4,21.3,64.4z"/>
	<polygon id="XMLID_112_" class="st6" points="95.2,43.3 95.2,43.2 95.2,43.2 	"/>
	<path id="XMLID_111_" class="st6" d="M32.8,47.8L32.8,47.8L32.8,47.8z"/>
	<path id="XMLID_110_" class="st6" d="M30.5,50c0.1-0.1,0.2-0.2,0.3-0.3C30.8,49.7,30.7,49.8,30.5,50z"/>
	<path id="XMLID_109_" class="st6" d="M28.5,52.2c0.1-0.1,0.2-0.3,0.4-0.4C28.7,51.9,28.6,52.1,28.5,52.2z"/>
	<path id="XMLID_108_" class="st6" d="M95.8,56.7l-2.1-9.5L95.8,56.7z"/>
	<path id="XMLID_107_" class="st6" d="M59.8,63.9c0,0-0.1,0-0.1,0C59.7,63.9,59.7,63.9,59.8,63.9z"/>
	<path id="XMLID_106_" class="st6" d="M60.3,64c0,0-0.1,0-0.1,0C60.2,64,60.3,64,60.3,64z"/>
	<path id="XMLID_105_" class="st6" d="M23.9,58.9c-0.1,0.2-0.3,0.5-0.4,0.7C23.6,59.4,23.8,59.1,23.9,58.9z"/>
	<path id="XMLID_104_" class="st6" d="M58.2,63.3C58.2,63.3,58.2,63.3,58.2,63.3C58.2,63.3,58.2,63.3,58.2,63.3z"/>
	<path id="XMLID_103_" class="st6" d="M59.2,63.8C59.2,63.8,59.2,63.8,59.2,63.8C59.2,63.8,59.2,63.8,59.2,63.8z"/>
	<path id="XMLID_102_" class="st6" d="M58.7,63.6C58.7,63.6,58.7,63.6,58.7,63.6C58.7,63.6,58.7,63.6,58.7,63.6z"/>
	<path id="XMLID_101_" class="st6" d="M55.8,60.6C55.8,60.6,55.8,60.6,55.8,60.6C55.8,60.6,55.8,60.6,55.8,60.6z"/>
	<path id="XMLID_100_" class="st6" d="M55.6,57.3c0,0,0,0.1,0,0.1C55.5,57.4,55.5,57.4,55.6,57.3z"/>
	<path id="XMLID_99_" class="st6" d="M56.1,55.9C56.1,55.9,56.1,55.9,56.1,55.9C56.1,55.9,56.1,55.9,56.1,55.9z"/>
	<path id="XMLID_98_" class="st6" d="M57.9,54C57.9,54,57.9,54,57.9,54C57.9,54,57.9,54,57.9,54z"/>
	<path id="XMLID_97_" class="st6" d="M55.7,56.8C55.7,56.8,55.7,56.9,55.7,56.8C55.7,56.9,55.7,56.8,55.7,56.8z"/>
	<path id="XMLID_96_" class="st6" d="M55.9,56.3C55.9,56.3,55.9,56.4,55.9,56.3C55.9,56.4,55.9,56.3,55.9,56.3z"/>
	<path id="XMLID_95_" class="st6" d="M62,53.2C61.9,53.2,61.9,53.2,62,53.2C61.9,53.2,61.9,53.2,62,53.2z"/>
	<path id="XMLID_94_" class="st6" d="M62.9,53.5C62.9,53.5,62.9,53.5,62.9,53.5C62.9,53.5,62.9,53.5,62.9,53.5z"/>
	<path id="XMLID_93_" class="st6" d="M58.8,53.5C58.8,53.5,58.8,53.5,58.8,53.5C58.8,53.5,58.8,53.5,58.8,53.5z"/>
	<path id="XMLID_92_" class="st6" d="M59.8,53.2C59.8,53.2,59.8,53.2,59.8,53.2C59.8,53.2,59.8,53.2,59.8,53.2z"/>
	<path id="XMLID_91_" class="st6" d="M66.3,57.9C66.3,57.9,66.3,57.9,66.3,57.9C66.3,57.9,66.3,57.9,66.3,57.9z"/>
	<path id="XMLID_90_" class="st6" d="M60.9,41c0-0.1,0-0.2,0-0.2C60.9,40.8,60.9,40.9,60.9,41z"/>
	<path id="XMLID_89_" class="st6" d="M60.9,40.6c0-0.1,0-0.1,0-0.1C60.9,40.5,60.9,40.5,60.9,40.6z"/>
	<path id="XMLID_88_" class="st6" d="M60.9,40.4C60.9,40.3,60.9,40.3,60.9,40.4C60.9,40.3,60.9,40.3,60.9,40.4z"/>
	<path id="XMLID_87_" class="st6" d="M60.9,41.7L60.9,41.7v-0.3c0-0.1,0-0.2,0-0.2C60.9,41.3,60.9,41.5,60.9,41.7z"/>
	<path id="XMLID_86_" class="st6" d="M95.3,61.5c-0.1,0.1-0.1,0.2-0.2,0.3C95.2,61.7,95.3,61.6,95.3,61.5z"/>
	<path id="XMLID_85_" class="st6" d="M55.5,57.9c0,0,0,0.1,0,0.1C55.4,57.9,55.5,57.9,55.5,57.9z"/>
	<path id="XMLID_84_" class="st6" d="M55.5,59.6C55.5,59.6,55.5,59.6,55.5,59.6C55.5,59.6,55.5,59.6,55.5,59.6z"/>
	<path id="XMLID_83_" class="st6" d="M95.6,60.9c-0.1,0.1-0.1,0.3-0.2,0.4C95.5,61.2,95.6,61,95.6,60.9z"/>
	<path id="XMLID_82_" class="st1" d="M74.7,93.1c-0.2-0.2-0.4-0.4-0.5-0.7C74.3,92.6,74.5,92.9,74.7,93.1L74.7,93.1z"/>
	<path id="XMLID_81_" class="st2" d="M76,94.4C76,94.4,76,94.4,76,94.4C76,94.4,76,94.4,76,94.4s-0.6-0.5-1.3-1.3l0,0
		C75.4,93.9,76,94.4,76,94.4z"/>
	<ellipse id="XMLID_80_" class="st7" cx="93.7" cy="41.9" rx="0" ry="0"/>
	<path id="XMLID_79_" class="st7" d="M96.1,58.6C96.1,58.6,96.1,58.6,96.1,58.6L96.1,58.6C96.1,58.6,96.1,58.6,96.1,58.6z"/>
	<path id="XMLID_78_" class="st8" d="M96.7,45.1L96.7,45.1L96.7,45.1C96.7,45.1,96.7,45.1,96.7,45.1L96.7,45.1
		c-0.5-0.7-1-1.3-1.5-1.9c0,0,0,0,0,0c0,0,0,0,0,0c0,0,0,0,0,0l0,0c-0.2-0.3-0.5-0.5-0.7-0.7c-0.1-0.1-0.2-0.2-0.3-0.2
		c-0.1-0.1-0.3-0.3-0.4-0.4v0v5.4l2.1,9.5l0,0c0,0.1,0.1,0.1,0.1,0.2l1.4,1.6l0,0h1.5c0-0.1,0-0.3,0-0.4v0c0-4.5-0.7-8.8-2.1-12.8
		l0,0C96.7,45.3,96.7,45.2,96.7,45.1z"/>
	<path id="XMLID_77_" class="st8" d="M96.1,58.6C96.1,58.6,96.1,58.6,96.1,58.6C96.1,58.6,96.1,58.6,96.1,58.6L96.1,58.6z"/>
	<path id="XMLID_76_" class="st9" d="M96,57.7C96,57.7,96,57.7,96,57.7C96,57.7,96,57.7,96,57.7C96,57.7,96,57.7,96,57.7
		c0,0.3,0.1,0.5,0.1,0.8c0,0,0,0.1,0,0.1c0,0,0,0,0,0s0,0,0,0c0,0,0,0.1,0,0.1c0,0.2,0,0.5,0,0.7c0,0,0,0,0,0c0,0,0,0,0,0
		c0,0,0,0,0,0.1c0,0.2-0.1,0.5-0.1,0.7c0,0,0,0,0,0l0,0l0,0c0,0,0,0,0,0l0,0l1.4-1.6L95.9,57c0,0,0,0,0,0C95.9,57.2,96,57.4,96,57.7
		z"/>
	<path id="XMLID_219_" d="M96,59.5C96,59.5,96,59.4,96,59.5c0-0.3,0.1-0.5,0.1-0.8c0-0.1,0-0.1,0-0.2c0,0,0-0.1,0-0.1
		c0-0.2,0-0.5,0-0.7c0,0,0,0,0-0.1c0-0.2-0.1-0.5-0.1-0.7c0-0.1,0-0.1-0.1-0.2c-0.1-0.5-0.3-0.9-0.5-1.2c0,0-0.1-0.1-0.1-0.1
		c-0.1-0.1-0.1-0.2-0.2-0.2c-0.1-0.1-0.2-0.2-0.3-0.3c0,0-0.1-0.1-0.1-0.1c-0.1-0.1-0.2-0.1-0.3-0.1c0,0-0.1,0-0.1,0
		c-0.1,0-0.3-0.1-0.4-0.1s-0.3,0-0.4,0.1c0,0-0.1,0-0.1,0c-0.1,0-0.2,0.1-0.3,0.1c0,0-0.1,0-0.1,0.1c-0.1,0.1-0.2,0.2-0.3,0.3
		c-0.1,0.1-0.1,0.2-0.2,0.2c0,0-0.1,0.1-0.1,0.1c-0.2,0.3-0.4,0.7-0.5,1.2c0,0,0,0,0,0.1c-0.1,0.2-0.1,0.4-0.1,0.7
		c0,0.1,0,0.1,0,0.2c0,0.3-0.1,0.5-0.1,0.8c0,0,0,0.1,0,0.1h0c0,2.2,1,4,2.3,4c0.2,0,0.4-0.1,0.6-0.2c0,0,0.1,0,0.1-0.1
		c0.1,0,0.2-0.1,0.2-0.2c0,0,0.1-0.1,0.1-0.1c0.1-0.1,0.2-0.2,0.3-0.3c0.1-0.1,0.1-0.2,0.2-0.3c0-0.1,0.1-0.1,0.1-0.2
		c0.1-0.1,0.1-0.2,0.2-0.4c0,0,0-0.1,0.1-0.1c0.1-0.2,0.1-0.4,0.2-0.6C95.9,60,96,59.7,96,59.5z M93.8,58c-0.5,0-0.9-0.7-0.9-1.5
		s0.4-1.5,0.9-1.5s0.9,0.7,0.9,1.5S94.3,58,93.8,58z"/>
	<ellipse id="XMLID_73_" class="st7" cx="93.8" cy="56.5" rx="0.9" ry="1.5"/>
	<path id="XMLID_72_" class="st10" d="M91.7,56.7L91.7,56.7c0.1-0.5,0.3-0.9,0.5-1.2c0,0,0.1-0.1,0.1-0.1c0.1-0.1,0.1-0.2,0.2-0.2
		c0.1-0.1,0.2-0.2,0.3-0.3c0,0,0.1-0.1,0.1-0.1c0.1-0.1,0.2-0.1,0.3-0.1c0,0,0.1,0,0.1,0c0.1,0,0.3-0.1,0.4-0.1s0.3,0,0.4,0.1
		c0,0,0.1,0,0.1,0c0.1,0,0.2,0.1,0.3,0.1c0,0,0.1,0,0.1,0.1c0.1,0.1,0.2,0.2,0.3,0.3c0.1,0.1,0.1,0.2,0.2,0.2c0,0,0.1,0.1,0.1,0.1
		c0.2,0.3,0.4,0.7,0.5,1.2v0l0,0l-2.1-9.5L91.7,56.7L91.7,56.7z"/>
	<path id="XMLID_214_" d="M66.3,58.5c0-0.2,0-0.4,0-0.6c0,0,0,0,0,0c0-0.2-0.1-0.4-0.1-0.5c0,0,0,0,0,0c0-0.2-0.1-0.3-0.1-0.5
		c0,0,0,0,0,0c-0.1-0.2-0.1-0.3-0.2-0.5c0,0,0,0,0,0c-0.1-0.2-0.2-0.3-0.2-0.5l0,0c-0.3-0.5-0.6-0.9-1-1.3c-0.5-0.5-1.1-0.8-1.7-1.1
		c0,0,0,0,0,0c-0.3-0.1-0.6-0.2-1-0.3c0,0,0,0,0,0c-0.3-0.1-0.7-0.1-1-0.1c-0.4,0-0.7,0-1,0.1c0,0,0,0,0,0c-0.3,0.1-0.7,0.2-1,0.3
		c0,0,0,0,0,0c-0.3,0.1-0.6,0.3-0.9,0.5c0,0,0,0,0,0c-0.3,0.2-0.5,0.4-0.8,0.6l0,0l0,0c-0.4,0.4-0.7,0.8-1,1.3c0,0,0,0,0,0
		C56,56,56,56.2,55.9,56.3c0,0,0,0,0,0c-0.1,0.1-0.1,0.3-0.2,0.4c0,0,0,0.1,0,0.1c0,0.1-0.1,0.3-0.1,0.4c0,0,0,0.1,0,0.1
		c0,0.1,0,0.3-0.1,0.4c0,0,0,0.1,0,0.1c0,0.2,0,0.4,0,0.6c0,0.4,0,0.7,0.1,1.1c0,0,0,0,0,0c0.1,0.3,0.2,0.7,0.3,1c0,0,0,0,0,0
		c0.3,0.6,0.6,1.2,1.1,1.7c0.4,0.4,0.8,0.7,1.3,1c0,0,0,0,0,0c0.1,0.1,0.3,0.2,0.5,0.2c0,0,0,0,0,0c0.1,0.1,0.3,0.1,0.4,0.2
		c0,0,0,0,0.1,0c0.1,0,0.3,0.1,0.4,0.1c0,0,0.1,0,0.1,0c0.1,0,0.3,0,0.4,0.1c0,0,0.1,0,0.1,0c0.2,0,0.4,0,0.6,0
		c0.8,0,1.5-0.2,2.1-0.4c0.3-0.1,0.6-0.3,0.9-0.5c0.6-0.4,1.1-0.9,1.5-1.5c0.2-0.3,0.4-0.6,0.5-0.9C66.2,60,66.3,59.3,66.3,58.5
		C66.3,58.5,66.3,58.5,66.3,58.5L66.3,58.5C66.3,58.5,66.3,58.5,66.3,58.5L66.3,58.5z M60.9,57.8c-1.1,0-2.1-0.9-2.1-2.1
		c0-1.1,0.9-2.1,2.1-2.1c1.1,0,2.1,0.9,2.1,2.1C62.9,56.9,62,57.8,60.9,57.8z"/>
	<circle id="XMLID_69_" class="st7" cx="60.9" cy="55.8" r="2.1"/>
	<path id="XMLID_68_" class="st8" d="M57.1,54.6L57.1,54.6L57.1,54.6L57.1,54.6L57.1,54.6l3.8-11.5c0,0,0-0.7,0-1.4
		c0-0.2,0-0.4,0-0.6c0-0.1,0-0.1,0-0.2c0-0.1,0-0.2,0-0.2c0-0.1,0-0.1,0-0.1c0-0.1,0-0.1,0-0.1c0,0,0-0.1,0-0.1c0,0,0,0,0,0
		c-2.1-0.4-4.3-0.7-6.5-0.7c-0.7,0-1.5,0-2.2,0.1c-0.1,0-0.2,0-0.3,0c-3.8,0.3-7.5,1.3-11,2.8c-3,1.3-5.7,3.1-8.2,5.2l0,0
		c0,0,0,0,0,0c-0.7,0.6-1.3,1.2-1.9,1.8c-0.1,0.1-0.2,0.2-0.3,0.3c-0.6,0.6-1.1,1.2-1.7,1.8c-0.1,0.1-0.2,0.3-0.4,0.4
		c-0.5,0.6-1.1,1.3-1.6,2c0,0.1-0.1,0.1-0.1,0.2c-0.5,0.7-0.9,1.3-1.4,2c-0.1,0.1-0.2,0.3-0.3,0.4c-0.4,0.6-0.7,1.2-1,1.7h17.1h0
		L57.1,54.6z"/>
	<path id="XMLID_67_" class="st11" d="M71.6,53.3c0-0.4,0.1-0.9,0.1-1.3c0-0.6,0.1-1.2,0.1-1.8c0-0.5,0-0.9,0-1.4c0-0.1,0-0.3,0-0.4
		c0-1.2-0.1-2.4-0.1-3.7l0,0l0,0c0,0,0,0,0,0c0,0,0,0,0,0c0,0,0,0,0,0c0,0,0,0-0.1,0c-0.2-0.1-0.8-0.4-1.3-0.7c0,0,0,0,0,0
		c-0.1-0.1-0.2-0.1-0.4-0.2c0,0,0,0,0,0c-0.1-0.1-0.2-0.1-0.2-0.1c0,0,0,0,0,0c-0.1,0-0.1-0.1-0.2-0.1c-0.8-0.4-1.6-0.8-2.4-1.1
		c-2-0.8-4.6-1.5-6.1-1.9v1v0.2v0.1c0,0.7,0,1.4,0,1.4l3.7,11.5l0,0c0.4,0.4,0.7,0.8,1,1.3l0,0c0.1,0.2,0.2,0.3,0.2,0.5c0,0,0,0,0,0
		c0.1,0.2,0.1,0.3,0.2,0.5c0,0,0,0,0,0c0.1,0.2,0.1,0.3,0.1,0.5c0,0,0,0,0,0c0,0.2,0.1,0.4,0.1,0.5c0,0,0,0,0,0c0,0.2,0,0.4,0,0.6
		l0,0l0,0h4.6c0.3-1.7,0.5-3.4,0.7-5.1C71.6,53.4,71.6,53.3,71.6,53.3z"/>
	<path id="XMLID_66_" class="st12" d="M77.6,49.2C77.6,49.2,77.6,49.2,77.6,49.2C77.6,49.2,77.6,49.2,77.6,49.2L77.6,49.2z"/>
	<path id="XMLID_65_" class="st12" d="M66.4,75c1-1,2-2,2.9-3c0.6-0.6,1.1-1.1,1.6-1.7c3.8-4.1,6.6-8,8.3-13c0-0.1,0.1-0.3,0.1-0.5
		c0,0,0-0.1,0-0.1c0-0.2,0.1-0.4,0.1-0.6c0-0.2,0-0.3,0-0.5c-0.4-2.2-1.2-4.3-2-6.4c0,0,0,0,0,0c0,0,0,0,0,0
		c-0.1-0.1-0.3-0.3-0.4-0.4c-0.4-0.4-0.9-0.8-1.3-1.2c-1.3-1.1-2.7-2.2-4.2-3.1l0,0c0.1,1.2,0.1,2.4,0.1,3.7c0,0.1,0,0.3,0,0.4
		c0,0.5,0,0.9,0,1.4c0,0.6,0,1.2-0.1,1.8c0,0.5-0.1,0.9-0.1,1.3c0,0,0,0.1,0,0.1c-0.1,1.7-0.4,3.4-0.7,5.1l-0.5,2.5
		c-1.1,4.5-3.4,8.7-5.3,12.9c-0.5,1.1-1,2.3-1.4,3.4c0,0.1-0.1,0.2-0.1,0.3c0.6-0.6,1.1-1.1,1.5-1.5C65.5,75.8,66,75.4,66.4,75z"/>
	<path id="XMLID_64_" class="st10" d="M57.1,54.6L57.1,54.6c0.2-0.2,0.5-0.4,0.8-0.6c0,0,0,0,0,0c0.3-0.2,0.6-0.3,0.9-0.5
		c0,0,0,0,0,0c0.3-0.1,0.6-0.2,1-0.3c0,0,0,0,0,0c0.3-0.1,0.7-0.1,1-0.1c0.4,0,0.7,0,1,0.1c0,0,0,0,0,0c0.3,0.1,0.7,0.2,1,0.3
		c0,0,0,0,0,0c0.6,0.3,1.2,0.6,1.7,1.1l0,0l-3.7-11.5L57.1,54.6z"/>
	<path id="XMLID_63_" class="st9" d="M55.8,60.6c-0.1-0.3-0.2-0.6-0.3-1c0,0,0,0,0,0c-0.1-0.3-0.1-0.7-0.1-1.1c0-0.2,0-0.4,0-0.6
		c0,0,0-0.1,0-0.1c0-0.1,0-0.3,0.1-0.4c0,0,0-0.1,0-0.1c0-0.1,0.1-0.3,0.1-0.4c0,0,0-0.1,0-0.1c0-0.1,0.1-0.3,0.2-0.4c0,0,0,0,0,0
		c0.1-0.2,0.1-0.3,0.2-0.4c0,0,0,0,0,0c0.3-0.5,0.6-0.9,1-1.3l0,0l-15.8,3.9h0l15.7,3.8C56.5,61.9,56.1,61.3,55.8,60.6
		C55.8,60.6,55.8,60.6,55.8,60.6z"/>
	<path id="XMLID_62_" class="st11" d="M91.5,57.7c0-0.1,0-0.1,0-0.2c0-0.2,0.1-0.4,0.1-0.7c0,0,0,0,0-0.1l2.1-9.5v-5.4
		c-1.7-1.4-3.5-2.2-5.4-2.2c-2.4,0-4.6,1.3-6.3,2.9c-1.8,1.8-3.2,4-4.4,6.3c-0.1,0.1-0.1,0.2-0.2,0.3c0.3,0.3,0.7,0.6,1,0.9
		c0.8,0.7,1.5,1.4,2.3,2.2c0.3,0.3,0.7,0.7,1,1c0.4,0.4,0.7,0.7,1.1,1.1c0.5,0.5,0.9,1,1.4,1.5c0.2,0.2,0.4,0.4,0.6,0.6
		c0.5,0.6,1.1,1.2,1.6,1.8l0,0c0.1,0.1,0.2,0.2,0.2,0.2h4.7c0,0,0-0.1,0-0.1C91.4,58.2,91.4,57.9,91.5,57.7z"/>
	<path id="XMLID_61_" class="st11" d="M77.6,49.2C77.6,49.2,77.6,49.2,77.6,49.2L77.6,49.2C77.6,49.2,77.6,49.2,77.6,49.2
		C77.6,49.2,77.6,49.3,77.6,49.2C77.6,49.3,77.6,49.2,77.6,49.2z"/>
	<path id="XMLID_60_" class="st1" d="M21.3,64.5c0,0,0-0.1,0-0.1c0.3-0.8,0.6-1.6,1-2.3c0.1-0.2,0.2-0.4,0.3-0.6
		c0.3-0.6,0.6-1.2,0.9-1.8c0.1-0.2,0.2-0.5,0.4-0.7c0.1-0.1,0.2-0.3,0.2-0.4c0.3-0.6,0.7-1.2,1-1.7c0.1-0.1,0.2-0.3,0.3-0.4
		c0.4-0.7,0.9-1.4,1.4-2c0-0.1,0.1-0.1,0.1-0.2c0.5-0.7,1-1.3,1.6-2c0.1-0.1,0.2-0.3,0.4-0.4c0.5-0.6,1.1-1.2,1.7-1.8
		c0.1-0.1,0.2-0.2,0.3-0.3c0.6-0.6,1.3-1.2,1.9-1.8c0,0,0,0,0,0c2.6-8.7,10.6-15.1,20-15.1c3.8,0,7.6,1.1,10.8,3.1
		c3.3,2,6,5,7.8,8.5c0,0,0,0,0,0.1c0,0.1,0.1,0.2,0.1,0.3l0,0l0,0c0,0,0,0,0,0c0,0,0,0,0,0c1.5,0.9,2.9,1.9,4.2,3.1
		c0.4,0.4,0.9,0.8,1.3,1.2c0.1,0.1,0.3,0.3,0.4,0.4c0,0,0,0,0,0c0,0,0,0,0,0c0-0.1,0.1-0.2,0.1-0.3c1.3-8.4,5-14.4,9.4-14.4
		c3.3,0,6.2,3.4,8,8.7l0,0.1c0,0,0,0,0,0c0.5,0.6,1,1.2,1.5,1.8h0c0,0,0,0,0,0v0v0c0,0.1,0,0.2,0.1,0.2l0,0l-0.1-0.3
		C91.3,29,76,17.4,58.1,17.4c-22.5,0-40.7,18.2-40.7,40.7c0,4.4,0.7,8.7,2,12.7c0,0,0,0,0,0c0.3-1.2,0.6-2.4,0.9-3.6
		C20.6,66.3,21,65.4,21.3,64.5z"/>
	<path id="XMLID_59_" class="st7" d="M97.3,58.6l-1.4,1.6l0,0c0,0,0,0,0,0c-0.1,0.2-0.1,0.4-0.2,0.6c0,0,0,0.1-0.1,0.1
		c-0.1,0.1-0.1,0.3-0.2,0.4c0,0.1-0.1,0.1-0.1,0.2c-0.1,0.1-0.1,0.2-0.2,0.3c-0.1,0.1-0.2,0.2-0.3,0.3c0,0-0.1,0.1-0.1,0.1
		c-0.1,0.1-0.2,0.1-0.2,0.2c0,0-0.1,0-0.1,0.1c-0.2,0.1-0.4,0.2-0.6,0.2c-1.3,0-2.3-1.8-2.3-4h0h0h-4.7h0c0,0,0,0,0,0
		c0.9,1,1.7,2,2.6,3.1c0,0,0,0,0,0c0.8,1,1.6,2,2.4,3c0,0.1,0.1,0.1,0.1,0.1c0.8,1,1.5,1.9,2.3,2.9c0.1,0.1,0.1,0.2,0.2,0.3
		c0.8,1,1.6,2.1,2.3,3.1c0,0,0,0,0,0c1.3-4,2.1-8.2,2.1-12.6h0L97.3,58.6L97.3,58.6z"/>
	<path id="XMLID_58_" d="M51.9,39.8c0.1,0,0.2,0,0.3,0c0.7,0,1.5-0.1,2.2-0.1c2.2,0,4.4,0.2,6.5,0.7c0,0,0,0,0,0c0,0,0,0,0,0.1
		c0,0,0,0.1,0,0.1c0,0,0,0.1,0,0.1c0,0.1,0,0.2,0,0.2c0,0.1,0,0.1,0,0.2c0,0.1,0,0.2,0,0.2v-1c1.5,0.3,4.1,1.1,6.1,1.9
		c0.8,0.3,1.6,0.7,2.4,1.1c0,0,0.1,0.1,0.2,0.1c0,0,0,0,0,0c0.1,0,0.2,0.1,0.2,0.1c0,0,0,0,0,0c0.1,0.1,0.2,0.1,0.4,0.2c0,0,0,0,0,0
		c0.5,0.3,1.1,0.6,1.3,0.7c0,0,0,0,0.1,0c0,0,0,0,0,0l0,0c0-0.1-0.1-0.2-0.1-0.3c0,0,0,0,0-0.1c-1.8-3.5-4.5-6.4-7.8-8.5
		c-3.2-2-7-3.1-10.8-3.1c-9.4,0-17.4,6.4-20,15.1c2.5-2.1,5.2-3.9,8.2-5.2C44.4,41,48.2,40.1,51.9,39.8z"/>
	<line id="XMLID_57_" class="st6" x1="60.9" y1="41.4" x2="60.9" y2="41.6"/>
	<path id="XMLID_56_" d="M82.1,42.6c1.7-1.6,3.9-2.9,6.3-2.9c1.9,0,3.7,0.8,5.4,2.2c0,0,0,0,0,0v0v0c0.2,0.1,0.3,0.3,0.4,0.4
		c0.1,0.1,0.2,0.2,0.3,0.2c0.2,0.2,0.5,0.5,0.7,0.7l0,0c0,0,0,0,0,0c0,0,0,0,0,0l0,0l0-0.1c-1.8-5.3-4.7-8.7-8-8.7
		c-4.4,0-8.1,6-9.4,14.4l0,0C78.9,46.6,80.3,44.4,82.1,42.6z"/>
	<path id="XMLID_55_" class="st7" d="M43.5,96.1c0.4,0.1,0.8,0.3,1.1,0.4c4.2,1.5,8.7,2.3,13.4,2.3c5.4,0,10.5-1.1,15.2-2.9
		c0.2-0.1,0.5-0.2,0.7-0.3c0.4-0.2,0.8-0.3,1.2-0.5c0.4-0.2,0.7-0.3,1-0.5c-0.1,0-0.2,0-0.2,0l0,0c-1.5,0.2-2.9,0.2-4.3,0
		c-8.4-1.2-10.2-5.2-10-9.4c-0.6-0.3-1.2-0.7-1.8-1.2c-6.4-4.7-10.3-9.7-10.3-9.7s5,3.8,12.4,6.7c0.2,0.1,0.3,0.1,0.5,0.2
		c0.3-1.2,0.8-2.3,1.1-3.3l0,0c0-0.1,0.1-0.2,0.1-0.3c0.4-1.2,0.9-2.3,1.4-3.4c1.9-4.3,4.2-8.4,5.3-12.9l0.5-2.5h-4.6h0l0,0
		c0,0,0,0,0,0l0,0l0,0c0,0,0,0,0,0c0,0.8-0.2,1.5-0.4,2.1c-0.1,0.3-0.3,0.6-0.5,0.9c-0.4,0.6-0.9,1.1-1.5,1.5
		c-0.3,0.2-0.6,0.4-0.9,0.5c-0.7,0.3-1.4,0.4-2.1,0.4c-0.2,0-0.4,0-0.6,0c0,0-0.1,0-0.1,0c-0.1,0-0.3,0-0.4-0.1c0,0-0.1,0-0.1,0
		c-0.1,0-0.3-0.1-0.4-0.1c0,0,0,0-0.1,0c-0.1-0.1-0.3-0.1-0.4-0.2c0,0,0,0,0,0c-0.2-0.1-0.3-0.1-0.5-0.2c0,0,0,0,0,0
		c-0.5-0.3-0.9-0.6-1.3-1l-15.7-3.8H24.1c-0.1,0.1-0.2,0.3-0.2,0.4c-0.1,0.2-0.3,0.5-0.4,0.7c-0.3,0.6-0.6,1.2-0.9,1.8
		c-0.1,0.2-0.2,0.4-0.3,0.6c-0.3,0.8-0.7,1.5-1,2.3c0,0,0,0.1,0,0.1c-0.3,0.9-0.7,1.8-0.9,2.7c-0.4,1.2-0.7,2.4-0.9,3.6
		C22.1,79,27.4,86.1,34.2,91c0.2,0.1,0.4,0.3,0.6,0.4c1.2,0.8,2.4,1.6,3.6,2.3C40.1,94.6,41.8,95.4,43.5,96.1z"/>
	<path id="XMLID_54_" class="st13" d="M71.6,83.4c-0.1,0.4-0.1,0.9-0.1,1.3c0,0.8,0,1.5,0.1,2.1c0.1,0.5,0.2,0.9,0.3,1.3
		c0.2,0.6,0.4,1.2,0.6,1.7c0.2,0.5,0.5,1,0.8,1.5c0.1,0.1,0.2,0.3,0.3,0.4c0.1,0.2,0.3,0.4,0.4,0.6c0.2,0.2,0.4,0.5,0.5,0.7
		c0.7,0.9,1.3,1.3,1.3,1.3s0,0,0,0s0,0.1,0,0.1l0,0c0.1,0,0.2,0,0.2,0c1.8-0.2,3.6-0.7,5.4-1.4c0.9-0.3,1.8-0.7,2.7-1.1
		c0.3-0.1,0.5-0.3,0.8-0.4c9.3-4.5,17.1-12.5,17.1-12.5C90.7,84.9,79.3,84.7,71.6,83.4z"/>
	<path id="XMLID_53_" class="st14" d="M94.1,67.7c-0.7-1-1.5-1.9-2.3-2.9c0-0.1-0.1-0.1-0.1-0.1c-0.8-1-1.6-2-2.4-3c0,0,0,0,0,0
		c-0.8-1-1.7-2-2.6-3.1c-0.1-0.1-0.1-0.1-0.2-0.2c-0.5-0.6-1.1-1.2-1.6-1.8c-0.2-0.2-0.4-0.4-0.6-0.6c-0.5-0.5-0.9-1-1.4-1.5
		c-0.4-0.4-0.7-0.7-1.1-1.1c-0.3-0.3-0.7-0.7-1-1c-0.7-0.7-1.5-1.5-2.3-2.2c-0.3-0.3-0.7-0.6-1-0.9c0,0,0,0,0,0
		c0.7,2.1,1.6,4.3,2,6.5c0.1,0.6,0.2,1.1,0.3,1.7c1,7.6-1.4,12.6-5.3,19.2C74.3,77,74,77.5,73.7,78c-0.9,1.5-1.5,2.9-1.8,4.2
		c-0.1,0.4-0.2,0.9-0.3,1.3c7.6,1.2,19.1,1.5,30.8-4.3c0,0-2.3-3.4-5.8-8c-0.8-1-1.6-2.1-2.3-3.1C94.3,67.9,94.2,67.8,94.1,67.7z"/>
	<path id="XMLID_52_" d="M76,94.4c0,0-0.6-0.5-1.3-1.3c-0.2-0.2-0.4-0.4-0.5-0.7c-0.1-0.2-0.3-0.4-0.4-0.6c-0.1-0.1-0.2-0.3-0.3-0.4
		c-0.3-0.4-0.6-0.9-0.8-1.5c-0.2-0.5-0.5-1.1-0.6-1.7c-0.1-0.4-0.2-0.8-0.3-1.3c-0.1-0.7-0.2-1.4-0.1-2.1c0-0.4,0.1-0.8,0.1-1.3
		c0.1-0.4,0.1-0.8,0.3-1.3c0.3-1.3,0.9-2.7,1.8-4.2c0,0,0,0,0,0c0.3-0.5,0.6-1,0.8-1.4c3.9-6.6,6.3-11.5,5.3-19.2
		c-0.1-0.5-0.2-1.1-0.3-1.7c-0.1,0.4-0.1,0.7-0.2,1c0,0,0,0.1,0,0.1c0,0.2-0.1,0.3-0.1,0.5c-1.7,5-4.5,8.9-8.3,13
		c-0.5,0.6-1.1,1.1-1.6,1.7c-0.9,1-1.9,2-2.9,3c-0.4,0.4-0.8,0.8-1.3,1.3c-0.4,0.4-0.9,0.9-1.5,1.5l0,0c-0.4,1-0.8,2.2-1.1,3.3
		C62.3,81,62.2,81,62,80.9c-7.4-2.9-12.4-6.7-12.4-6.7s3.8,5,10.3,9.7c0.6,0.5,1.2,0.8,1.8,1.2c-0.3,4.2,1.6,8.2,10,9.4
		c1.4,0.2,2.9,0.2,4.3,0C76,94.5,76,94.5,76,94.4C76,94.4,76,94.4,76,94.4z"/>
</g>
</svg>
