<svg id="Layer_1" data-name="Layer 1" xmlns="http://www.w3.org/2000/svg" viewBox="0 0 300 300">
    <defs>
        <style>.cls-1{fill:#f60;}</style>
    </defs>
    <title>-icon-color</title>
    <path id="Shape" class="cls-1"
          d="M277.08,121.84H188.75a14.39,14.39,0,0,1-12.44-14.39V14.76A14.26,14.26,0,0,0,162.05.5H131.14a14.26,14.26,0,0,0-14.25,14.26v93.66a14.57,14.57,0,0,1-13.22,13.42H80.53A14.47,14.47,0,0,1,68,108.42V14.76A14.25,14.25,0,0,0,53.77.5H22.86A14.26,14.26,0,0,0,8.6,14.76V285.24A14.25,14.25,0,0,0,22.86,299.5H277.14a14.26,14.26,0,0,0,14.26-14.26V136.1A14.31,14.31,0,0,0,277.08,121.84Zm-40.7,102.28a14.25,14.25,0,0,1-14.25,14.26H191.22A14.26,14.26,0,0,1,177,224.12V195a14.25,14.25,0,0,1,14.26-14.26h30.91A14.26,14.26,0,0,1,236.38,195Z"/>
</svg>
