<?xml version="1.0" encoding="utf-8"?>
<!-- Generator: Adobe Illustrator 24.0.3, SVG Export Plug-In . SVG Version: 6.00 Build 0)  -->
<svg version="1.1" id="Layer_1" xmlns="http://www.w3.org/2000/svg" x="0px" y="0px"
     viewBox="0 0 300 300" style="enable-background:new 0 0 300 300;" xml:space="preserve">
<style type="text/css">
	.st0{fill:#A41E11;}
	.st1{fill:#D82C20;}
	.st2{fill:#FFFFFF;}
	.st3{fill:#7A0C00;}
	.st4{fill:#AD2115;}
</style>
    <g>
	<path class="st0" d="M287.3,219.5c-16,8.3-98.6,42.3-116.2,51.5c-17.6,9.2-27.4,9.1-41.3,2.4c-13.9-6.6-101.9-42.2-117.7-49.7
		c-7.9-3.8-12.1-7-12.1-10v-30.2c0,0,114.5-24.9,133-31.6c18.5-6.6,24.9-6.9,40.6-1.1c15.7,5.8,109.8,22.7,125.4,28.4
		c0,0,0,27,0,29.8C299,212,295.4,215.2,287.3,219.5L287.3,219.5z"/>
        <path class="st1" d="M287.3,189.2c-16,8.3-98.6,42.3-116.2,51.5c-17.6,9.2-27.4,9.1-41.3,2.4c-13.9-6.6-101.9-42.2-117.7-49.7
		c-15.8-7.6-16.2-12.8-0.6-18.9c15.6-6.1,103-40.4,121.5-47.1c18.5-6.6,24.9-6.9,40.6-1.1c15.7,5.8,97.9,38.5,113.4,44.2
		C302.6,176.2,303.2,180.9,287.3,189.2L287.3,189.2z"/>
        <path class="st0" d="M287.3,170.2c-16,8.3-98.6,42.3-116.2,51.5c-17.6,9.2-27.4,9.1-41.3,2.4c-13.9-6.6-101.9-42.2-117.7-49.7
		c-7.9-3.8-12.1-7-12.1-10v-30.2c0,0,114.5-24.9,133-31.6c18.5-6.6,24.9-6.9,40.6-1.1c15.7,5.8,109.8,22.7,125.4,28.4
		c0,0,0,27,0,29.8C299,162.7,295.4,166,287.3,170.2z"/>
        <path class="st1" d="M287.3,140c-16,8.3-98.6,42.3-116.2,51.5c-17.6,9.2-27.4,9.1-41.3,2.4c-13.9-6.6-101.9-42.2-117.7-49.7
		c-15.8-7.6-16.2-12.8-0.6-18.9c15.6-6.1,103-40.4,121.5-47c18.5-6.6,24.9-6.9,40.6-1.1c15.7,5.8,97.9,38.5,113.4,44.2
		C302.6,126.9,303.2,131.6,287.3,140L287.3,140z"/>
        <path class="st0" d="M287.3,119.1c-16,8.3-98.6,42.3-116.2,51.5c-17.6,9.2-27.4,9.1-41.3,2.4c-13.9-6.6-101.9-42.2-117.7-49.7
		c-7.9-3.8-12.1-7-12.1-10V83c0,0,114.5-24.9,133-31.6c18.5-6.6,24.9-6.9,40.6-1.1c15.7,5.8,109.8,22.7,125.4,28.4c0,0,0,27,0,29.8
		C299,111.6,295.4,114.8,287.3,119.1L287.3,119.1z"/>
        <path class="st1" d="M287.3,88.8c-16,8.3-98.6,42.3-116.2,51.5c-17.6,9.2-27.4,9.1-41.3,2.4C115.9,136.1,27.9,100.6,12.1,93
		c-15.8-7.6-16.2-12.8-0.6-18.9C27,68,114.5,33.7,133,27.1c18.5-6.6,24.9-6.9,40.6-1.1c15.7,5.8,97.9,38.5,113.4,44.2
		C302.6,75.8,303.2,80.5,287.3,88.8L287.3,88.8z"/>
        <polygon class="st2" points="188.7,59.7 162.8,62.4 157,76.4 147.6,60.8 117.7,58.1 140,50.1 133.3,37.7 154.2,45.9 173.9,39.4
		168.6,52.2 	"/>
        <polygon class="st2" points="155.4,127.4 107.1,107.4 176.4,96.8 	"/>
        <ellipse class="st2" cx="88.4" cy="81.8" rx="37" ry="14.4"/>
        <polygon class="st3" points="219.3,63.6 260.3,79.8 219.3,95.9 	"/>
        <polygon class="st4" points="173.9,81.5 219.3,63.6 219.3,95.9 214.9,97.7 	"/>
</g>
</svg>
