<svg xmlns="http://www.w3.org/2000/svg" viewBox="0 0 100 100" fill="none">
    <g >
        <path d="M2.38799 39.0406C2.2556 38.8241 2.16878 38.5829 2.13283 38.3317C2.09688 38.0806 2.11256 37.8247 2.1789 37.5798C4.80378 27.1887 10.6762 17.9064 18.9415 11.0837C25.4031 5.7638 33.1287 2.20222 41.3704 0.743765C49.6121 -0.714686 58.0908 -0.0206037 65.9857 2.75882C66.2224 2.84367 66.4397 2.97534 66.6245 3.14597C66.8093 3.3166 66.9579 3.5227 67.0613 3.75197C67.2532 4.22002 67.2532 4.74477 67.0613 5.21282L64.6541 11.6284C64.4944 12.0853 64.1599 12.4602 63.724 12.6706C63.2881 12.8811 62.7865 12.9099 62.3294 12.7509C56.1309 10.5891 49.4799 10.061 43.0179 11.2175C36.5559 12.3741 30.5009 15.1762 25.4369 19.3536C19.0196 24.7253 14.4618 31.9856 12.4131 40.0998C12.3113 40.4996 12.0797 40.8543 11.7545 41.1082C11.4294 41.3622 11.0291 41.501 10.6166 41.5029H10.1984L3.59573 39.9155C3.35229 39.8578 3.12311 39.7512 2.92211 39.6023C2.72111 39.4533 2.5525 39.265 2.4265 39.0489"
              fill="#52BD95"/>
        <path d="M98.226 54.9834C98.0734 54.7868 97.8826 54.6232 97.6651 54.5021C97.4477 54.3811 97.208 54.3053 96.9605 54.2791L90.2065 53.572C89.7276 53.5265 89.2496 53.668 88.8726 53.967C88.4957 54.266 88.2491 54.6992 88.1844 55.1759C86.9814 64.3527 82.587 72.8133 75.7714 79.0749C70.5236 83.9442 64.0137 87.2416 56.9832 88.5914C49.9528 89.9411 42.6846 89.289 36.0067 86.7093C35.7832 86.6216 35.5447 86.5787 35.3047 86.5832C35.0647 86.5877 34.8279 86.6395 34.6079 86.7356C34.388 86.8316 34.1891 86.9701 34.0226 87.1431C33.8562 87.3161 33.7255 87.5202 33.638 87.7437V87.7437L31.0051 94.1621C30.9058 94.3923 30.8546 94.6404 30.8546 94.8911C30.8546 95.1419 30.9058 95.39 31.0051 95.6202C31.0962 95.8554 31.2362 96.0686 31.416 96.2455C31.5958 96.4225 31.8112 96.5591 32.0478 96.6463C37.6922 98.8711 43.7063 100.009 49.7733 100C62.04 99.9998 73.8535 95.3646 82.8473 87.0229C91.5157 78.9843 97.0756 68.1491 98.5507 56.4195C98.5852 56.1704 98.5689 55.9169 98.5027 55.6743C98.4365 55.4318 98.3218 55.2051 98.1655 55.0081"
              fill="#52BD95"/>
        <path d="M60.9346 64.3179V57.4044C60.9375 56.9067 60.7432 56.4281 60.3941 56.0734C60.0451 55.7187 59.5697 55.5167 59.0721 55.5116H3.84883C3.35358 55.5203 2.88173 55.7239 2.53563 56.0782C2.18954 56.4325 1.9971 56.9091 2.00007 57.4044V57.4044V64.3179C1.9979 64.5646 2.04437 64.8092 2.13682 65.0378C2.22928 65.2665 2.36591 65.4747 2.5389 65.6505C2.71188 65.8263 2.91783 65.9662 3.14497 66.0624C3.3721 66.1585 3.61595 66.2089 3.86258 66.2107H59.0721C59.3187 66.2089 59.5626 66.1585 59.7897 66.0624C60.0168 65.9662 60.2228 65.8263 60.3958 65.6505C60.5688 65.4747 60.7054 65.2665 60.7978 65.0378C60.8903 64.8092 60.9368 64.5646 60.9346 64.3179Z"
              fill="#52BD95"/>
        <path d="M39.6904 32.3031V39.2167C39.686 39.7115 39.8772 40.188 40.2224 40.5425C40.5677 40.897 41.0389 41.1008 41.5337 41.1095H96.7514C96.9978 41.1073 97.2414 41.0566 97.4682 40.9603C97.695 40.8641 97.9006 40.724 98.0733 40.5483C98.246 40.3725 98.3824 40.1644 98.4747 39.936C98.567 39.7075 98.6134 39.4631 98.6112 39.2167V39.2167V32.3031C98.5998 31.8163 98.3992 31.353 98.0521 31.0115C97.7049 30.67 97.2384 30.4771 96.7514 30.4736H41.5254C41.0307 30.4823 40.5594 30.6861 40.2142 31.0406C39.869 31.3951 39.6777 31.8716 39.6822 32.3664"
              fill="#52BD95"/>
        <path d="M80.0521 9.3835C78.9324 9.36461 77.8323 9.67818 76.8908 10.2846C75.9494 10.891 75.2089 11.7629 74.763 12.7902C74.3171 13.8174 74.1859 14.9538 74.3859 16.0557C74.5859 17.1575 75.1081 18.1753 75.8866 18.9803C76.665 19.7853 77.6647 20.3414 78.7593 20.5782C79.8538 20.8151 80.994 20.722 82.0356 20.3108C83.0772 19.8996 83.9735 19.1888 84.6111 18.2682C85.2487 17.3475 85.599 16.2585 85.6177 15.1388C85.6177 15.1086 85.6177 15.0756 85.6177 15.0453C85.6265 13.5572 85.0456 12.1261 84.0021 11.0651C82.9586 10.0041 81.5375 9.39947 80.0494 9.3835"
              fill="#52BD95"/>
        <path d="M18.5893 77.8397C17.4697 77.8208 16.3695 78.1344 15.428 78.7407C14.4866 79.3471 13.7461 80.2191 13.3002 81.2463C12.8543 82.2736 12.7231 83.41 12.9231 84.5118C13.1231 85.6137 13.6453 86.6315 14.4238 87.4365C15.2022 88.2415 16.202 88.7976 17.2965 89.0344C18.391 89.2713 19.5312 89.1782 20.5728 88.767C21.6144 88.3558 22.5107 87.6449 23.1483 86.7243C23.7859 85.8037 24.1362 84.7147 24.1549 83.595V83.4987C24.1615 82.012 23.5802 80.5829 22.5377 79.5228C21.4952 78.4628 20.076 77.8578 18.5893 77.8397Z"
              fill="#52BD95"/>
    </g>

</svg>
