<?xml version="1.0" encoding="utf-8"?>
<!-- Generator: Adobe Illustrator 25.2.1, SVG Export Plug-In . SVG Version: 6.00 Build 0)  -->
<svg version="1.1" id="Layer_1" xmlns="http://www.w3.org/2000/svg" x="0px" y="0px"
     viewBox="0 0 290 196" style="enable-background:new 0 0 290 196;" xml:space="preserve">
<style type="text/css">
	.st0{display:none;fill-rule:evenodd;clip-rule:evenodd;fill:#F3FAFF;}
	.st1{display:none;}
	.st2{fill-rule:evenodd;clip-rule:evenodd;fill:#1D97FF;}
</style>
<desc>Created with Sketch.</desc>
<path id="Mask" class="st0" d="M-192-129h673c8.8,0,16,7.2,16,16v409c0,8.8-7.2,16-16,16h-673c-8.8,0-16-7.2-16-16v-409
	C-208-121.8-200.8-129-192-129z"/>
<g id="Group-3" transform="translate(208.000000, 129.000000)">
	<g id="Clip-2" class="st1">
	</g>
	<path id="Fill-1" class="st2" d="M63.8,2L63.8,2c0,0.1,0.2,18.5-12.9,31.9c-9.7,9.9-24.6,15-44.2,15c-33.1,0-60-9-76.6-16.5
		C-85.6,25.3-95.5,18.1-98,16.2c-0.2-0.2-0.4-0.4-0.6-0.7c-0.1-0.2-0.2-0.5-0.2-0.7v-37.9c0-0.7,0.4-1.3,1-1.6l33.9-17.4
		c0.5-0.3,1.2-0.3,1.7,0l33.9,17.4c0.6,0.3,1,0.9,1,1.6v37.9c0,0.5-0.3,1-0.5,1.2c-1.6,1.4-7.6,5.7-16.8,10.6
		c7.6,2.3,16.1,4.3,25.3,5.7c2.1-1.5,3.2-2.4,3.3-2.5l0.2-0.1c3.1-2.6,6.7-8.1,6.7-14.9v-37.9c0-7.5-4.2-14.4-10.9-17.8l-33.9-17.4
		c-5.7-2.9-12.6-2.9-18.3,0l-33.9,17.4c-6.7,3.4-10.9,10.2-10.9,17.8v37.9c0,6.8,3.6,12.3,6.7,14.9l0.2,0.1c0.4,0.3,8,6.5,21.7,13.7
		c-14.5,3.5-29.3,5.3-44.3,5.3c-19.6,0-34.4-5-44.2-15C-190,20.4-189.8,2-189.8,1.8l0,0l0,0c0-0.1,0-0.2,0-0.3
		c0-26.6,21.7-48.2,48.4-48.2h7.4l1.4-7.3c3.1-15.8,11.7-30.3,24.2-40.7c12.7-10.5,28.8-16.3,45.3-16.3s32.6,5.8,45.3,16.3
		C-5.3-84.3,3.3-69.9,6.4-54l1.4,7.3h7.5c26.7,0,48.4,21.6,48.4,48.2C63.8,1.8,63.8,1.9,63.8,2L63.8,2z M82,1.7
		c0-34.2-26-62.4-59.3-66C17.8-81.5,7.8-97-6.1-108.5C-22-121.7-42.2-129-63-129s-41,7.3-56.9,20.5c-13.9,11.5-24,27-28.8,44.2
		C-182-60.7-208-32.5-208,1.7c0,0,0,0,0,0.1c0,3.2,0.4,26.6,17.9,44.6c13.3,13.7,32.6,20.6,57.4,20.6c23.8,0,47.3-4.1,69.7-12.3
		c7.1,2.6,14.3,4.7,21.6,6.5C-25.7,65-9.5,67,6.7,67c24.8,0,44.1-6.9,57.4-20.6C81.5,28.5,82,5.4,82,1.9C82,1.8,82,1.8,82,1.7
		L82,1.7z"/>
</g>
</svg>
