<?xml version="1.0" encoding="utf-8"?>
<!-- Generator: Adobe Illustrator 25.2.1, SVG Export Plug-In . SVG Version: 6.00 Build 0)  -->
<svg version="1.1" id="Laag_1" xmlns="http://www.w3.org/2000/svg" x="0px" y="0px"
     viewBox="0 0 69.4 78.7" style="enable-background:new 0 0 69.4 78.7;" xml:space="preserve">
<style type="text/css">
	.st0{fill:#95BF47;}
	.st1{fill:#5E8E3E;}
	.st2{fill:#FFFFFF;}
</style>
<path class="st0" d="M60.8,15.2c-0.1-0.3-0.3-0.6-0.7-0.6c-0.3,0-5.9-0.1-5.9-0.1s-4.7-4.6-5.2-5C48.6,9.1,48,9,47.4,9.2l-2.3,0.7
	c-0.3-1-0.7-1.9-1.1-2.8c-1.7-3.2-4.1-4.9-7.1-4.9l0,0c-0.2,0-0.4,0-0.6,0L36,2c-1.3-1.4-3.1-2.1-4.9-2c-3.8,0.1-7.6,2.9-10.7,7.8
	c-2.2,3.4-3.6,7.2-4.3,11.2l-7.5,2.3C6.4,21.9,6.3,22,6,24.1c-0.2,1.6-6,46.3-6,46.3l48.4,8.4l21-5.2C69.4,73.5,60.9,15.6,60.8,15.2
	z M42.6,10.7l-3.8,1.2c0-2.4-0.4-4.7-1.2-6.9C40.6,5.5,42.1,8.7,42.6,10.7z M36.3,12.6l-8.1,2.5c0.7-2.9,2.1-5.6,4.1-7.9
	c0.8-0.8,1.7-1.5,2.7-2C36,7.6,36.4,10.1,36.3,12.6z M31.1,2.6c0.8,0,1.6,0.2,2.3,0.6c-1.1,0.6-2.1,1.4-3,2.3c-2.6,3-4.3,6.6-5,10.5
	l-6.6,2.1C20.1,11.9,25.2,2.8,31.1,2.6L31.1,2.6z"/>
<path class="st1" d="M60.2,14.6c-0.3,0-5.9-0.1-5.9-0.1l-5.2-5c-0.2-0.2-0.4-0.3-0.7-0.3v69.6l21-5.2c0,0-8.6-57.9-8.6-58.3
	C60.8,14.9,60.5,14.6,60.2,14.6z"/>
<path class="st2" d="M36.8,25.4l-2.4,9.2c-1.9-0.8-4-1.1-6-1c-4.7,0.3-4.8,3.3-4.7,4c0.3,4.1,11,5,11.6,14.5
	c0.5,7.5-4,12.7-10.4,13.1c-4.4,0.4-8.8-1.1-12-4.1l1.6-6.9c0,0,4.3,3.2,7.7,3c1.7,0,3-1.3,3-3c0-0.1,0-0.2,0-0.3
	c-0.3-5.3-9.1-5-9.6-13.8c-0.5-7.4,4.4-14.8,15-15.5C32.7,24.3,34.8,24.6,36.8,25.4z"/>
</svg>
