<svg width="50" height="50" viewBox="0 0 50 50" fill="none" xmlns="http://www.w3.org/2000/svg">
<path fill-rule="evenodd" clip-rule="evenodd" d="M16.6979 25.8022C16.8037 25.4718 16.8478 25.1314 16.8398 24.7953C16.8275 24.5519 16.7958 24.3088 16.7261 24.0654C16.5162 23.3098 16.0192 22.6347 15.2744 22.2091L4.68179 16.1477C3.18646 15.2947 1.2801 15.8019 0.421911 17.2816C-0.444585 18.7592 0.0664994 20.6463 1.56183 21.5015L7.48102 24.8941L1.56183 28.2774C0.0664994 29.1339 -0.442779 31.0214 0.421911 32.5051C1.2801 33.9809 3.18646 34.4856 4.68179 33.6326L15.2744 27.5672C15.9892 27.1595 16.4743 26.5202 16.6979 25.8022ZM19.5726 31.4824C18.964 31.4309 18.3312 31.5576 17.7619 31.8862L7.16137 37.9437C5.67001 38.7985 5.16073 40.6956 6.02145 42.1757C6.88614 43.6519 8.7907 44.1602 10.2799 43.3014L16.2189 39.9063V46.6905C16.2189 48.3997 17.6142 49.7846 19.3411 49.7846C21.0596 49.7846 22.4592 48.3997 22.4592 46.6905V34.5625C22.4592 32.9342 21.1857 31.597 19.5726 31.4824ZM30.4285 18.3018C31.0353 18.3515 31.6663 18.223 32.2356 17.8984L42.834 11.8351C44.3275 10.98 44.8343 9.09075 43.9757 7.60671C43.1154 6.12947 41.209 5.62262 39.7176 6.47703L33.7826 9.87609V3.08979C33.7826 1.38525 32.3873 0 30.6604 0C28.9336 0 27.5419 1.38525 27.5419 3.08979V15.2177C27.5419 16.8442 28.8119 18.1837 30.4285 18.3018ZM7.16137 11.8351L17.7619 17.8984C18.3312 18.223 18.964 18.3515 19.5726 18.3018C21.1857 18.1837 22.4592 16.8442 22.4592 15.2177V3.08979C22.4592 1.38525 21.0596 0 19.3411 0C17.6142 0 16.2189 1.38525 16.2189 3.08979V9.87609L10.2799 6.47703C8.7907 5.62262 6.88614 6.12947 6.02145 7.60671C5.16073 9.09075 5.67001 10.98 7.16137 11.8351ZM27.0828 24.8687C27.0828 24.6925 26.9752 24.447 26.8495 24.3167L25.5738 23.0582C25.4481 22.934 25.2003 22.8309 25.0222 22.8309H24.9728C24.7951 22.8309 24.5476 22.934 24.4237 23.0582L23.148 24.3167C23.0202 24.447 22.9223 24.6925 22.9223 24.8687V24.9181C22.9223 25.092 23.0202 25.3354 23.148 25.4621L24.4237 26.7242C24.5494 26.8488 24.7951 26.9515 24.9728 26.9515H25.0222C25.2003 26.9515 25.4481 26.8488 25.5738 26.7242L26.8495 25.4621C26.9752 25.3354 27.0828 25.092 27.0828 24.9181V24.8687ZM30.6044 26.0792L26.1986 30.4401C26.0726 30.5682 25.8291 30.6731 25.6457 30.6731H25.326H24.6751H24.3501C24.172 30.6731 23.9246 30.5682 23.7967 30.4401L19.3931 26.0792C19.267 25.9565 19.1652 25.7095 19.1652 25.5351V25.2126V24.5676V24.2494C19.1652 24.0712 19.267 23.8238 19.3931 23.6992L23.7967 19.3387C23.9246 19.2102 24.172 19.1093 24.3501 19.1093H24.6751H25.326H25.6457C25.8252 19.1093 26.0726 19.2102 26.1986 19.3387L30.6044 23.6992C30.7301 23.8238 30.832 24.0712 30.832 24.2494V24.5676V25.2126V25.5351C30.832 25.7095 30.7301 25.9565 30.6044 26.0792ZM42.834 37.9437L32.2356 31.8862C31.6663 31.5576 31.0353 31.4309 30.4285 31.4824C28.8119 31.597 27.5419 32.9342 27.5419 34.5625V46.6905C27.5419 48.3997 28.9336 49.7846 30.6604 49.7846C32.3873 49.7846 33.7826 48.3997 33.7826 46.6905V39.9063L39.7176 43.3014C41.2086 44.1602 43.1154 43.6519 43.9757 42.1757C44.8343 40.6956 44.3275 38.7985 42.834 37.9437ZM48.4379 21.5015L42.5183 24.8941L48.4379 28.2774C49.9328 29.1339 50.4439 31.0214 49.5796 32.5051C48.7171 33.9809 46.8089 34.4856 45.3193 33.6326L34.7188 27.5672C34.0119 27.1595 33.5211 26.5202 33.3033 25.8022C33.1996 25.4718 33.1516 25.1314 33.1635 24.7953C33.1696 24.5519 33.2054 24.3088 33.2733 24.0654C33.4853 23.3098 33.9823 22.6351 34.7188 22.2091L45.3193 16.1477C46.8089 15.2947 48.7171 15.8019 49.5796 17.2816C50.4439 18.7592 49.9328 20.6463 48.4379 21.5015Z" fill="#29B5E8"/>
</svg>
