<?xml version="1.0" encoding="utf-8"?>
<!-- Generator: Adobe Illustrator 25.2.1, SVG Export Plug-In . SVG Version: 6.00 Build 0)  -->
<svg version="1.1" id="Laag_1" xmlns="http://www.w3.org/2000/svg" x="0px" y="0px"
     viewBox="0 0 127.1 75.7" style="enable-background:new 0 0 127.1 75.7;" xml:space="preserve">
<style type="text/css">
	.st0{fill:#9B5C8F;}
	.st1{fill:#FFFFFF;}
</style>
<path class="st0" d="M11.8,0h103.5c6.5,0,11.8,5.3,11.8,11.8v39.5c0,6.5-5.3,11.8-11.8,11.9H78.2l5.1,12.5L60.9,63.2h-49
	C5.3,63.2,0,57.9,0,51.4V11.9C0,5.4,5.2,0.1,11.8,0C11.7,0,11.7,0,11.8,0z"/>
<path class="st1" d="M6.4,10.8c0.8-1,2-1.6,3.3-1.6c2.7-0.2,4.1,1,4.5,3.7c1.6,10.8,3.4,20.1,5.3,27.6l11.3-21.7c1-2,2.3-3,3.9-3.1
	C37,15.5,38.4,17,39,20c1.1,6.1,2.7,12,4.9,17.8c1.3-13.2,3.6-22.7,6.9-28.6c0.7-1.3,2-2.2,3.5-2.3c1.2-0.1,2.3,0.3,3.3,1
	c1,0.7,1.5,1.8,1.6,3c0.1,0.9-0.1,1.7-0.5,2.5c-2,3.7-3.7,10-5,18.8c-1.3,8.5-1.8,15.1-1.4,19.8c0.1,1.2-0.1,2.4-0.6,3.4
	c-0.5,1.1-1.6,1.8-2.8,1.9c-1.6,0-3.1-0.7-4.1-1.9c-4.8-4.9-8.7-12.3-11.5-22.1c-3.4,6.7-5.9,11.6-7.5,15c-3,5.9-5.7,8.9-7.8,9.1
	c-1.4,0.1-2.6-1.1-3.7-3.6c-2.7-6.8-5.5-20-8.6-39.5C5.3,13,5.6,11.7,6.4,10.8z"/>
<path class="st1" d="M118.1,18.9c-1.7-3.2-4.8-5.4-8.3-6c-0.9-0.2-1.9-0.3-2.8-0.3c-5,0-9.1,2.6-12.2,7.8c-2.7,4.4-4.1,9.5-4,14.7
	c-0.1,3.6,0.8,7.1,2.5,10.3c1.7,3.2,4.8,5.4,8.3,6c0.9,0.2,1.9,0.3,2.8,0.3c5.1,0,9.1-2.6,12.2-7.8c2.7-4.4,4.1-9.5,4-14.7
	C120.7,25.6,119.9,22,118.1,18.9z M111.6,33.3c-0.5,2.9-1.9,5.6-4,7.7c-1.5,1.3-2.9,1.9-4.2,1.7s-2.3-1.3-3-3.4
	c-0.6-1.5-0.9-3.1-0.9-4.7c0-1.3,0.1-2.5,0.3-3.8c0.5-2.2,1.4-4.3,2.7-6.2c1.7-2.5,3.5-3.6,5.4-3.2c1.3,0.3,2.3,1.4,3,3.4
	c0.6,1.5,0.9,3.1,0.9,4.8C111.9,30.7,111.8,32,111.6,33.3L111.6,33.3z"/>
<path class="st1" d="M85.5,18.9c-1.7-3.2-4.8-5.4-8.3-6c-0.9-0.2-1.9-0.3-2.8-0.3c-5,0-9.1,2.6-12.2,7.8c-2.7,4.4-4.1,9.5-4,14.7
	c-0.1,3.6,0.8,7.1,2.5,10.3c1.7,3.2,4.8,5.4,8.3,6c0.9,0.2,1.9,0.3,2.8,0.3c5.1,0,9.1-2.6,12.2-7.8c2.7-4.4,4.1-9.5,4-14.7
	C88.1,25.6,87.2,22,85.5,18.9z M79,33.3c-0.5,2.9-1.9,5.6-4,7.7c-1.5,1.3-2.9,1.9-4.2,1.7s-2.3-1.3-3.1-3.4
	c-0.6-1.5-0.9-3.1-0.9-4.7c0-1.3,0.1-2.5,0.3-3.8c0.5-2.2,1.4-4.3,2.7-6.2c1.7-2.5,3.6-3.5,5.5-3.2c1.3,0.3,2.3,1.4,3,3.4
	c0.6,1.5,0.9,3.1,0.9,4.8C79.3,30.7,79.2,32,79,33.3L79,33.3z"/>
</svg>
