<svg id="Layer_1" height="512" viewBox="0 0 510.003 510.003" width="512" xmlns="http://www.w3.org/2000/svg">
    <g>
        <path d="m345.001 225.001c33.084 0 60-26.916 60-60-3.296-79.598-116.716-79.575-120 0 0 33.084 26.916 60 60 60zm0-90c16.542 0 30 13.458 30 30-1.648 39.799-58.358 39.787-60 0 0-16.542 13.458-30 30-30z" fill="#3ac6a6"/>
        <path d="m495.001.001c-75.414 0-144.756 18.109-206.101 53.825-16.603 9.667-31.706 20.096-45.363 30.683l-57.869-11.38c-44.217-8.697-89.644 5.136-121.51 37.003l-63.562 63.561 120.294 29.696c-10.439 10.273-20.096 19.743-26.379 25.891l-10.84 10.605 30.117 30.117-45.001 45 18.567 18.566-23.039 56.605c-34.485-2.67-64.462 25.245-64.314 59.828v60h60c34.583.148 62.498-29.83 59.828-64.314l56.605-23.04 18.566 18.566 45-45 30.083 30.083 10.606-10.772c6.129-6.225 15.764-15.988 26.121-26.439l30.064 120.256 63.321-63.321c31.99-31.99 45.791-77.573 36.919-121.935l-11.575-57.873c55.094-71.419 84.79-158.319 84.461-251.211v-15h-14.999zm-435.596 157.309 25.965-25.965c24.786-24.785 60.117-35.543 94.508-28.78l34.302 6.745c-32.192 29.882-35.514 37.724-68.256 69.358zm.596 322.691h-30v-30c0-16.542 13.458-30 30-30 39.8 1.649 39.785 58.36 0 60zm50.21-62.789c-4.545-6.936-10.484-12.876-17.421-17.421l17.584-43.203 43.04 43.039zm84.79-18.424-83.787-83.787 23.787-23.787 83.787 83.787zm212.696-68.82c6.9 34.504-3.834 69.958-28.715 94.839l-25.855 25.855-21.605-86.422c11.243-11.247 20.495-20.392 23.474-23.053 13.104-11.71 29.159-26.76 45.882-45.318zm-72.691-11.152c-7.537 6.735-46.032 45.607-65.079 64.898l-143.604-143.603c20.599-20.203 62.28-61.205 69.177-68.923 52.359-58.597 138.186-135.858 284.233-140.924-5.175 146.964-84.539 234.77-144.727 288.552z"
              fill="#3ac6a6"/>
        <path d="m240.001 191.362h29.999v127.279h-29.999z" transform="matrix(.707 -.707 .707 .707 -105.625 255.001)" fill="#3ac6a6"/>
    </g>
</svg>
