<svg fill="#3ac6a6" id="Capa_1" enable-background="new 0 0 512 512" height="512" viewBox="0 0 512 512" width="512" xmlns="http://www.w3.org/2000/svg">
    <g>
        <path d="m474.5 213.58v-80.775c21.661-6.471 37.5-26.568 37.5-50.305 0-28.948-23.551-52.5-52.5-52.5s-52.5 23.552-52.5 52.5c0 23.737 15.839 43.834 37.5 50.305v80.775c-12.764 4.527-22.893 14.656-27.42 27.42h-16.91c-6.192-17.459-22.865-30-42.42-30s-36.228 12.541-42.42 30h-16.91c-4.527-12.764-14.656-22.893-27.42-27.42v-80.775c21.661-6.471 37.5-26.568 37.5-50.305 0-28.948-23.551-52.5-52.5-52.5s-52.5 23.552-52.5 52.5c0 23.737 15.839 43.834 37.5 50.305v80.775c-12.764 4.527-22.893 14.656-27.42 27.42h-16.91c-6.192-17.459-22.865-30-42.42-30s-36.228 12.541-42.42 30h-16.91c-4.527-12.764-14.656-22.893-27.42-27.42v-80.775c21.661-6.471 37.5-26.568 37.5-50.305 0-28.948-23.551-52.5-52.5-52.5s-52.5 23.552-52.5 52.5c0 23.737 15.839 43.834 37.5 50.305v80.775c-12.764 4.527-22.893 14.656-27.42 27.42h-10.08v30h10.08c6.192 17.459 22.865 30 42.42 30s36.228-12.541 42.42-30h16.91c4.527 12.764 14.656 22.893 27.42 27.42v80.775c-21.661 6.471-37.5 26.568-37.5 50.305 0 28.948 23.551 52.5 52.5 52.5s52.5-23.552 52.5-52.5c0-23.737-15.839-43.834-37.5-50.305v-80.775c12.764-4.527 22.893-14.656 27.42-27.42h16.91c6.192 17.459 22.865 30 42.42 30s36.228-12.541 42.42-30h16.91c4.527 12.764 14.656 22.893 27.42 27.42v80.775c-21.661 6.471-37.5 26.568-37.5 50.305 0 28.948 23.551 52.5 52.5 52.5s52.5-23.552 52.5-52.5c0-23.737-15.839-43.834-37.5-50.305v-80.775c12.764-4.527 22.893-14.656 27.42-27.42h16.91c6.192 17.459 22.865 30 42.42 30s36.228-12.541 42.42-30h10.08v-30h-10.08c-4.528-12.761-14.656-22.893-27.42-27.42zm-444.5-131.08c0-12.406 10.093-22.5 22.5-22.5s22.5 10.094 22.5 22.5-10.093 22.5-22.5 22.5-22.5-10.094-22.5-22.5zm22.5 188.5c-8.271 0-15-6.729-15-15s6.729-15 15-15 15 6.729 15 15-6.729 15-15 15zm124.25 158.5c0 12.406-10.093 22.5-22.5 22.5s-22.5-10.094-22.5-22.5 10.093-22.5 22.5-22.5 22.5 10.094 22.5 22.5zm-22.5-158.5c-8.271 0-15-6.729-15-15s6.729-15 15-15 15 6.729 15 15-6.729 15-15 15zm79.25-188.5c0-12.406 10.093-22.5 22.5-22.5s22.5 10.094 22.5 22.5-10.093 22.5-22.5 22.5-22.5-10.094-22.5-22.5zm22.5 188.5c-8.271 0-15-6.729-15-15s6.729-15 15-15 15 6.729 15 15-6.729 15-15 15zm124.25 158.5c0 12.406-10.093 22.5-22.5 22.5s-22.5-10.094-22.5-22.5 10.093-22.5 22.5-22.5 22.5 10.094 22.5 22.5zm-22.5-158.5c-8.271 0-15-6.729-15-15s6.729-15 15-15 15 6.729 15 15-6.729 15-15 15zm79.25-188.5c0-12.406 10.093-22.5 22.5-22.5s22.5 10.094 22.5 22.5-10.093 22.5-22.5 22.5-22.5-10.094-22.5-22.5zm22.5 188.5c-8.271 0-15-6.729-15-15s6.729-15 15-15 15 6.729 15 15-6.729 15-15 15z"/>
    </g>
</svg>
