<svg height="512" viewBox="0 0 28 28" fill="#3ac6a6" width="512" xmlns="http://www.w3.org/2000/svg">
    <g id="Layer_2" data-name="Layer 2">
        <path d="m19 12.5h-.53a.37.37 0 0 1 -.33-.23.37.37 0 0 1 .07-.38l.38-.37a.51.51 0 0 0 0-.71l-1.4-1.42a.51.51 0 0 0 -.71 0l-.37.38a.36.36 0 0 1 -.39.06.35.35 0 0 1 -.22-.32v-.51a.5.5 0 0 0 -.5-.5h-2a.5.5 0 0 0 -.5.5v.53a.37.37 0 0 1 -.23.33.37.37 0 0 1 -.38-.07l-.37-.38a.51.51 0 0 0 -.71 0l-1.42 1.4a.51.51 0 0 0 0 .71l.38.37a.36.36 0 0 1 .06.39.35.35 0 0 1 -.32.22h-.51a.5.5 0 0 0 -.5.5v2a.5.5 0 0 0 .5.5h.53a.37.37 0 0 1 .33.23.37.37 0 0 1 -.07.38l-.38.37a.51.51 0 0 0 0 .71l1.42 1.42a.51.51 0 0 0 .71 0l.37-.38a.36.36 0 0 1 .39-.06.35.35 0 0 1 .22.32v.51a.5.5 0 0 0 .5.5h2a.5.5 0 0 0 .5-.5v-.53a.37.37 0 0 1 .23-.33.37.37 0 0 1 .38.07l.37.38a.51.51 0 0 0 .71 0l1.42-1.42a.51.51 0 0 0 0-.71l-.38-.37a.36.36 0 0 1 -.06-.39.35.35 0 0 1 .32-.22h.49a.5.5 0 0 0 .5-.5v-1.98a.5.5 0 0 0 -.5-.5zm-.53 2a1.36 1.36 0 0 0 -1 2.32l-.71.71a1.36 1.36 0 0 0 -2.32 1h-1a1.36 1.36 0 0 0 -2.32-1l-.71-.71a1.36 1.36 0 0 0 -1-2.32v-1a1.36 1.36 0 0 0 1-2.32l.71-.71a1.36 1.36 0 0 0 2.32-1h1a1.36 1.36 0 0 0 2.32 1l.71.71a1.36 1.36 0 0 0 1 2.32z"/>
        <path d="m14 11.24a2.76 2.76 0 1 0 2.76 2.76 2.77 2.77 0 0 0 -2.76-2.76zm0 4.52a1.76 1.76 0 1 1 1.76-1.76 1.76 1.76 0 0 1 -1.76 1.76z"/>
        <path d="m25.62 9.5a.89.89 0 0 0 .88-.88v-1.24a.89.89 0 0 0 -.88-.88h-2.17a2.43 2.43 0 0 0 -1.95-1.95v-2.17a.89.89 0 0 0 -.88-.88h-1.24a.89.89 0 0 0 -.88.88v2.12h-1v-2.12a.89.89 0 0 0 -.88-.88h-1.24a.89.89 0 0 0 -.88.88v2.12h-1v-2.12a.89.89 0 0 0 -.88-.88h-1.24a.89.89 0 0 0 -.88.88v2.12h-1v-2.12a.89.89 0 0 0 -.88-.88h-1.24a.89.89 0 0 0 -.88.88v2.17a2.43 2.43 0 0 0 -1.95 2h-2.17a.89.89 0 0 0 -.88.88v1.19a.89.89 0 0 0 .88.88h2.12v1h-2.12a.89.89 0 0 0 -.88.88v1.24a.89.89 0 0 0 .88.88h2.12v1h-2.12a.89.89 0 0 0 -.88.88v1.24a.89.89 0 0 0 .88.88h2.12v1h-2.12a.89.89 0 0 0 -.88.88v1.24a.89.89 0 0 0 .88.88h2.17a2.43 2.43 0 0 0 2 1.95v2.17a.89.89 0 0 0 .88.88h1.19a.89.89 0 0 0 .88-.88v-2.12h1v2.12a.89.89 0 0 0 .88.88h1.24a.89.89 0 0 0 .88-.88v-2.12h1v2.12a.89.89 0 0 0 .88.88h1.24a.89.89 0 0 0 .88-.88v-2.12h1v2.12a.89.89 0 0 0 .88.88h1.24a.89.89 0 0 0 .88-.88v-2.17a2.43 2.43 0 0 0 1.95-1.95h2.17a.89.89 0 0 0 .88-.88v-1.24a.89.89 0 0 0 -.88-.88h-2.12v-1h2.12a.89.89 0 0 0 .88-.88v-1.24a.89.89 0 0 0 -.88-.88h-2.12v-1h2.12a.89.89 0 0 0 .88-.88v-1.24a.89.89 0 0 0 -.88-.88h-2.12v-1zm-.12-1h-2v-1h2zm-6-6h1v2h-1zm-4 0h1v2h-1zm-4 0h1v2h-1zm-4 0h1v2h-1zm-5 6v-1h2v1zm0 4v-1h2v1zm0 4v-1h2v1zm0 3h2v1h-2zm6 6h-1v-2h1zm4 0h-1v-2h1zm4 0h-1v-2h1zm4 0h-1v-2h1zm2-4.46a1.46 1.46 0 0 1 -1.5 1.46h-14a1.46 1.46 0 0 1 -1.5-1.5v-14a1.46 1.46 0 0 1 1.5-1.5h14a1.46 1.46 0 0 1 1.5 1.5v14zm3-1.54v1h-2v-1zm0-4v1h-2v-1zm0-4v1h-2v-1z"/>
    </g>
</svg>
