<svg height="512" fill="#3ac6a6" viewBox="0 0 28 28" width="512" xmlns="http://www.w3.org/2000/svg">
    <g id="Layer_2" data-name="Layer 2">
        <path d="m12.83 4.74a.73.73 0 0 0 -.18-.17l-5.19-3a.5.5 0 0 0 -.5 0l-5.2 3a.44.44 0 0 0 -.17.16.49.49 0 0 0 -.08.27s0 0 0 0v6a.5.5 0 0 0 .25.43l5.2 3a.52.52 0 0 0 .25.07.59.59 0 0 0 .25-.07l5.19-3a.48.48 0 0 0 .25-.43v-6a.65.65 0 0 0 -.07-.26zm-5.63-2.17 4.19 2.43-4.19 2.42-4.2-2.42zm-4.7 3.29 4.2 2.42v4.85l-4.2-2.42zm5.2 7.27v-4.85l4.19-2.42v4.85z"/>
        <path d="m26.49 17a.46.46 0 0 0 -.06-.23.4.4 0 0 0 -.17-.17l-5.2-3a.5.5 0 0 0 -.5 0l-5.19 3a.48.48 0 0 0 -.18.17.6.6 0 0 0 -.06.23v6a.48.48 0 0 0 .25.43l5.19 3a.47.47 0 0 0 .25.07.43.43 0 0 0 .25-.07l5.2-3a.5.5 0 0 0 .23-.43v-6a0 0 0 0 0 -.01 0zm-5.69-2.4 4.2 2.4-4.2 2.42-4.19-2.42zm-4.69 3.28 4.19 2.43v4.84l-4.19-2.42zm5.19 7.27v-4.86l4.2-2.43v4.85z"/>
        <path d="m17.65 8.35a.48.48 0 0 0 .7 0 .48.48 0 0 0 0-.7l-1.14-1.15h5.09a1.2 1.2 0 0 1 1.2 1.2v4.3a.5.5 0 0 0 1 0v-4.3a2.21 2.21 0 0 0 -2.2-2.2h-5.09l1.14-1.15a.49.49 0 0 0 -.7-.7l-2 2a.48.48 0 0 0 0 .7z"/>
        <path d="m10.35 19.65a.49.49 0 0 0 -.7.7l1.14 1.15h-5.09a1.2 1.2 0 0 1 -1.2-1.2v-4.3a.5.5 0 0 0 -1 0v4.3a2.21 2.21 0 0 0 2.2 2.2h5.09l-1.14 1.15a.48.48 0 0 0 0 .7.48.48 0 0 0 .7 0l2-2a.48.48 0 0 0 0-.7z"/>
    </g>
</svg>
