<svg id="Capa_1" height="512" viewBox="0 0 510.761 510.761" width="512" xmlns="http://www.w3.org/2000/svg">
    <g>
        <path d="m369.669 42.106-35.824 35.824h-69.053l-2.507 2.506-23.223-23.222h-69.052l-22.014-22.013-147.996 147.996 35.824 35.824v69.053l173.668 173.668c8.911 8.91 20.758 13.817 33.359 13.817 12.603 0 24.449-4.907 33.359-13.818 5.456-5.456 9.41-12.011 11.657-19.167 4.965 1.741 10.242 2.648 15.659 2.648 12.602 0 24.449-4.907 33.359-13.818 5.456-5.456 9.41-12.011 11.657-19.167 4.965 1.741 10.241 2.648 15.658 2.648 12.602 0 24.449-4.907 33.359-13.818 5.462-5.462 9.42-12.028 11.666-19.194 16.577 5.8 35.777 2.087 49.009-11.143 8.911-8.911 13.818-20.758 13.818-33.36 0-12.422-4.768-24.11-13.438-32.976l30.13-30.13v-69.053l22.015-22.014zm67.354 307.41c-6.698 6.697-17.595 6.698-24.293 0l-15.169-15.169-98.799-98.799-21.213 21.213 98.799 98.799c3.244 3.245 5.031 7.559 5.031 12.147s-1.787 8.902-5.031 12.146c-3.245 3.245-7.559 5.031-12.146 5.031-4.589 0-8.902-1.787-12.146-5.031l-15.169-15.169-83.631-83.63-21.213 21.213 83.631 83.63c3.244 3.245 5.031 7.559 5.031 12.147s-1.787 8.902-5.031 12.146c-3.245 3.245-7.559 5.031-12.146 5.031-4.589 0-8.902-1.787-12.147-5.032l-15.169-15.168-68.461-68.462-21.213 21.213 68.461 68.462c3.244 3.244 5.031 7.558 5.031 12.146s-1.787 8.902-5.031 12.147c-3.244 3.244-7.558 5.031-12.146 5.031s-8.902-1.787-12.146-5.031l-164.883-164.88v-69.053l-23.398-23.397 105.57-105.57 9.588 9.587h69.053l14.436 14.436-52.779 52.779c-8.911 8.911-13.818 20.758-13.818 33.36s4.907 24.449 13.818 33.359c18.395 18.395 48.324 18.395 66.719 0l38.969-38.968 143.043 143.043c3.244 3.244 5.031 7.558 5.031 12.146s-1.788 8.902-5.033 12.147zm21.723-156.732v69.053l-21.341 21.341-143.425-143.425-60.182 60.182c-6.697 6.697-17.596 6.698-24.293 0-3.244-3.244-5.031-7.558-5.031-12.146s1.787-8.902 5.031-12.147l67.712-67.712h69.053l23.398-23.398 98.665 98.665z"
              fill="#3ac6a6"/>
    </g>
</svg>
