<svg fill="#3ac6a6" id="Capa_1" enable-background="new 0 0 510 510" height="512" viewBox="0 0 510 510" width="512" xmlns="http://www.w3.org/2000/svg">
    <g>
        <path d="m420 419.385v30h-30v-75h30v-90h-90v30h-30v-30h-30v-62.73l90-45v-123.54l-105-52.5-105 52.5v123.541l90 45v62.73h-30v30h-30v-30h-90v90h30v75h-30v-30h-90v90h90v-30h60v-105h30v-30h30v30h30v45h-30v90h90v-90h-30v-45h30v-30h30v30h30v105h60v30h90v-90h-90zm-150-231.27c0-21.115 0-50.464 0-71.459l60-30v71.459zm41.46-125.73-56.46 28.23-56.459-28.23 56.459-28.229zm-131.46 24.271 60 30v71.459l-60-30zm-120 392.729h-30v-30h30zm90-135h-30v-30h30zm120 135h-30v-30h30zm0-135h-30v-30h30zm90-30h30v30h-30zm120 165h-30v-30h30z"/>
    </g>
</svg>
