<svg fill="#3ac6a6" id="Layer_1" enable-background="new 0 0 32 32" height="512" viewBox="0 0 32 32" width="512" xmlns="http://www.w3.org/2000/svg">
    <path d="m1 29.069c0 .553.447 1 1 1h4.08c.553 0 1-.447 1-1v-4.08c0-.553-.447-1-1-1h-4.08c-.553 0-1 .447-1 1zm2-3.08h2.08v2.08h-2.08z"/>
    <path d="m1 18.04c0 .553.447 1 1 1h4.08c.553 0 1-.447 1-1v-4.08c0-.553-.447-1-1-1h-4.08c-.553 0-1 .447-1 1zm2-3.08h2.08v2.08h-2.08z"/>
    <path d="m1 7.011c0 .553.447 1 1 1h4.08c.553 0 1-.447 1-1v-4.08c0-.553-.447-1-1-1h-4.08c-.553 0-1 .447-1 1zm2-3.08h2.08v2.08h-2.08z"/>
    <path d="m30 26.029h-20.068c-.553 0-1 .447-1 1s.447 1 1 1h20.068c.553 0 1-.447 1-1s-.447-1-1-1z"/>
    <path d="m30 15h-20.068c-.553 0-1 .447-1 1s.447 1 1 1h20.068c.553 0 1-.447 1-1s-.447-1-1-1z"/>
    <path d="m30 3.971h-20.068c-.553 0-1 .447-1 1s.447 1 1 1h20.068c.553 0 1-.447 1-1s-.447-1-1-1z"/>
</svg>
