<svg fill="#3ac6a6" id="Capa_1" enable-background="new 0 0 510 510" height="512" viewBox="0 0 510 510" width="512" xmlns="http://www.w3.org/2000/svg">
    <g>
        <path d="m255 36.48-255 95.625v245.789l255 95.625 255-95.625v-245.789zm225 245.625-210 78.75v-42.961l210-78.749zm-240-39.21v42.961l-210-78.75v-42.961zm-210-3.75 210 78.749v42.961l-210-78.75zm450-32.04-210 78.75v-42.961l210-78.75zm-27.719-64.605-197.281 73.98-197.281-73.98 197.281-73.98zm-422.281 171.646 210 78.749v42.961l-210-78.75zm240 121.709c0-10.496 0-31.834 0-42.961l210-78.749v42.96z"/>
    </g>
</svg>
