<?xml version="1.0" encoding="UTF-8" standalone="no" ?>
<!DOCTYPE svg PUBLIC "-//W3C//DTD SVG 1.1//EN" "http://www.w3.org/Graphics/SVG/1.1/DTD/svg11.dtd">
<svg xmlns="http://www.w3.org/2000/svg" version="1.1" width="350" height="350" viewBox="0 0 350 350" xml:space="preserve">
<desc>Created with Fabric.js 1.7.22</desc>
<defs>
</defs>
<g id="icon" style="stroke: none; stroke-width: 1; stroke-dasharray: none; stroke-linecap: butt; stroke-linejoin: miter; stroke-miterlimit: 10; fill: none; fill-rule: nonzero; opacity: 1;" transform="translate(-1.9444444444444287 -1.9444444444444287) scale(3.89 3.89)" >
	<circle cx="44.995999999999995" cy="25.416" r="25.416" style="stroke: none; stroke-width: 1; stroke-dasharray: none; stroke-linecap: butt; stroke-linejoin: miter; stroke-miterlimit: 10; fill: rgb(58,198,166); fill-rule: nonzero; opacity: 1;" transform="  matrix(1 0 0 1 0 0) "/>
	<path d="M 84.571 44.505 H 52.927 c -0.559 0 -1.011 -0.453 -1.011 -1.011 c 0 -0.558 0.452 -1.011 1.011 -1.011 h 31.644 c 1.082 0 1.965 -0.833 2.011 -1.897 c 0.103 -2.408 -0.306 -4.793 -1.215 -7.089 c -2.59 -6.544 -8.627 -11.121 -15.379 -11.66 c -2.299 -0.181 -4.572 0.064 -6.762 0.734 c -0.517 0.158 -1.065 -0.117 -1.247 -0.623 C 59.396 14.812 52.573 10.017 45 10.017 c -7.573 0 -14.396 4.795 -16.979 11.932 c -0.184 0.507 -0.73 0.782 -1.247 0.623 c -2.189 -0.671 -4.464 -0.917 -6.762 -0.734 c -6.752 0.539 -12.788 5.115 -15.378 11.66 c -0.909 2.297 -1.318 4.682 -1.216 7.089 c 0.045 1.064 0.929 1.897 2.012 1.897 h 31.643 c 0.558 0 1.011 0.453 1.011 1.011 c 0 0.558 -0.453 1.011 -1.011 1.011 H 5.43 c -2.169 0 -3.94 -1.684 -4.032 -3.833 c -0.115 -2.692 0.342 -5.356 1.356 -7.919 c 2.872 -7.257 9.583 -12.333 17.098 -12.933 c 2.236 -0.177 4.456 0.011 6.609 0.562 C 29.559 12.935 36.893 7.994 45 7.994 c 8.107 0 15.441 4.941 18.54 12.389 c 2.152 -0.551 4.373 -0.74 6.608 -0.562 c 7.515 0.6 14.227 5.676 17.099 12.932 c 1.013 2.562 1.469 5.226 1.355 7.919 C 88.511 42.821 86.74 44.505 84.571 44.505 z" style="stroke: none; stroke-width: 1; stroke-dasharray: none; stroke-linecap: butt; stroke-linejoin: miter; stroke-miterlimit: 10; fill: rgb(65,73,93); fill-rule: nonzero; opacity: 1;" transform=" matrix(1 0 0 1 0 0) " stroke-linecap="round" />
	<path d="M 52.023 31.32 l -6.295 -6.528 c -0.005 -0.005 -0.012 -0.008 -0.017 -0.013 c -0.004 -0.004 -0.005 -0.009 -0.009 -0.013 c -0.014 -0.013 -0.032 -0.017 -0.046 -0.029 c -0.077 -0.067 -0.16 -0.12 -0.251 -0.16 c -0.032 -0.014 -0.064 -0.026 -0.097 -0.036 c -0.086 -0.028 -0.174 -0.043 -0.265 -0.047 c -0.029 -0.001 -0.056 -0.007 -0.085 -0.005 c -0.113 0.005 -0.227 0.023 -0.336 0.068 c -0.004 0.001 -0.006 0.004 -0.01 0.006 c -0.015 0.006 -0.027 0.018 -0.042 0.025 c -0.097 0.046 -0.183 0.106 -0.259 0.178 c -0.012 0.011 -0.027 0.015 -0.039 0.027 l -6.295 6.528 c -0.388 0.402 -0.376 1.042 0.026 1.43 c 0.197 0.189 0.449 0.283 0.702 0.283 c 0.265 0 0.529 -0.104 0.728 -0.309 L 43.989 28 v 46.714 c 0 0.559 0.453 1.011 1.011 1.011 c 0.558 0 1.011 -0.452 1.011 -1.011 V 28 l 4.556 4.724 c 0.388 0.401 1.028 0.413 1.43 0.026 C 52.399 32.363 52.411 31.723 52.023 31.32 z" style="stroke: none; stroke-width: 1; stroke-dasharray: none; stroke-linecap: butt; stroke-linejoin: miter; stroke-miterlimit: 10; fill: rgb(65,73,93); fill-rule: nonzero; opacity: 1;" transform=" matrix(1 0 0 1 0 0) " stroke-linecap="round" />
	<path d="M 54.623 79.616 c -0.559 0 -1.011 -0.452 -1.011 -1.011 V 57.257 c 0 -0.559 0.452 -1.011 1.011 -1.011 s 1.011 0.452 1.011 1.011 v 21.348 C 55.634 79.164 55.182 79.616 54.623 79.616 z" style="stroke: none; stroke-width: 1; stroke-dasharray: none; stroke-linecap: butt; stroke-linejoin: miter; stroke-miterlimit: 10; fill: rgb(58,198,166); fill-rule: nonzero; opacity: 1;" transform=" matrix(1 0 0 1 0 0) " stroke-linecap="round" />
	<path d="M 34.567 74.559 c -0.558 0 -1.011 -0.452 -1.011 -1.011 V 55.921 c 0 -0.559 0.453 -1.011 1.011 -1.011 c 0.558 0 1.011 0.452 1.011 1.011 v 17.627 C 35.578 74.107 35.125 74.559 34.567 74.559 z" style="stroke: none; stroke-width: 1; stroke-dasharray: none; stroke-linecap: butt; stroke-linejoin: miter; stroke-miterlimit: 10; fill: rgb(58,198,166); fill-rule: nonzero; opacity: 1;" transform=" matrix(1 0 0 1 0 0) " stroke-linecap="round" />
	<path d="M 64.864 65.91 c -0.559 0 -1.011 -0.452 -1.011 -1.011 V 50.203 c 0 -0.559 0.452 -1.011 1.011 -1.011 s 1.011 0.452 1.011 1.011 v 14.696 C 65.875 65.458 65.422 65.91 64.864 65.91 z" style="stroke: none; stroke-width: 1; stroke-dasharray: none; stroke-linecap: butt; stroke-linejoin: miter; stroke-miterlimit: 10; fill: rgb(58,198,166); fill-rule: nonzero; opacity: 1;" transform=" matrix(1 0 0 1 0 0) " stroke-linecap="round" />
	<path d="M 24.327 62.838 c -0.558 0 -1.011 -0.452 -1.011 -1.011 V 49.81 c 0 -0.559 0.453 -1.011 1.011 -1.011 s 1.011 0.452 1.011 1.011 v 12.016 C 25.338 62.386 24.885 62.838 24.327 62.838 z" style="stroke: none; stroke-width: 1; stroke-dasharray: none; stroke-linecap: butt; stroke-linejoin: miter; stroke-miterlimit: 10; fill: rgb(58,198,166); fill-rule: nonzero; opacity: 1;" transform=" matrix(1 0 0 1 0 0) " stroke-linecap="round" />
	<path d="M 55.634 86.208 v -1.492 c 0 -0.559 -0.452 -1.011 -1.011 -1.011 c -0.559 0 -1.011 0.452 -1.011 1.011 v 1.492 H 52.12 c -0.559 0 -1.011 0.452 -1.011 1.011 s 0.452 1.011 1.011 1.011 h 1.492 v 1.492 c 0 0.559 0.452 1.011 1.011 1.011 c 0.279 0 0.532 -0.113 0.715 -0.296 s 0.296 -0.436 0.296 -0.715 V 88.23 h 1.492 c 0.279 0 0.532 -0.113 0.715 -0.296 s 0.296 -0.436 0.296 -0.715 c 0 -0.559 -0.452 -1.011 -1.011 -1.011 H 55.634 z" style="stroke: none; stroke-width: 1; stroke-dasharray: none; stroke-linecap: butt; stroke-linejoin: miter; stroke-miterlimit: 10; fill: rgb(58,198,166); fill-rule: nonzero; opacity: 1;" transform=" matrix(1 0 0 1 0 0) " stroke-linecap="round" />
	<path d="M 25.338 69.479 v -1.492 c 0 -0.559 -0.452 -1.011 -1.011 -1.011 s -1.011 0.452 -1.011 1.011 v 1.492 h -1.492 c -0.559 0 -1.011 0.452 -1.011 1.011 s 0.452 1.011 1.011 1.011 h 1.492 v 1.492 c 0 0.559 0.452 1.011 1.011 1.011 c 0.279 0 0.532 -0.113 0.715 -0.296 s 0.296 -0.436 0.296 -0.715 v -1.492 h 1.492 c 0.279 0 0.532 -0.113 0.715 -0.296 s 0.296 -0.436 0.296 -0.715 c 0 -0.559 -0.452 -1.011 -1.011 -1.011 H 25.338 z" style="stroke: none; stroke-width: 1; stroke-dasharray: none; stroke-linecap: butt; stroke-linejoin: miter; stroke-miterlimit: 10; fill: rgb(58,198,166); fill-rule: nonzero; opacity: 1;" transform=" matrix(1 0 0 1 0 0) " stroke-linecap="round" />
	<path d="M 34.567 86.665 c -1.98 0 -3.592 -1.612 -3.592 -3.592 c 0 -1.98 1.611 -3.592 3.592 -3.592 c 1.981 0 3.592 1.612 3.592 3.592 C 38.159 85.053 36.547 86.665 34.567 86.665 z M 34.567 81.504 c -0.865 0 -1.569 0.704 -1.569 1.569 c 0 0.865 0.704 1.569 1.569 1.569 c 0.865 0 1.569 -0.704 1.569 -1.569 C 36.136 82.208 35.432 81.504 34.567 81.504 z" style="stroke: none; stroke-width: 1; stroke-dasharray: none; stroke-linecap: butt; stroke-linejoin: miter; stroke-miterlimit: 10; fill: rgb(58,198,166); fill-rule: nonzero; opacity: 1;" transform=" matrix(1 0 0 1 0 0) " stroke-linecap="round" />
	<path d="M 64.864 77.156 c -1.98 0 -3.592 -1.612 -3.592 -3.592 s 1.612 -3.592 3.592 -3.592 c 1.98 0 3.591 1.612 3.591 3.592 S 66.844 77.156 64.864 77.156 z M 64.864 71.995 c -0.865 0 -1.569 0.704 -1.569 1.569 s 0.704 1.569 1.569 1.569 c 0.865 0 1.568 -0.704 1.568 -1.569 S 65.729 71.995 64.864 71.995 z" style="stroke: none; stroke-width: 1; stroke-dasharray: none; stroke-linecap: butt; stroke-linejoin: miter; stroke-miterlimit: 10; fill: rgb(58,198,166); fill-rule: nonzero; opacity: 1;" transform=" matrix(1 0 0 1 0 0) " stroke-linecap="round" />
</g>
</svg>
