<svg id="Capa_1" height="512" viewBox="0 0 512.067 512.067" width="512" xmlns="http://www.w3.org/2000/svg">
    <g>
        <path d="m391 241.034c-44.325 0-83.112 24.159-103.891 60h-206.609l-80 60 80 60h206.609c20.779 35.841 59.566 60 103.891 60 66.72 0 121-53.832 121-120s-54.28-120-121-120zm-300.5 150-40-30 40-30.01h184.297c-2.478 9.602-3.797 19.655-3.797 30.01s1.319 20.408 3.797 30zm300.5 60c-49.626 0-90-40.374-90-90s40.374-90 90-90c50.178 0 91 40.374 91 90s-40.822 90-91 90z"
              fill="#3ac6a6"/>
        <path d="m223.891 91.034c-20.779-35.841-59.565-60-103.891-60-66.168 0-120 53.832-120 120s53.832 120 120 120c44.326 0 83.112-24.159 103.891-60h206.843l81.333-60-81.333-60zm-103.891 150c-49.626 0-90-40.374-90-90s40.374-90 90-90 90 40.374 90 90-40.374 90-90 90zm300.865-60h-184.662c2.478-9.592 3.797-19.645 3.797-30s-1.319-20.408-3.797-30h184.662l40.667 30z"
              fill="#3ac6a6"/>
        <path d="m422.82 308.001-31.82 31.82-31.82-31.82-21.213 21.213 31.82 31.82-31.82 31.82 21.213 21.212 31.82-31.819 31.82 31.819 21.213-21.212-31.82-31.82 31.82-31.82z" fill="#3ac6a6"/>
        <path d="m105 159.82-19.394-19.393-21.212 21.213 40.606 40.607 70.606-70.607-21.212-21.213z" fill="#3ac6a6"/>
    </g>
</svg>
