<svg height="512" viewBox="0 0 24 24" fill="#3ac6a6" width="512" xmlns="http://www.w3.org/2000/svg">
    <g id="Layer_2" data-name="Layer 2">
        <path d="m20.224 5.553-8-4a.5.5 0 0 0 -.448 0l-8 4a.5.5 0 0 0 -.276.447v5.7a9.137 9.137 0 0 0 3.638 7.275l4.562 3.425a.5.5 0 0 0 .6 0l4.562-3.422a9.137 9.137 0 0 0 3.638-7.278v-5.7a.5.5 0 0 0 -.276-.447zm-.724 6.147a8.13 8.13 0 0 1 -3.238 6.475l-4.262 3.2-4.262-3.2a8.13 8.13 0 0 1 -3.238-6.475v-5.391l7.5-3.75 7.5 3.75z"/>
        <path d="m8.854 11.313a.5.5 0 1 0 -.708.707l2.334 2.334a.5.5 0 0 0 .707 0l4.667-4.667a.5.5 0 0 0 -.708-.707l-4.313 4.313z"/>
    </g>
</svg>
