<svg id="Capa_1" height="512" viewBox="0 0 512 512" width="512" xmlns="http://www.w3.org/2000/svg">
    <g>
        <path d="m31 361h90v-120h30v-151h-75-76v151h31zm-1-150v-91h91v91h-30v120h-30v-120z" fill="#3ac6a6"/>
        <path d="m121 45c0-24.813-20.187-45-45-45s-45 20.187-45 45 20.187 45 45 45 45-20.187 45-45zm-45 15c-8.271 0-15-6.729-15-15s6.729-15 15-15 15 6.729 15 15-6.729 15-15 15z" fill="#3ac6a6"/>
        <path d="m301 512v-121h30v-150h-75-75v150h30v121zm-90-241h90v90h-30v121h-30v-121h-30z" fill="#3ac6a6"/>
        <path d="m301 196c0-24.813-20.187-45-45-45s-45 20.187-45 45 20.187 45 45 45 45-20.187 45-45zm-45 15c-8.271 0-15-6.729-15-15s6.729-15 15-15 15 6.729 15 15-6.729 15-15 15z" fill="#3ac6a6"/>
        <path d="m481 241h31v-151h-76-75v151h30v120h90zm-30 90h-30v-120h-30v-91h91v91h-31z" fill="#3ac6a6"/>
        <path d="m481 45c0-24.813-20.187-45-45-45s-45 20.187-45 45 20.187 45 45 45 45-20.187 45-45zm-45 15c-8.271 0-15-6.729-15-15s6.729-15 15-15 15 6.729 15 15-6.729 15-15 15z" fill="#3ac6a6"/>
        <path d="m61 391v91h120v-30h-90v-61z" fill="#3ac6a6"/>
        <path d="m451 391h-30v61h-90v30h120z" fill="#3ac6a6"/>
        <path d="m151 30h210v30h-210z" fill="#3ac6a6"/>
    </g>
</svg>
