<svg id="Capa_1" fill="#3ac6a6" height="512" viewBox="0 0 512 512" width="512" xmlns="http://www.w3.org/2000/svg">
    <g>
        <path d="m300.077 187.913c0-24.305-19.773-44.078-44.077-44.078s-44.077 19.773-44.077 44.078c0 24.304 19.773 44.077 44.077 44.077s44.077-19.773 44.077-44.077zm-73.154 0c0-16.034 13.044-29.078 29.077-29.078s29.077 13.044 29.077 29.078c0 16.033-13.044 29.077-29.077 29.077s-29.077-13.044-29.077-29.077z"/>
        <path d="m428.072 153.104-14.917-4.188c-3.986-1.12-8.128 1.205-9.248 5.193s1.205 8.129 5.193 9.249l14.917 4.188c2.882.81 4.896 3.465 4.896 6.459v27.815c0 2.994-2.013 5.649-4.896 6.459l-31.034 8.714c-6.813 1.913-12.274 7.039-14.607 13.711-1.596 4.567-3.473 9.095-5.578 13.458-3.076 6.375-2.843 13.868.624 20.043l15.786 28.112c1.466 2.61 1.011 5.912-1.105 8.029l-19.668 19.667c-2.116 2.118-5.417 2.573-8.029 1.106l-28.111-15.786c-5.994-3.366-17.674-4.537-23.081.789-10.034 4.522-20.765 6.783-24.132 18.772l-8.714 31.034c-.81 2.882-3.466 4.896-6.459 4.896h-27.814c-2.994 0-5.65-2.013-6.459-4.895l-8.714-31.035c-3.112-11.082-12.454-13.757-21.893-17.798v-27.328c1.931-.406 3.701-1.563 4.826-3.37 2.189-3.516 1.114-8.142-2.403-10.331-27.203-16.938-43.444-46.154-43.444-78.155 0-50.726 41.268-91.994 91.994-91.994s91.994 41.268 91.994 91.994c0 50.725-41.268 91.993-91.994 91.993-5.843 0-11.687-.551-17.371-1.636-4.073-.778-7.997 1.891-8.774 5.959s1.891 7.997 5.959 8.774c6.609 1.263 13.401 1.903 20.186 1.903 58.997 0 106.994-47.997 106.994-106.993 0-58.997-47.997-106.994-106.994-106.994s-106.994 47.997-106.994 106.994c0 33.323 15.148 64.039 41.021 84.24v30.415c-3.568.05-7.121.97-10.32 2.767l-28.111 15.786c-2.61 1.467-5.912 1.012-8.029-1.105l-19.668-19.668c-2.117-2.117-2.572-5.418-1.105-8.029l15.786-28.112c3.467-6.174 3.7-13.667.624-20.042-2.105-4.363-3.982-8.891-5.579-13.459-2.333-6.672-7.793-11.797-14.607-13.71l-31.034-8.714c-2.882-.81-4.896-3.465-4.896-6.459v-27.815c0-2.994 2.013-5.649 4.896-6.459l31.034-8.714c6.813-1.913 12.274-7.039 14.607-13.711 1.596-4.567 3.473-9.096 5.578-13.458 3.076-6.375 2.843-13.868-.624-20.043l-15.786-28.112c-1.466-2.61-1.011-5.912 1.105-8.028l19.668-19.668c2.116-2.116 5.418-2.571 8.029-1.106l28.111 15.786c6.175 3.467 13.667 3.7 20.043.625 4.358-2.103 8.887-3.98 13.458-5.579 6.672-2.333 11.798-7.793 13.711-14.606l8.714-31.034c.81-2.882 3.466-4.896 6.459-4.896h27.814c2.994 0 5.65 2.013 6.459 4.895l8.714 31.035c1.913 6.813 7.039 12.273 13.711 14.606 4.572 1.599 9.101 3.476 13.459 5.579 6.375 3.075 13.868 2.842 20.042-.625l28.111-15.786c2.612-1.465 5.913-1.011 8.029 1.106l19.668 19.668c2.117 2.116 2.572 5.417 1.105 8.028l-15.786 28.112c-3.467 6.174-3.7 13.667-.624 20.042 1.556 3.226 2.993 6.553 4.271 9.89 1.482 3.868 5.819 5.803 9.687 4.32 3.868-1.481 5.802-5.818 4.321-9.687-1.428-3.726-3.032-7.441-4.77-11.042-.948-1.965-.876-4.275.193-6.18l15.785-28.112c4.744-8.447 3.272-19.13-3.578-25.979l-19.664-19.669c-6.849-6.85-17.533-8.323-25.98-3.579l-28.111 15.786c-1.904 1.069-4.215 1.142-6.18.194-4.866-2.348-9.922-4.444-15.027-6.229-2.052-.718-3.63-2.401-4.22-4.502l-8.714-31.035c-2.619-9.326-11.214-15.84-20.901-15.84h-27.814c-9.687 0-18.282 6.514-20.901 15.84l-8.714 31.034c-.59 2.102-2.168 3.785-4.221 4.502-5.104 1.785-10.16 3.88-15.026 6.229-1.965.948-4.276.875-6.18-.194l-28.112-15.786c-8.446-4.742-19.13-3.271-25.979 3.579l-19.668 19.667c-6.85 6.85-8.322 17.533-3.578 25.98l15.786 28.111c1.069 1.905 1.142 4.215.193 6.18-2.35 4.871-4.446 9.927-6.228 15.026-.718 2.053-2.401 3.63-4.502 4.22l-31.034 8.714c-9.327 2.619-15.841 11.213-15.841 20.9v27.815c0 9.687 6.514 18.281 15.841 20.9l31.034 8.714c2.102.59 3.785 2.168 4.502 4.219 1.783 5.101 3.878 10.156 6.229 15.027.948 1.965.876 4.275-.193 6.18l-15.785 28.112c-4.744 8.446-3.272 19.13 3.578 25.98l19.668 19.668c6.85 6.848 17.534 8.32 25.98 3.578l28.111-15.786c.925-.52 1.945-.799 2.976-.846v76.855h-48.97c-3.012-7.702-10.495-13.18-19.251-13.18-11.403 0-20.68 9.277-20.68 20.68s9.277 20.68 20.68 20.68c8.756 0 16.24-5.478 19.251-13.18h56.47c4.142 0 7.5-3.358 7.5-7.5v-78.656c3.149 1.187 6.425 2.03 7.451 5.683l8.714 31.035c1.394 4.963 4.489 9.115 8.531 11.927v72.196h-48.97c-3.012-7.702-10.495-13.18-19.251-13.18-11.403 0-20.68 9.277-20.68 20.68s9.277 20.68 20.68 20.68c8.756 0 16.24-5.478 19.251-13.18h56.47c4.142 0 7.5-3.358 7.5-7.5v-75.784h22.554v115.501c0 4.142 3.358 7.5 7.5 7.5h56.47c3.012 7.702 10.495 13.18 19.251 13.18 11.403 0 20.68-9.277 20.68-20.68s-9.277-20.68-20.68-20.68c-8.756 0-16.24 5.478-19.251 13.18h-48.97v-111.908c4.042-2.812 7.138-6.965 8.531-11.928l8.714-31.034c1.026-3.653 4.302-4.496 7.451-5.683v118.367c0 4.142 3.358 7.5 7.5 7.5h56.47c3.012 7.702 10.495 13.18 19.251 13.18 11.403 0 20.68-9.277 20.68-20.68s-9.277-20.68-20.68-20.68c-8.756 0-16.24 5.478-19.251 13.18h-48.97v-116.566c1.03.046 2.051.326 2.976.845l28.111 15.786c8.447 4.743 19.13 3.272 25.98-3.578l19.668-19.668c6.85-6.85 8.321-17.534 3.578-25.98l-15.788-28.112c-1.069-1.905-1.142-4.215-.193-6.18 2.35-4.871 4.446-9.927 6.228-15.026.718-2.052 2.401-3.63 4.502-4.22l31.034-8.714c9.327-2.619 15.841-11.213 15.841-20.9v-27.815c.001-9.688-6.513-18.282-15.84-20.902zm-306.266 254.499c-3.132 0-5.68-2.548-5.68-5.68s2.548-5.68 5.68-5.68 5.68 2.548 5.68 5.68-2.549 5.68-5.68 5.68zm39.696 49.686c-3.132 0-5.68-2.548-5.68-5.68s2.548-5.68 5.68-5.68 5.68 2.548 5.68 5.68-2.548 5.68-5.68 5.68zm188.996 28.351c3.132 0 5.68 2.548 5.68 5.68s-2.548 5.68-5.68 5.68-5.68-2.548-5.68-5.68 2.548-5.68 5.68-5.68zm39.696-49.686c3.132 0 5.68 2.548 5.68 5.68s-2.548 5.68-5.68 5.68-5.68-2.548-5.68-5.68 2.549-5.68 5.68-5.68z"/>
    </g>
</svg>
