<svg fill="#3ac6a6" id="Capa_1" enable-background="new 0 0 510.213 510.213" height="512" viewBox="0 0 510.213 510.213" width="512" xmlns="http://www.w3.org/2000/svg">
    <path id="XMLID_990_"
          d="m377.838 186.73-45.217-45.906 119.612-119.611h-132.246c-35.793 0-66.163 23.664-76.287 56.168l-44.834 42.292-119.672-119.673v132.247c0 34.916 22.528 64.651 53.806 75.486l44.042 46.245-119.062 119.061h132.247c18.859 0 36.2-6.584 49.879-17.554v154.728h30v-194.833l42.015-40.026 118.899 118.898v-132.246c0-34.685-22.228-64.264-53.182-75.276zm-46.645-4.604h-31.688c-.675-1.991-1.475-3.923-2.4-5.785l14.302-14.302zm-76.086 31.874c-9.304 0-16.874-7.569-16.874-16.874s7.57-16.874 16.874-16.874 16.874 7.569 16.874 16.874-7.57 16.874-16.874 16.874zm64.88-162.787h59.82l-103.915 103.915c-1.862-.925-3.794-1.726-5.785-2.4v-51.636c0-27.503 22.376-49.879 49.88-49.879zm-79.88 70.798v30.717c-1.991.675-3.923 1.475-5.785 2.4l-14.234-14.234zm-130.913 10.236v-59.821l103.915 103.916c-.925 1.862-1.726 3.794-2.4 5.785h-51.636c-27.503-.001-49.879-22.377-49.879-49.88zm69.417 79.879h32.098c.675 1.991 1.475 3.923 2.4 5.785l-14.848 14.848zm11.616 130.913h-59.82l103.915-103.915c1.862.925 3.794 1.726 5.785 2.4v51.636c0 27.503-22.376 49.879-49.88 49.879zm79.88-69.094v-32.421c1.991-.675 3.923-1.475 5.785-2.4l15.01 15.01zm130.913 47.881-103.915-103.915c.925-1.862 1.726-3.794 2.4-5.785h51.636c27.503 0 49.879 22.376 49.879 49.88z"/>
</svg>
