<svg fill="#ec6237" id="Capa_1" enable-background="new 0 0 512.002 512.002" height="512" viewBox="0 0 512.002 512.002" width="512" xmlns="http://www.w3.org/2000/svg">
    <g>
        <path d="m438.695 282.89c42.838-16.544 73.307-58.157 73.307-106.759 0-27.372-9.82-53.858-27.651-74.58-17.64-20.5-41.984-34.128-68.551-38.376-4.1-.66-7.937 2.131-8.591 6.222-.653 4.09 2.132 7.936 6.222 8.59 23.071 3.689 44.22 15.533 59.551 33.349 15.489 18.001 24.021 41.013 24.021 64.796 0 42.74-27.117 79.264-65.049 93.276l-14.698-29.395c-3.745-7.491-11.274-12.145-19.649-12.145-8.376 0-15.905 4.654-19.65 12.145l-14.698 29.395c-37.931-14.012-65.048-50.536-65.048-93.276 0-48.53 34.65-89.723 82.392-97.948 4.082-.703 6.821-4.583 6.118-8.665-.704-4.083-4.587-6.821-8.665-6.118-26.254 4.523-50.27 18.25-67.622 38.651-17.555 20.639-27.223 46.947-27.223 74.079 0 48.602 30.469 90.216 73.307 106.759l-48.614 97.226-135.013-270.025c-3.745-7.491-11.274-12.145-19.65-12.145-8.375 0-15.904 4.653-19.649 12.145l-131.252 262.5c-3.431 6.86-3.071 14.851.962 21.375 4.032 6.524 11.019 10.419 18.688 10.419h99.32c4.143 0 7.5-3.358 7.5-7.5s-3.357-7.5-7.5-7.5h-99.32c-3.508 0-5.314-2.312-5.929-3.306-.614-.994-1.874-3.644-.306-6.781l131.251-262.5c1.206-2.413 3.537-3.853 6.233-3.853 2.697 0 5.028 1.44 6.234 3.853l65.543 131.086-96.635 190.139c-1.876 3.692-.404 8.207 3.288 10.084 1.089.553 2.249.815 3.393.815 2.733 0 5.368-1.5 6.692-4.104l20.55-40.434h301.591c7.67 0 14.656-3.895 18.688-10.419s4.393-14.516.962-21.375zm-47.323-36.17c1.206-2.412 3.537-3.853 6.234-3.853 2.696 0 5.027 1.44 6.233 3.853l13.426 26.851c-6.357 1.281-12.931 1.956-19.66 1.956s-13.302-.676-19.659-1.956zm-221.444 142.666 63.433-124.813 62.406 124.813zm299.896-3.305c-.614.994-2.421 3.306-5.929 3.306h-143.856l50.991-101.983c8.531 2.038 17.428 3.123 26.575 3.123s18.044-1.086 26.576-3.124l45.948 91.896c1.569 3.138.31 5.788-.305 6.782z"/>
    </g>
</svg>
