<svg fill="#00b7da" id="Capa_1" enable-background="new 0 0 511.982 511.982" height="512" viewBox="0 0 511.982 511.982" width="512" xmlns="http://www.w3.org/2000/svg">
    <g>
        <path d="m487.637 132.097c5.7-11.099 8.94-23.66 8.94-36.972 0-37.424-25.338-69.842-61.617-78.835-4.022-.994-8.088 1.455-9.084 5.475-.997 4.021 1.454 8.088 5.475 9.084 29.572 7.331 50.227 33.762 50.227 64.276 0 9.045-1.828 17.67-5.126 25.532-1.061-.882-2.138-1.745-3.246-2.569-31.867-23.678-76.347-20.166-122.522-8.793-1-4.568-1.542-9.306-1.542-14.17 0-30.814 20.904-57.307 50.835-64.424 4.029-.958 6.52-5.001 5.562-9.031-.959-4.03-5.004-6.522-9.032-5.562-36.719 8.731-62.364 41.224-62.364 79.017 0 6.176.716 12.185 2.028 17.969-5.592 1.543-11.191 3.169-16.779 4.847-27.059 8.126-52.432-1.797-79.293-12.305-38.676-15.128-82.511-32.275-139.166 1.722-20.521 12.314-34.813 36.313-40.242 67.574-5.072 29.2-2.609 69.085 13.418 111.73-10.879 7.171-19.571 13.909-25.881 20.072-52.083 50.868-62.989 110.86-27.783 152.835 17.063 20.345 41.73 32.738 71.333 35.837 38.527 3.805 86.069-8.688 119-34.597 28.634 22.576 62.853 33.392 98.281 28.538 40.174-4.711 90.863-39.55 132.288-90.923 44.947-55.742 70.693-120.32 70.637-177.176-.041-39.053-8.221-68.924-24.347-89.151zm-89.543-15.972c31.315-2.173 52.802 2.136 70.832 17.862-12.049 16.561-31.566 27.356-53.567 27.356-26.368 0-49.179-15.495-59.823-37.854 14.119-3.458 28.445-6.193 42.558-7.364zm-217.051 346.203c-30.19 14.728-60.516 21.007-87.706 18.162-25.655-2.687-46.888-13.253-61.402-30.559-14.631-17.444-19.933-38.935-15.334-62.15 4.69-23.678 19.25-47.993 42.105-70.314 5.086-4.968 12.33-10.644 21.192-16.631 9.769 22.089 23.263 44.672 41.3 66.688 31.803 38.818 56.31 65.3 77.667 83.645-5.259 4.138-11.139 7.899-17.822 11.159zm248.625-73.317c-38.461 47.697-86.489 81.235-122.357 85.441-31.853 4.081-59.08-4.298-85.527-24.133 12.766-13.794 21.559-29.389 29.709-43.857 14.473-25.69 26.972-47.877 56.483-58.143 33.776-11.749 57.706-33.923 65.651-60.837 5.791-19.617 2.211-39.109-10.081-54.885-18.089-23.214-56.91-29.649-112.271-18.606-42.665 8.51-95.209 27.712-140.555 51.366-3.673 1.916-5.097 6.446-3.181 10.119s6.447 5.095 10.118 3.181c44.155-23.033 95.203-41.708 136.552-49.956 62.44-12.453 87.486.259 97.505 13.116 9.238 11.856 11.911 26.566 7.527 41.418-6.56 22.218-27.041 40.777-56.193 50.917-34.869 12.128-49.996 38.98-64.624 64.947-8.147 14.462-16.469 29.218-28.422 41.864-20.921-17.714-45.193-43.877-77.2-82.945-46.56-55.765-66.6-127.611-57.335-180.518 4.672-26.9 16.456-47.242 33.183-57.279 50.337-30.207 88.792-15.163 125.982-.615 28.052 10.973 57.058 22.317 89.072 12.702 5.624-1.689 11.341-3.362 17.117-4.963 12.497 28.798 41.197 48.998 74.537 48.998 25.733 0 48.693-12.044 63.584-30.775 11.947 17.477 18.006 42.819 18.039 75.697.055 53.487-24.481 114.628-67.313 167.746z"/>
    </g>
</svg>
