<svg fill="#f4b53f" id="Capa_1" enable-background="new 0 0 512 512" height="512" viewBox="0 0 512 512" width="512" xmlns="http://www.w3.org/2000/svg">
    <g>
        <path d="m466.884 84.475c-4.681-6.737-12.073-11.021-20.284-11.754-8.303-.743-16.444 2.21-22.334 8.102l-168.406 168.406c-55.433-49.901-141.151-48.183-194.497 5.162-48.436 48.436-55.268 124.358-16.244 180.523 4.681 6.737 12.074 11.021 20.284 11.754.842.075 1.682.112 2.518.112 7.412 0 14.522-2.922 19.814-8.215l27.289-27.289c2.929-2.929 2.929-7.678 0-10.606-2.929-2.929-7.678-2.929-10.606 0l-27.289 27.29c-2.74 2.74-6.525 4.111-10.392 3.768-3.772-.336-7.162-2.295-9.3-5.372-34.878-50.199-28.766-118.06 14.533-161.358 47.496-47.496 123.7-49.21 173.269-5.147l-115.969 115.968c-2.929 2.929-2.929 7.678 0 10.606 2.929 2.929 7.678 2.929 10.606 0l116.266-116.265c26.793 24.119 60.659 36.18 94.527 36.18 36.204 0 72.409-13.781 99.97-41.343 48.433-48.433 55.265-124.354 16.245-180.522zm-26.852 169.916c-47.495 47.495-123.699 49.21-173.269 5.147l168.109-168.109c2.74-2.74 6.531-4.114 10.393-3.768 3.772.337 7.162 2.295 9.299 5.372 34.876 50.201 28.764 118.062-14.532 161.358z"/>
        <path d="m272.385 365.622c-4.333-4.333-10.089-6.719-16.209-6.719s-11.876 2.386-16.208 6.719l-133.575 133.575c-2.929 2.929-2.929 7.678 0 10.606 1.464 1.464 3.384 2.197 5.303 2.197s3.839-.732 5.303-2.197l133.575-133.574c1.499-1.5 3.488-2.325 5.602-2.325 2.113 0 4.103.826 5.603 2.326 1.493 1.493 2.315 3.482 2.315 5.602 0 2.108-.825 4.097-2.315 5.592l-111.784 111.772c-2.929 2.929-2.929 7.678 0 10.607 2.93 2.928 7.678 2.929 10.607 0l111.791-111.782c4.321-4.334 6.701-10.084 6.701-16.19-.001-6.127-2.384-11.883-6.709-16.209z"/>
        <path d="m347.591 83.292c5.868 0 11.736-2.234 16.204-6.701l63.788-63.788c2.929-2.929 2.929-7.678 0-10.606-2.929-2.929-7.678-2.929-10.606 0l-63.788 63.788c-3.087 3.086-8.109 3.086-11.194 0-3.086-3.086-3.086-8.108 0-11.195l41.986-41.986c2.929-2.929 2.929-7.678 0-10.606-2.929-2.929-7.678-2.929-10.606 0l-41.986 41.986c-8.935 8.935-8.935 23.473 0 32.408 4.466 4.466 10.334 6.7 16.202 6.7z"/>
        <path d="m145.687 180.107c29.638 0 53.75-24.112 53.75-53.75 0-22.136-13.283-41.738-33.84-49.939-3.847-1.534-8.21.34-9.746 4.187-1.535 3.848.34 8.21 4.187 9.746 14.822 5.913 24.399 20.046 24.399 36.007 0 21.367-17.383 38.75-38.75 38.75-21.366 0-38.749-17.383-38.749-38.75 0-15.908 9.535-30.024 24.29-35.964 3.843-1.547 5.704-5.916 4.157-9.758-1.547-3.843-5.917-5.706-9.758-4.157-20.466 8.238-33.689 27.816-33.689 49.879 0 29.637 24.112 53.749 53.749 53.749z"/>
        <path d="m405.332 352.407c-15.32 0-27.785 12.464-27.785 27.785s12.464 27.785 27.785 27.785 27.785-12.464 27.785-27.785-12.464-27.785-27.785-27.785zm0 40.57c-7.049 0-12.785-5.735-12.785-12.785 0-7.049 5.735-12.785 12.785-12.785s12.785 5.735 12.785 12.785c0 7.049-5.735 12.785-12.785 12.785z"/>
        <path d="m332.683 403.287-54.717 54.717c-2.929 2.929-2.929 7.678 0 10.606 1.464 1.464 3.384 2.197 5.303 2.197s3.839-.732 5.303-2.197l54.717-54.717c2.929-2.929 2.929-7.678 0-10.606-2.928-2.928-7.677-2.928-10.606 0z"/>
        <path d="m267.916 145.123c1.919 0 3.839-.732 5.303-2.197l42.712-42.712c2.929-2.929 2.929-7.678 0-10.606-2.929-2.929-7.678-2.929-10.606 0l-42.712 42.712c-2.929 2.929-2.929 7.678 0 10.606 1.464 1.465 3.383 2.197 5.303 2.197z"/>
    </g>
</svg>
