<?xml version="1.0" encoding="utf-8"?>
<svg version="1.1" xmlns="http://www.w3.org/2000/svg" x="0px" y="0px" viewBox="0 0 130 130" xml:space="preserve">
        <path id="SVGID_1_" d="M48.9,49.4c-2.7,9.7-3,20.8-0.1,30.5c1.1,3.6,4.8,5.8,8.5,4.9c10-2.6,19.2-7.8,26.6-15.2
		c2.7-2.8,2.7-7.3-0.1-10.1c-7.2-7.2-16.2-12.4-26-15.1c-0.6-0.2-1.3-0.3-1.9-0.3C52.6,44.1,49.8,46.3,48.9,49.4" fill="#3ac6a6"/>
    <path id="SVGID_3_" d="M33.7,94c-7.5-2.1-11.9-9.9-9.9-17.4c5.3-19.5,15.7-37.4,30.1-51.7c5.5-5.6,14.4-5.7,20-0.2
		c14.6,14.5,24.9,32.6,30.1,52.6c1.8,7.4-2.5,14.8-9.7,17c-9.4,2.7-19.1,4-28.9,3.9C54.7,98.3,44.1,96.8,33.7,94 M72.4,5.1
		C45.7,16.8,22.7,35.4,5.4,58.9c-6.6,9.1-4.6,21.7,4.3,28.4c23,16.9,52.4,29.2,81,31.5c10.8,0.9,20.4-6.9,21.8-17.7
		c3.4-29.3-1.1-58.9-13.2-85.9C96,8.1,88.7,3.4,80.8,3.4C77.9,3.3,75,3.9,72.4,5.1" fill="#3ac6a6"/>
</svg>
