<?xml version="1.0" encoding="UTF-8"?><svg id="a" xmlns="http://www.w3.org/2000/svg" viewBox="0 0 126.87742 30"><defs><style>.e{fill:#ffffff;}.f{fill:#3ac6a6;}</style></defs><g><path class="e" d="M55.25036,22.81587c-1.03185,1.9562-2.88056,2.75158-5.09472,2.75158-2.66559,0-5.24519-1.41878-5.24519-4.5788,0-6.79296,10.18944-3.74043,10.18944-6.87895,0-1.11783-1.09634-1.78423-2.53661-1.78423-1.59076,0-2.6011,.85987-2.6011,2.42913h-4.5788c0-4.19186,3.58995-5.82561,7.30889-5.82561s7.05093,1.46178,7.05093,5.30969v11.02782h-4.49281v-2.45063h0l-.00002,.00002Zm-3.67594-.6664c1.91321,0,3.58995-1.11783,3.58995-3.2675v-.83837c-2.21416,.98884-5.61065,.70939-5.61065,2.55811,0,1.03185,.90286,1.54776,2.02069,1.54776h.00001Z"/><path class="e" d="M71.09344,21.63355c.53742,0,1.22531-.08598,1.76273-.27946v3.84792c-.64491,.19347-1.71974,.38694-2.68709,.38694-3.39648,0-5.8901-1.3113-5.8901-5.80411v-6.79297h-2.32165v-3.76192h2.30015V4.50067h4.64329v4.72928h3.9339v3.74043h-3.9339v6.535c0,1.48327,.6879,2.12818,2.19266,2.12818h.00001Z"/><path class="e" d="M83.58303,21.63355c.53742,0,1.22531-.08598,1.76273-.27946v3.84792c-.64491,.19347-1.71974,.38694-2.68709,.38694-3.39648,0-5.8901-1.3113-5.8901-5.80411v-6.79297h-2.30015v-3.76192h2.30015V4.50067h4.64329v4.72928h3.9339v3.74043h-3.9339v6.535c-.0215,1.48327,.66639,2.12818,2.17117,2.12818Z"/><path class="e" d="M88.29081,25.24499V4.41105h4.64329V25.24499h-4.64329Z"/><path class="e" d="M106.34806,22.81587c-1.03183,1.9562-2.88056,2.75158-5.09473,2.75158-2.6656,0-5.2452-1.41878-5.2452-4.5788,0-6.79296,10.18944-3.74043,10.18944-6.87895,0-1.11783-1.09634-1.78423-2.53661-1.78423-1.61226,0-2.6011,.85987-2.6011,2.42913h-4.5788c0-4.19186,3.58995-5.82561,7.30889-5.82561s7.05092,1.46178,7.05092,5.30969v11.02782h-4.49281v-2.45063h0v.00002Zm-3.69744-.6664c1.91321,0,3.58995-1.11783,3.58995-3.2675v-.83837c-2.21416,.98884-5.61064,.70939-5.61064,2.55811,.0215,1.03185,.90286,1.54776,2.02069,1.54776h0Z"/><path class="e" d="M126.87742,25.24499h-13.45695v-4.75078l8.29773-7.52385h-8.14725v-3.74043h12.66157v4.70778l-8.25474,7.52385h8.89964v3.78342Z"/></g><g id="b"><path id="c" class="f" d="M12.29943,11.93829c-.69574,2.52205-.78271,5.41371-.02174,7.93576,.28265,.9349,1.23929,1.52192,2.19592,1.26103,2.60902-.67399,4.97888-2.02199,6.91389-3.93527,.71748-.73923,.69574-1.89154-.02174-2.63076-1.86979-1.86979-4.21791-3.23953-6.76171-3.91353-.15219-.04348-.32613-.06522-.50006-.06522-.84793,0-1.5654,.56528-1.80457,1.34799"/><path id="d" class="f" d="M8.36416,23.54842c-1.93502-.56528-3.08734-2.56554-2.56554-4.5223,1.39148-5.08758,4.06572-9.74033,7.82705-13.43644,1.43496-1.4567,3.73959-1.47844,5.21803-.04348,3.78307,3.76133,6.47906,8.47931,7.82705,13.6756,.45658,1.91328-.65225,3.8483-2.52205,4.41359-2.45682,.69574-4.95713,1.0436-7.50092,1.02186-2.82643,0-5.58764-.36961-8.28363-1.10883M18.40888,.45862C11.47324,3.48072,5.49425,8.30741,1.01543,14.41686c-1.71761,2.36986-1.1958,5.63113,1.10883,7.37047,6.00074,4.39185,13.63212,7.58789,21.04607,8.19666,2.80469,.21742,5.305-1.80457,5.65287-4.58752,.89142-7.60964-.28265-15.32798-3.4352-22.32884C24.56182,1.21958,22.64854,.00204,20.6048,.00204c-.76097-.02174-1.50018,.13045-2.19593,.45658"/></g></svg>
