<svg width="200" height="60.00000000000001" xmlns="http://www.w3.org/2000/svg" version="1.1">

 <g>
  <title>Layer 1</title>
  <g stroke="null" id="surface1">
   <path stroke="null" id="svg_1" fill="rgb(11.372549%,11.372549%,10.588235%)" fill-rule="nonzero" d="m133.89071,46.59254l0,0.72l-0.65998,0l0,0.33427l0.65998,0l0,2.48566c-0.03427,0.33429 0.05143,0.66856 0.24001,0.95142c0.17141,0.17999 0.41142,0.27428 0.65998,0.2657c0.18857,0 0.37712,-0.02572 0.54856,-0.08571l-0.05143,-0.3c-0.1457,0.04285 -0.3,0.05999 -0.44569,0.05999c-0.42,0 -0.57428,-0.33427 -0.57428,-0.81426l0,-2.56281l1.12284,0l0,-0.33427l-1.1057,0l0,-0.86572l-0.39428,0.14572zm-6.65985,4.67134l0.40284,0l0,-2.45138c0,-0.11142 0.01714,-0.22285 0.04285,-0.32571c0.15428,-0.53142 0.63427,-0.89997 1.18283,-0.91713c0.8057,0 1.08856,0.65998 1.08856,1.3714l0,2.33996l0.39428,0l0,-2.37423c0,-1.47427 -1.00286,-1.66282 -1.37998,-1.66282c-0.5657,-0.01716 -1.08854,0.29142 -1.34568,0.79712l-0.01714,0l-0.02572,-0.71142l-0.36857,0c0.02572,0.33427 0.03427,0.59141 0.03427,0.9514l-0.00856,2.98281zm-6.01702,-2.33138c0.07715,-0.60857 0.44569,-1.37998 1.31141,-1.37998c0.9514,0 1.18283,0.83142 1.17425,1.37998l-2.48566,0zm2.87994,0.33427c0.00858,-0.07715 0.01714,-0.16286 0.01714,-0.23998c0,-0.56572 -0.24856,-1.78282 -1.53426,-1.78282c-1.01139,0 -1.76566,0.82284 -1.76566,2.13423c0,1.15713 0.70284,1.97139 1.83423,1.97139c0.42,0.02572 0.84856,-0.06857 1.23426,-0.24856l-0.10284,-0.30858c-0.33429,0.16286 -0.71142,0.24001 -1.08856,0.22287c-0.80568,0 -1.49996,-0.49715 -1.49996,-1.75713l2.90566,0.00858zm-11.80262,2.01425l0.39428,0l0,-2.43425c0,-0.12856 0.02572,-0.2657 0.05999,-0.3857c0.13714,-0.49713 0.57428,-0.85711 1.08856,-0.89141c0.64285,0 0.9857,0.53142 0.9857,1.23426l0,2.4771l0.39426,0l0,-2.53709c0,-0.12856 0.02572,-0.2657 0.06001,-0.39428c0.15428,-0.44569 0.5657,-0.75427 1.03711,-0.77999c0.67714,0 1.01999,0.53142 1.01999,1.41425l0,2.30569l0.39428,0l0,-2.32282c0,-1.49996 -0.89999,-1.71425 -1.28569,-1.71425c-0.34285,-0.00856 -0.67714,0.10287 -0.93426,0.32571c-0.17144,0.15428 -0.30858,0.33427 -0.40286,0.53998c-0.1457,-0.49713 -0.60855,-0.84856 -1.12284,-0.85711c-0.54856,-0.01714 -1.04569,0.29142 -1.28567,0.77999l-0.00858,0l-0.03427,-0.6857l-0.36001,0c0.01716,0.32569 0.02572,0.58283 0.02572,0.94282l-0.02572,2.98281zm-6.25701,-2.33138c0.00858,-0.11142 0.02572,-0.21429 0.05999,-0.32571c0.14572,-0.60855 0.6857,-1.03711 1.31141,-1.04569c0.89141,0 1.37998,0.79712 1.37998,1.68853c0,1.05427 -0.51429,1.78282 -1.41425,1.78282c-0.60857,0 -1.14855,-0.41142 -1.29427,-1.00283c-0.02572,-0.10287 -0.03427,-0.20571 -0.03427,-0.30858l-0.00858,-0.78854zm-0.39428,3.95134l0.39428,0l0,-2.27139l0.01714,0c0.27428,0.47143 0.78857,0.75427 1.33713,0.73713c0.9514,0 1.78282,-0.72855 1.78282,-2.13423c0,-1.15713 -0.67714,-1.99711 -1.68853,-1.99711c-0.60857,-0.02572 -1.17427,0.3 -1.45713,0.83998l-0.01714,0l-0.02572,-0.74569l-0.36857,0c0.01716,0.37712 0.02572,0.76283 0.02572,1.2514l0,4.31991zm-3.63421,-6.36843c0.17999,0 0.32571,-0.14572 0.32571,-0.32571c0,-0.17144 -0.13714,-0.31713 -0.30855,-0.32571c-0.18002,0 -0.32571,0.14572 -0.32571,0.32571c0,0.17141 0.12856,0.31713 0.3,0.32571l0.00856,0zm0.20571,0.79712l-0.39426,0l0,3.94276l0.39426,0l0,-3.94276zm-3.83992,0l-0.39426,0l0,2.45138c0,0.15428 -0.02572,0.29997 -0.06857,0.43711c-0.19715,0.47143 -0.65143,0.77999 -1.16569,0.79715c-0.77999,0 -1.03713,-0.61713 -1.03713,-1.47427l0,-2.21138l-0.39428,0l0,2.29708c0,1.48282 0.84856,1.73997 1.34568,1.73997c0.55714,0.00858 1.07998,-0.3 1.33713,-0.79712l0.02572,0.71142l0.36857,0c-0.01716,-0.30858 -0.0343,-0.61713 -0.0343,-0.95998l0.01714,-2.99136zm-6.84842,2.39995c-0.02572,0.71142 -0.59141,1.28569 -1.31141,1.31139c-0.95998,0 -1.3714,-0.8314 -1.3714,-1.71425c0,-1.02855 0.54856,-1.7571 1.4057,-1.7571c0.70284,0 1.26853,0.57428 1.26853,1.27711c0,0.01716 0,0.02572 0,0.04288l0.00858,0.83998zm0,3.17136l0.39428,0l0,-4.56847c0,-0.41142 0,-0.72 0.03427,-1.01997l-0.35999,0l-0.02572,0.65998l-0.01714,0c-0.24001,-0.48857 -0.74571,-0.78857 -1.28569,-0.76285c-0.82284,0 -1.80854,0.61713 -1.80854,2.13425c0,1.17425 0.72855,1.98853 1.69711,1.98853c0.55714,0.02572 1.08854,-0.27428 1.35426,-0.77143l0.01714,0l0,2.33996zm-8.75124,-3.95134c0.06857,-0.60855 0.43714,-1.37998 1.31139,-1.37998c0.95142,0 1.17427,0.83142 1.16569,1.37998l-2.47708,0zm2.87136,0.33427c0.01714,-0.07713 0.01714,-0.16286 0.01714,-0.23998c0,-0.5657 -0.24856,-1.78282 -1.52568,-1.78282c-1.01997,0 -1.77424,0.82284 -1.77424,2.13423c0,1.15713 0.70284,1.97139 1.83425,1.97139c0.42856,0.02572 0.84853,-0.06857 1.23426,-0.24856l-0.09429,-0.30855c-0.34285,0.16283 -0.71142,0.23998 -1.08856,0.22285c-0.81426,0 -1.49996,-0.50571 -1.49996,-1.7571l2.89708,0.00856zm-10.70548,0.41142c0.00856,0.11142 -0.00858,0.22287 -0.04288,0.33429c-0.12856,0.59141 -0.6514,1.01997 -1.25995,1.02855c-0.93429,0 -1.37998,-0.81428 -1.37998,-1.70569c0,-1.01997 0.54856,-1.76566 1.40567,-1.76566c0.58286,-0.01716 1.09712,0.36854 1.24284,0.93426c0.0343,0.11998 0.04285,0.23998 0.04285,0.35999l-0.00856,0.81426zm0,-4.24276l0,2.50279c-0.26572,-0.45427 -0.76285,-0.72855 -1.28569,-0.69426c-0.96856,0 -1.77426,0.82284 -1.77426,2.13423c0,1.17427 0.72858,1.98853 1.69711,1.98853c0.59141,0.02572 1.13997,-0.29997 1.4057,-0.83998l0.03427,0.74571l0.35143,0c-0.02572,-0.27428 -0.0343,-0.61713 -0.0343,-0.90857l0,-4.92846l-0.39426,0zm-9.23981,5.81131l0.39428,0l0,-2.45138c0,-0.11142 0.01714,-0.22285 0.05141,-0.32571c0.1543,-0.53142 0.62571,-0.89997 1.17427,-0.91713c0.81426,0 1.08854,0.65998 1.08854,1.3714l0,2.33996l0.39428,0l0,-2.37423c0,-1.47427 -0.9857,-1.66282 -1.3714,-1.66282c-0.5657,-0.01716 -1.09712,0.29142 -1.35426,0.79712l-0.02572,-0.71142l-0.36854,0c0.02569,0.33427 0.03427,0.59141 0.03427,0.9514l-0.01714,2.98281zm-3.43708,-3.95134l-0.39428,0l0,2.45994c0,0.15428 -0.02569,0.3 -0.07713,0.43714c-0.19715,0.47141 -0.65143,0.77999 -1.16569,0.79712c-0.77141,0 -1.03713,-0.61713 -1.03713,-1.47427l0,-2.21993l-0.39428,0l0,2.30566c0,1.48282 0.84,1.73997 1.34571,1.73997c0.55712,0.00856 1.07996,-0.3 1.34568,-0.79715l0.01714,0.70286l0.37712,0c-0.03427,-0.3 -0.03427,-0.60857 -0.03427,-0.95998l0.01714,-2.99136zm-8.03125,3.71134c-0.8057,0 -1.42283,-0.73713 -1.42283,-1.72281c0,-0.84856 0.44569,-1.74855 1.45711,-1.74855c1.00283,0 1.43997,0.9857 1.43997,1.72283c0,1.01139 -0.6514,1.74852 -1.46569,1.74852l-0.00856,0zm0,0.32571c0.86569,0 1.87708,-0.63427 1.87708,-2.0914c0,-1.20854 -0.73711,-2.03138 -1.82567,-2.03138c-0.9857,0 -1.85995,0.74571 -1.85995,2.0914c0,1.23426 0.77999,2.03138 1.79996,2.03138l0.00858,0zm-6.95986,-0.27428c0.3,0.17999 0.64285,0.27428 0.99428,0.2657c0.80568,0 1.32852,-0.44569 1.32852,-1.12284c0,-0.59997 -0.37712,-0.9171 -1.01139,-1.17425c-0.54,-0.22285 -0.81428,-0.39428 -0.81428,-0.8057c0,-0.3857 0.30858,-0.6857 0.6857,-0.6857c0.02572,0 0.05143,0 0.07715,0c0.28286,0 0.55714,0.07715 0.78854,0.24001l0.14572,-0.32571c-0.25714,-0.17144 -0.5657,-0.25714 -0.87427,-0.24856c-0.76283,0 -1.20854,0.48855 -1.20854,1.0714c0,0.47141 0.35143,0.82284 0.9857,1.0714c0.55714,0.23143 0.82284,0.46285 0.82284,0.89999c0,0.43711 -0.29142,0.74569 -0.91713,0.74569c-0.31713,-0.00858 -0.61713,-0.10287 -0.88283,-0.27428l-0.12,0.34285zm-10.13122,0.18857l0.37715,0l0,-2.45138c0.00856,-0.11142 0.01714,-0.22285 0.05143,-0.32571c0.15428,-0.53142 0.63427,-0.89997 1.18283,-0.91713c0.8057,0 1.08854,0.65998 1.08854,1.3714l0,2.33996l0.3857,0l0,-2.37423c0,-1.47427 -0.97712,-1.66282 -1.3714,-1.66282c-0.5657,-0.01716 -1.08854,0.29142 -1.35424,0.79712l-0.02572,-0.71142l-0.36857,0c0.02572,0.33427 0.03427,0.59141 0.03427,0.9514l0,2.98281zm-4.98845,-0.24001c-0.8057,0 -1.42283,-0.73713 -1.42283,-1.72281c0,-0.84856 0.44569,-1.74855 1.45711,-1.74855c1.00283,0 1.43997,0.9857 1.43997,1.72283c0,1.01139 -0.6514,1.74852 -1.46569,1.74852l-0.00856,0zm0,0.32571c0.86569,0 1.87708,-0.63427 1.87708,-2.0914c0,-1.20854 -0.73711,-2.03138 -1.82567,-2.03138c-0.9857,0 -1.85995,0.74571 -1.85995,2.0914c0,1.23426 0.77999,2.03138 1.79996,2.03138l0.00858,0zm-5.14275,-4.82562c0.17999,0 0.32569,-0.14572 0.32569,-0.32571c0,-0.17999 -0.1457,-0.32569 -0.32569,-0.32569c-0.18002,0 -0.32571,0.1457 -0.32571,0.32569c0,0.17144 0.12856,0.31713 0.3,0.32571l0.02572,0zm0.20571,0.78857l-0.39428,0l0,3.95134l0.39428,0l0,-3.95134zm-4.9199,-0.72l0,0.72l-0.65143,0l0,0.33427l0.65143,0l0,2.48566c-0.02572,0.33429 0.05999,0.66856 0.24856,0.95142c0.17141,0.17999 0.42,0.28284 0.66856,0.2657c0.18855,0 0.37712,-0.02572 0.55712,-0.08571l-0.05141,-0.3c-0.14572,0.04285 -0.3,0.05999 -0.4543,0.05999c-0.41142,0 -0.57425,-0.33427 -0.57425,-0.81426l0,-2.56281l1.12281,0l0,-0.33427l-1.10568,0l0,-0.86572l-0.41142,0.14572zm-3.92563,3.40278c0,0.08571 -0.01716,0.16286 -0.04288,0.24001c-0.17141,0.48855 -0.64282,0.81426 -1.16569,0.78854c-0.41142,0.01714 -0.76283,-0.3 -0.78854,-0.71997c0,-0.0343 0,-0.06857 0.00858,-0.10287c0,-0.94284 1.13139,-1.07998 1.98853,-1.05427l0,0.84856zm0.39426,-1.21712c0,-0.69426 -0.22285,-1.55139 -1.36282,-1.55139c-0.41142,0 -0.8057,0.11142 -1.15711,0.32571l0.11998,0.29142c0.29144,-0.19713 0.63429,-0.3 0.9857,-0.29142c0.93426,0 1.01141,0.77141 1.01141,1.15711l0,0.10287c-1.61141,0 -2.39995,0.53142 -2.39995,1.44855c-0.00858,0.59141 0.46285,1.07996 1.04569,1.08854c0.0343,0 0.06857,0 0.10287,0c0.50571,0 0.97712,-0.24001 1.25998,-0.65998l0.01714,0l0.05999,0.5657l0.39428,0c-0.04285,-0.30855 -0.05999,-0.62571 -0.05999,-0.93426l-0.01716,-1.54284zm-5.62274,1.99711c-0.30855,0.15428 -0.64285,0.23143 -0.9857,0.23143c-0.90855,0 -1.55139,-0.67712 -1.55139,-1.70567c0,-0.93429 0.54,-1.73997 1.59427,-1.73997c0.32569,-0.00858 0.64282,0.06857 0.92568,0.23143l0.13714,-0.32571c-0.30855,-0.17999 -0.66856,-0.26572 -1.02855,-0.24856c-1.08854,-0.0343 -1.99711,0.81426 -2.03138,1.9028c0,0.06857 0,0.13714 0.00858,0.19715c0,1.18283 0.75427,2.01425 1.88566,2.01425c0.39428,0 0.78857,-0.08573 1.15711,-0.24856l-0.11142,-0.30858zm-7.59411,0.24856c-0.8057,0 -1.42283,-0.73713 -1.42283,-1.72281c0,-0.84856 0.44569,-1.74855 1.45711,-1.74855c1.01141,0 1.43997,0.9857 1.43997,1.72283c0,1.01139 -0.6514,1.74852 -1.46569,1.74852l-0.00856,0zm0,0.32571c0.86569,0 1.87708,-0.63427 1.87708,-2.0914c0,-1.20854 -0.73711,-2.03138 -1.82567,-2.03138c-0.9857,0 -1.85995,0.74571 -1.85995,2.0914c0,1.23426 0.78854,2.03138 1.79996,2.03138l0.00858,0zm-5.3399,-0.08571l0.39428,0l0,-5.84561l-0.3857,0l-0.00858,5.84561zm0,0"/>
   <path stroke="null" id="svg_2" fill="rgb(11.372549%,11.372549%,10.588235%)" fill-rule="nonzero" d="m75.7005,36.62418c-2.15139,0 -3.33421,-2.12567 -3.33421,-4.92846c0,-2.46852 0.94284,-4.97134 3.36851,-4.97134c2.3228,0 3.2742,2.50282 3.2742,4.92848c0,2.96565 -1.24282,4.97131 -3.2742,4.97131l-0.0343,0zm-0.06857,3.67706c4.38848,0 8.66553,-2.76852 8.66553,-8.7941c0,-5.00561 -3.36851,-8.48554 -8.39126,-8.48554c-5.33132,0 -8.84553,3.41136 -8.84553,8.75982c0,5.34846 3.70278,8.51982 8.51982,8.51982l0.05143,0zm-14.28827,-18.92532c1.67998,0 2.72566,-1.14853 2.72566,-2.57136c0,-1.43141 -1.04569,-2.57139 -2.69137,-2.57139c-1.65426,0 -2.73424,1.11428 -2.73424,2.57139c0,1.44853 1.04571,2.57136 2.66567,2.57136l0.03427,0zm2.56281,2.03138l-5.12561,0l0,16.53395l5.12561,0l0,-16.53395zm-14.3654,9.20554c0.00856,0.37712 -0.02572,0.76283 -0.09429,1.13997c-0.27428,1.44853 -1.54284,2.48566 -2.99994,2.47708c-2.12567,0 -3.50565,-1.76566 -3.50565,-4.53418c0,-2.60566 1.17427,-4.70561 3.53137,-4.70561c1.47424,0 2.73422,1.05427 3.0085,2.50279c0.05143,0.31713 0.07715,0.63427 0.06001,0.95142l0,2.16852zm0,-16.71394l0,8.99125l-0.06001,0c-0.74569,-1.11428 -2.29708,-1.85997 -4.35418,-1.85997c-3.92563,0 -7.41414,3.24851 -7.37984,8.7941c0,5.14275 3.13706,8.48554 7.04555,8.48554c2.12567,0 4.1485,-0.94284 5.15991,-2.76852l0.10284,0l0.19715,2.39995l4.55131,0c-0.06857,-1.11426 -0.13714,-3.07707 -0.13714,-4.92846l0,-19.12247l-5.12559,0.00858zm-14.97397,7.5084l-5.11703,0l0,9.8398c0.04285,1.55997 -1.19141,2.8628 -2.7428,2.90566c-1.83425,0 -2.62282,-1.43997 -2.62282,-3.85706l0,-8.8884l-5.11703,0l0,9.70266c0,5.10845 2.43425,7.19127 5.80273,7.19127c2.96567,0 4.51706,-1.68853 5.15133,-2.7085l0.10287,0l0.23998,2.33994l4.44847,0c-0.06857,-1.38854 -0.13714,-3.14564 -0.13714,-5.31416l-0.00856,-11.2112zm-24.57377,10.51692c0,0.3 -0.0343,0.59141 -0.10287,0.87427c-0.40284,1.13142 -1.45711,1.88569 -2.64851,1.88569c-1.14853,0 -2.0228,-0.65143 -2.0228,-1.97139c0,-1.97139 2.09137,-2.60566 4.78276,-2.60566l-0.00858,1.81709zm4.96276,-3.75419c0,-3.89135 -1.71425,-7.13986 -7.20843,-7.13986c-2.21996,-0.04285 -4.42275,0.47141 -6.40273,1.4914l0.94284,3.29136c1.38854,-0.77999 2.95709,-1.19999 4.55134,-1.21712c2.52851,0 2.99994,1.24284 2.99994,2.12567l0,0.20571c-5.83703,-0.01714 -9.67695,2.0228 -9.67695,6.30844c0,2.63993 1.98853,5.0656 5.32274,5.0656c1.97139,0 3.64279,-0.71142 4.72277,-2.0228l0.11142,0l0.30855,1.6371l4.61133,0c-0.21427,-1.31997 -0.30855,-2.65709 -0.27428,-3.98562l-0.00856,-5.75988zm0,0"/>
   <path stroke="null" id="svg_3" fill="rgb(0%,68.627451%,66.666667%)" fill-rule="nonzero" d="m158.1902,29.78431c0.12858,-1.35424 1.01141,-3.35135 3.19707,-3.35135c2.32282,0 2.87138,2.09995 2.87138,3.35135l-6.06845,0zm10.64549,3.51423c0.11145,-0.66856 0.17144,-1.34568 0.17144,-2.03138c0,-4.0885 -2.02283,-8.25412 -7.35413,-8.25412c-5.69131,0 -8.32269,4.63704 -8.32269,8.82837c0,5.17705 3.20565,8.42555 8.80267,8.42555c2.03994,0.04285 4.06277,-0.30858 5.96559,-1.04569l-0.67714,-3.48851c-1.46569,0.49713 -2.99992,0.73713 -4.55134,0.71142c-2.39137,0 -4.48274,-1.01141 -4.65418,-3.14564l10.61977,0zm-30.14508,5.7856c1.66284,0.80568 3.47993,1.2171 5.32274,1.18283c4.72277,0 7.11414,-2.26281 7.11414,-5.38276c-0.02572,-2.39995 -1.30283,-3.98562 -4.44847,-5.0656c-2.00567,-0.66856 -2.66567,-1.1057 -2.66567,-1.88569c0,-0.77996 0.71142,-1.31139 1.96284,-1.31139c1.24282,0.04285 2.46852,0.35141 3.58278,0.90855l0.87427,-3.51421c-1.44855,-0.66856 -3.02566,-1.00283 -4.61991,-0.9857c-4.07993,0 -6.7113,2.33138 -6.7113,5.43417c-0.04285,1.92854 1.27711,3.78849 4.71419,4.93704c1.88569,0.60857 2.39137,1.04569 2.39137,1.89424c0,0.84856 -0.6514,1.34568 -2.19424,1.34568c-1.54281,-0.05999 -3.05135,-0.47141 -4.40562,-1.2171l-0.91713,3.65993zm-18.80531,0.83998l5.12561,0l0,-9.53123c-0.02572,-0.43714 0.03427,-0.86569 0.16286,-1.28569c0.36857,-0.94284 1.2171,-1.92854 2.6228,-1.92854c1.85139,0 2.59708,1.45713 2.59708,3.5828l0,9.1798l5.12561,0l0,-9.77121c0,-4.86847 -2.52851,-7.13986 -5.89702,-7.13986c-2.04852,-0.05143 -3.96848,0.95998 -5.09132,2.67423l-0.10287,0l-0.23143,-2.30566l-4.43133,0c0.06857,1.4914 0.13714,3.21421 0.13714,5.26275l-0.01714,11.26262zm-13.88541,-10.1398c0.13714,-1.35424 1.01139,-3.35135 3.20563,-3.35135c2.32282,0 2.8628,2.09995 2.8628,3.35135l-6.06843,0zm10.65404,3.51423c0.11145,-0.66856 0.17144,-1.34568 0.17144,-2.03138c0,-4.0885 -2.02283,-8.25412 -7.35413,-8.25412c-5.69131,0 -8.32269,4.63704 -8.32269,8.82837c0,5.17705 3.20565,8.42555 8.7941,8.42555c2.03996,0.04285 4.07135,-0.30858 5.96559,-1.04569l-0.66856,-3.48851c-1.46569,0.49713 -3.0085,0.73713 -4.55134,0.71142c-2.39137,0 -4.48274,-1.01141 -4.65418,-3.14564l10.61977,0zm-30.14508,5.7856c1.65426,0.80568 3.47993,1.2171 5.32274,1.18283c4.72277,0 7.11414,-2.26281 7.11414,-5.38276c-0.03427,-2.39995 -1.31139,-3.98562 -4.44847,-5.0656c-2.02283,-0.67712 -2.66567,-1.11426 -2.66567,-1.89424c0,-0.77999 0.70286,-1.31997 1.96284,-1.31997c1.24282,0.04285 2.45994,0.35999 3.5742,0.9171l0.87427,-3.52276c-1.43997,-0.66001 -3.01708,-1.00286 -4.61133,-0.9857c-4.07993,0 -6.7113,2.33994 -6.7113,5.4513c-0.03427,1.92854 1.27711,3.78849 4.72277,4.92848c1.88566,0.60855 2.39137,1.04569 2.39137,1.89424c0,0.84856 -0.64285,1.35424 -2.19424,1.35424c-1.54281,-0.05999 -3.05135,-0.47141 -4.4142,-1.2171l-0.91713,3.65993zm0,0"/>
   <path stroke="null" id="svg_4" fill="rgb(0%,68.627451%,66.666667%)" fill-rule="nonzero" d="m164.9015,44.94686l-0.35143,-1.05427c12.44544,-4.24276 18.95959,-8.76838 18.84817,-13.08829c-0.09429,-3.68564 -4.88561,-6.82272 -8.89694,-8.80267c-2.90566,-1.4057 -5.91418,-2.57994 -8.99983,-3.51421l0.3,-1.0714c0.76285,0.21427 18.50534,5.3656 18.71105,13.36257c0.13714,4.9199 -6.4713,9.69408 -19.61102,14.16827zm0,0"/>
   <path stroke="null" id="svg_5" fill="rgb(0%,68.627451%,66.666667%)" fill-rule="nonzero" d="m164.11294,45.12685l-0.29142,-1.41425c11.91404,-2.41709 31.88504,-7.28556 31.79076,-12.82259c-0.05143,-2.76852 -5.34846,-5.84559 -14.93112,-8.67409c-5.02275,-1.43997 -10.12264,-2.63138 -15.26539,-3.5485l0.23143,-1.42283c3.20565,0.53998 31.28505,5.52845 31.40505,13.61115c0.04285,2.49421 -2.39137,4.81704 -7.43128,7.07985c-5.40845,2.4428 -13.99686,4.85989 -25.50804,7.19127zm0,0"/>
   <path stroke="null" id="svg_6" fill="rgb(100%,100%,100%)" fill-rule="nonzero" d="m136.10211,15.71033c0.52284,1.36284 2.0571,2.04854 3.4285,1.53426l10.98834,-4.2342c1.3714,-0.52284 2.04852,-2.06566 1.53426,-3.43706l-0.12,-0.3c-0.53142,-1.36284 -2.0571,-2.03996 -3.41992,-1.51712l-10.99691,4.20849c-1.36284,0.53142 -2.04854,2.06568 -1.53426,3.44564l0.12,0.3zm0,0"/>
   <path stroke="null" id="svg_7" fill="rgb(0%,68.627451%,66.666667%)" fill-rule="nonzero" d="m138.58776,17.88743c-1.29427,0 -2.45996,-0.79712 -2.92279,-2.01425l-0.11142,-0.3c-0.61713,-1.61138 0.18855,-3.41992 1.79138,-4.04563l10.99691,-4.22562c1.61141,-0.60855 3.41136,0.19713 4.02849,1.80854l0.12,0.3c0.60855,1.61138 -0.19715,3.41992 -1.79998,4.03705l-10.99691,4.2342c-0.35141,0.13714 -0.72855,0.20571 -1.10568,0.20571zm-2.04854,-2.34852c0.42858,1.13139 1.69711,1.69709 2.81995,1.25998l10.99691,-4.22564c1.12284,-0.42856 1.68853,-1.69709 1.25998,-2.82851l-0.12,-0.3c-0.43714,-1.12284 -1.68853,-1.68853 -2.81995,-1.25998l-10.99689,4.21707c-1.12284,0.43714 -1.67998,1.70567 -1.25142,2.83709l0.11142,0.3zm0,0"/>
   <path stroke="null" id="svg_8" fill="rgb(100%,100%,100%)" fill-rule="nonzero" d="m186.90389,13.87608c0.00858,2.99994 -2.41709,5.42561 -5.39989,5.43419c-2.98278,0 -5.40845,-2.42567 -5.40845,-5.42561c0,-2.99136 2.41709,-5.42561 5.39989,-5.42561c0,0 0.00856,0 0.00856,0c2.98281,0 5.39989,2.42567 5.39989,5.41703"/>
   <path stroke="null" id="svg_9" fill="rgb(0%,68.627451%,66.666667%)" fill-rule="nonzero" d="m181.504,19.7731c-3.24851,0 -5.87988,-2.63135 -5.87988,-5.88844c0,-3.25706 2.62282,-5.89702 5.87132,-5.89702c3.23993,-0.00858 5.87986,2.63138 5.87986,5.88844c0,3.25709 -2.63138,5.89702 -5.8713,5.89702zm0,-10.8512c-2.73422,0 -4.93704,2.21996 -4.93704,4.95418c0,2.7428 2.20282,4.9542 4.93704,4.9542c2.72566,0 4.93704,-2.2114 4.93704,-4.9542c-0.00856,-2.73422 -2.21996,-4.9456 -4.93704,-4.9456l0,-0.00858zm0,0"/>
   <path stroke="null" id="svg_10" fill="rgb(100%,100%,100%)" fill-rule="nonzero" d="m187.15245,14.7932c0,1.23426 -0.99425,2.22854 -2.21996,2.22854c-1.22568,0 -2.21996,-0.99428 -2.21996,-2.22854c0,-1.23426 0.99428,-2.22851 2.21996,-2.22851c0,0 0.00858,0 0.00858,0c1.22568,0 2.21138,0.99425 2.21138,2.22851"/>
   <path stroke="null" id="svg_11" fill="rgb(0%,68.627451%,66.666667%)" fill-rule="nonzero" d="m184.94107,17.49315c-1.4914,0 -2.69137,-1.20854 -2.69995,-2.69995c0,-1.49138 1.20854,-2.69995 2.69137,-2.69995c1.48282,-0.00856 2.69137,1.19999 2.69137,2.69139l0,0.00856c0,1.4914 -1.19996,2.69139 -2.68279,2.69995zm0,-4.45705c-0.96856,0 -1.7571,0.77999 -1.7571,1.7571c0,0.96856 0.77999,1.7571 1.74852,1.7571c0.96856,0 1.7571,-0.77996 1.7571,-1.7571c0,-0.96854 -0.78854,-1.7571 -1.74852,-1.7571zm0,0"/>
   <path stroke="null" id="svg_12" fill="rgb(0%,68.627451%,66.666667%)" fill-rule="nonzero" d="m186.47533,14.95606c0.06857,0.63427 -0.39428,1.20854 -1.02855,1.27711c-0.63429,0.06857 -1.19999,-0.39426 -1.26856,-1.02855c-0.00856,-0.08571 -0.00856,-0.16286 0,-0.24856c-0.06857,-0.63427 0.39428,-1.20854 1.01999,-1.26853c0.63427,-0.06857 1.20854,0.3857 1.27711,1.01997c0.00856,0.08571 0.00856,0.17144 0,0.24856"/>
   <path stroke="null" id="svg_13" fill="rgb(0%,68.627451%,66.666667%)" fill-rule="nonzero" d="m184.41823,13.01038c0,-0.02572 -0.54,-2.69137 -2.3571,-3.47135c-1.0714,-0.47141 -2.42567,-0.18857 -4.01991,0.82284l-0.50571,-0.8057c1.87711,-1.19138 3.52279,-1.49138 4.9199,-0.89141c2.26281,0.9857 2.87136,4.02849 2.8885,4.15707l-0.92568,0.18855zm0,0"/>
   <path stroke="null" id="svg_14" fill="rgb(0%,68.627451%,66.666667%)" fill-rule="nonzero" d="m178.23835,12.32468l0.93426,0l0,1.68853l-0.93426,0l0,-1.68853zm0,0"/>
   <path stroke="null" id="svg_15" fill="rgb(0%,68.627451%,66.666667%)" fill-rule="nonzero" d="m150.05609,13.49895l0.28286,-0.89999l14.06541,4.34563l-0.27428,0.89141l-14.07398,-4.33705zm0,0"/>
   <path stroke="null" id="svg_16" fill="rgb(0%,68.627451%,66.666667%)" fill-rule="nonzero" d="m199.8379,30.47001c0,1.43141 -1.16569,2.5971 -2.59708,2.5971l-6.01702,0c-1.43139,-0.05143 -2.55423,-1.25998 -2.50282,-2.69137c0.05143,-1.3714 1.14,-2.46852 2.50282,-2.51995l6.01702,0c1.43139,0 2.59708,1.16569 2.59708,2.60566"/>
   <path stroke="null" id="svg_17" fill="rgb(0%,68.627451%,66.666667%)" fill-rule="nonzero" d="m164.98721,44.84402l-0.40286,-0.84856c9.0684,-4.35421 13.57686,-8.81125 13.43116,-13.2683c-0.24856,-7.10556 -12.45402,-12.00831 -12.5826,-12.05118l0.34285,-0.87425c2.25425,0.93426 4.40564,2.09995 6.41986,3.47135c4.35421,2.98278 6.62559,6.14558 6.74558,9.4198c0.17999,4.85989 -4.51704,9.60836 -13.95398,14.15113zm0,0"/>
  </g>
 </g>
</svg>