<svg width="200" height="60" xmlns="http://www.w3.org/2000/svg">
 <defs>
  <radialGradient gradientTransform="matrix(0.11806632578372955,0,0,0.11806632578372955,5.738800048828125,0.5135269165039062)" gradientUnits="userSpaceOnUse" r="0.87" cy="323.93" cx="336.67" id="radial-gradient">
   <stop stop-opacity="0" stop-color="#1d1d1b" offset="0"/>
   <stop stop-opacity="0" stop-color="#1d1d1b" offset="0.43"/>
   <stop stop-opacity="0.14" stop-color="#1c1c1b" offset="0.71"/>
   <stop stop-opacity="0" stop-color="#1d1d1b" offset="0.92"/>
  </radialGradient>
  <radialGradient gradientTransform="matrix(0.11806632578372955,0,0,0.11806632578372955,5.738800048828125,0.5135269165039062)" gradientUnits="userSpaceOnUse" r="572.06" cy="148.18" cx="280.25" id="radial-gradient-2">
   <stop stop-opacity="0" stop-color="#1c1c1b" offset="0"/>
   <stop stop-opacity="0" stop-color="#1c1c1b" offset="0.43"/>
   <stop stop-opacity="0.14" stop-color="#1c1c1b" offset="0.71"/>
   <stop stop-opacity="0" stop-color="#1c1c1b" offset="0.92"/>
  </radialGradient>
  <radialGradient gradientTransform="matrix(0.11806632578372955,0,0,0.11806632578372955,5.738800048828125,0.5135269165039062)" gradientUnits="userSpaceOnUse" r="460.87" cy="153.73" cx="287.85" id="FINAL_3">
   <stop stop-color="#dc2027" offset="0"/>
   <stop stop-color="#dc2027" offset="0.43"/>
   <stop stop-color="#9f1c22" offset="0.71"/>
   <stop stop-color="#dc2027" offset="0.92"/>
  </radialGradient>
 </defs>
 <g>
  <title>Layer 1</title>
  <g stroke="null" id="Layer_2">
   <g stroke="null" id="Vector_Smart_Object_Image">
    <path stroke="null" id="svg_1" fill="#fff" d="m45.4079,38.75875l0.15821,0.00118" class="cls-1"/>
    <path stroke="null" id="svg_2" d="m45.4079,38.75875l0.15821,0.00118" fill="url(#radial-gradient)"/>
    <path stroke="null" id="svg_3" fill="#fff" d="m57.4365,0.51353a26.82939,26.82939 0 0 1 -19.1114,7.9683a26.82939,26.82939 0 0 1 -19.1114,-7.9683c-8.16192,5.92221 -13.47491,15.53162 -13.47491,26.38664c0,17.99685 14.58946,32.5863 32.5863,32.5863s32.5863,-14.58946 32.5863,-32.5863c0,-10.85502 -5.31298,-20.46444 -13.47491,-26.38664z" class="cls-1"/>
    <path stroke="null" id="svg_4" fill="url(#radial-gradient-2)" d="m57.4365,0.51353a26.82939,26.82939 0 0 1 -19.1114,7.9683a26.82939,26.82939 0 0 1 -19.1114,-7.9683c-8.16192,5.92221 -13.47491,15.53162 -13.47491,26.38664c0,17.99685 14.58946,32.5863 32.5863,32.5863s32.5863,-14.58946 32.5863,-32.5863c0,-10.85502 -5.31298,-20.46444 -13.47491,-26.38664z"/>
    <path stroke="null" id="svg_5" fill="url(#FINAL_3)" d="m38.3251,14.14901a32.42692,32.42692 0 0 1 -19.1114,-6.1973a26.83057,26.83057 0 0 0 -7.80773,18.94846c0,14.86691 12.05221,26.91912 26.91912,26.91912s26.91912,-12.05221 26.91912,-26.91912a26.83057,26.83057 0 0 0 -7.80773,-18.94846a32.42692,32.42692 0 0 1 -19.1114,6.1973z"/>
    <path stroke="null" id="svg_6" fill="#fff" d="m57.48018,14.22103c-0.75444,0.76507 -4.32241,5.36139 -12.51503,8.53029c0,0 1.27512,3.57741 -0.36364,5.66718c-0.78042,0.99412 -1.9906,1.43214 -3.04611,1.62223a6.0934,6.0934 0 0 0 -1.29873,-2.01303c-1.30581,-1.36957 -1.24914,-1.69425 -1.28692,-2.38494c0.07438,-2.31292 0.85008,-3.80764 1.30581,-4.35429a9.62831,9.62831 0 0 1 1.85246,-1.68245a10.42998,10.42998 0 0 1 1.43333,-0.83237a1.79225,1.79225 0 0 1 1.03662,-0.09209a1.94927,1.94927 0 0 0 -0.36955,-0.7084c-0.48407,-0.59033 -1.4168,-0.20898 -2.1795,0.11807l0,-0.00708a1.11573,1.11573 0 0 0 -1.29873,-0.44039l-5.37674,1.98233c0.36837,0.63756 1.14997,0.7143 1.87607,0.49706c-0.8123,1.24206 -1.15587,3.44163 -1.31408,5.03671l0.00708,0c-0.11807,1.0626 -0.04014,2.36723 -0.24794,3.40621a2.73678,2.73678 0 0 1 -0.73437,1.40499c-0.97287,-0.21842 -2.02248,-0.66353 -2.72379,-1.55729c-1.63994,-2.08623 -0.36482,-5.66718 -0.36482,-5.66718c-8.18672,-3.16418 -11.94713,-7.7605 -12.70157,-8.52557c0.02125,0.42032 0.11807,7.51846 4.16774,12.30487c1.69543,2.00713 5.15123,3.7675 8.13595,5.01546c1.23852,0.55019 6.594,3.163 3.99182,6.13945c-0.84535,0.96696 -2.90679,0.59623 -2.90679,0.59623l1.49236,4.40269s1.47347,-0.7084 2.05081,-1.60452c0.61867,-0.95634 1.1476,-1.13344 1.1476,-1.13344l-1.40381,5.9411l2.57385,5.17485l2.57148,-5.17485l-1.40145,-5.93519s0.52894,0.1771 1.14642,1.13344c0.57852,0.89494 2.05199,1.60452 2.05199,1.60452l1.49118,-4.40269s-2.0579,0.36601 -2.90561,-0.60096c-2.59746,-2.97763 2.75213,-5.58926 3.99064,-6.13945c2.9859,-1.24796 6.4417,-3.00951 8.13595,-5.01546c4.04613,-4.78759 3.95876,-11.88574 3.98002,-12.30605z" class="cls-1"/>
    <path stroke="null" id="svg_7" fill="#565454" d="m89.10661,26.99698c0.93509,-0.43448 1.46875,-0.63402 2.13582,-0.63402c4.03787,0 6.90806,3.30586 6.90806,7.04148c0,4.8726 -3.8041,8.51022 -8.67669,8.51022c-1.86899,0 -3.57151,-0.33413 -5.8738,-1.20192l0,-18.08776c0,-1.93629 -0.16647,-2.20312 -2.03546,-2.36959l0,-1.0012c1.70134,-0.20071 4.40505,-0.66826 6.3071,-1.20192l0,9.54448l1.23497,-0.59978zm-1.23497,10.91287a3.20668,3.20668 0 0 0 0.16647,1.10156c0.20071,0.53366 0.96814,1.53486 2.03664,1.56792c1.80169,0.03306 3.43691,-1.96935 3.43691,-6.13945c0,-4.23858 -2.13582,-5.90332 -4.27164,-5.90332c-0.53366,0 -0.86779,0.10036 -1.36839,0.23613l0,9.13715zm23.46096,4.00481c-0.90085,0 -1.60098,-0.30107 -2.03546,-0.70131a3.11105,3.11105 0 0 1 -0.86779,-1.23497c-1.26803,0.83473 -2.83359,1.93629 -3.46997,1.93629c-2.83359,0 -4.50541,-2.20312 -4.50541,-4.27164c0,-1.73557 0.80049,-2.5703 2.53606,-3.20432c1.96935,-0.73437 4.53847,-1.53486 5.3059,-2.20194l0,-1.00238c0,-2.10158 -0.80049,-3.27044 -2.03546,-3.27044c-0.43448,0 -0.80049,0.20071 -1.10156,0.60096c-0.40024,0.47227 -0.70131,1.26803 -0.96814,2.30347c-0.23613,0.86779 -0.70013,1.13462 -1.40145,1.13462c-0.86779,0 -2.06852,-0.80167 -2.06852,-1.66946c0,-0.60096 0.40024,-1.03426 1.16768,-1.60098c1.26803,-0.86779 3.63762,-2.03664 5.53967,-2.36959c1.36839,0 2.36959,0.29989 3.27044,0.96696c1.43569,1.10156 1.73557,2.53725 1.73557,4.40624l0,5.50543c0,1.53486 0.53366,1.96935 1.0626,1.96935c0.40024,0 0.76743,-0.13341 1.13462,-0.26683l0.33413,1.0685l-3.6329,1.90205zm-3.03667,-8.38271c-0.59978,0.29989 -1.16768,0.66707 -1.83475,1.03426c-1.03544,0.53366 -1.5691,1.13462 -1.5691,2.26923c0,1.86899 1.23497,2.5703 2.00713,2.5703c0.47227,0 0.83473,-0.13341 1.40145,-0.53484l-0.00472,-5.33896zm7.20795,7.98128l0,-1.0626c1.96935,-0.29989 2.17006,-0.47227 2.17006,-2.60336l0,-15.28959c0,-2.00713 -0.16765,-2.10158 -2.00713,-2.33535l0,-0.96814c1.90205,-0.23613 4.36845,-0.66826 6.23981,-1.20192l0,19.79028c0,2.23618 0.20071,2.36959 2.23618,2.60336l0,1.0626l-8.63891,0.00472zm27.20012,-0.86661c-0.80049,0.13341 -3.93869,0.53366 -6.57511,1.29873l0,-1.93275l-2.00713,1.29873c-0.83355,0.5006 -1.29873,0.60096 -1.70134,0.60096c-2.83359,0 -6.8077,-2.33653 -6.8077,-7.30949c0,-4.53847 3.93751,-8.24221 9.14306,-8.24221c0.26801,0 0.6352,0.06612 1.36839,0.16647l0,-4.03787c0,-1.80287 -0.19953,-1.96935 -2.23618,-2.20312l0,-1.03426c2.13582,-0.26683 4.80648,-0.70131 6.50782,-1.20192l0,19.25662c0,1.90205 0.16765,2.03546 1.5691,2.20312l0.73437,0.06612l0.00472,1.07086zm-6.57511,-11.14664c-0.53366,-1.16886 -1.43451,-1.73557 -2.40265,-1.73557c-0.80049,0 -3.37079,0.86779 -3.37079,5.93992c0.03424,4.10517 2.40265,5.67309 3.93751,5.67309a3.00597,3.00597 0 0 0 1.83593,-0.53366l0,-9.34377zm30.10337,-1.66946c-1.60216,0.26683 -1.83593,0.53484 -2.53725,2.26923c-1.23379,3.10396 -2.63524,7.10877 -4.27164,11.78066l-1.26803,0c-1.29873,-3.13584 -2.66948,-6.27404 -3.90445,-9.31071c-1.26803,3.10396 -2.43571,6.13945 -3.70374,9.31071l-1.26921,0c-1.33415,-4.10399 -2.76866,-8.20915 -4.00481,-11.94713c-0.56672,-1.60216 -0.86779,-1.93511 -2.26805,-2.10276l0,-1.0626l8.24221,0l0,1.0626c-1.90205,0.30107 -2.13582,0.60096 -1.77099,1.73557c0.66707,2.13582 1.33533,4.40505 1.96935,6.50782l0.06612,0c1.16886,-2.90325 2.27042,-5.97416 3.47115,-9.14424l1.29873,0c1.20073,3.06972 2.46877,6.10757 3.77104,9.20917l0.06612,0c0.53366,-1.5691 1.5691,-4.90684 1.86899,-6.34134c0.30107,-1.26803 0.13341,-1.66828 -1.93511,-1.96935l0,-1.0626l6.17369,0l0.0059,1.06496zm0.83473,13.68271l0,-1.0626c1.93511,-0.23613 2.13582,-0.36719 2.13582,-2.73678l0,-6.61171c0,-2.20312 -0.23613,-2.30347 -1.83593,-2.5703l0,-0.96814a39.98788,39.98788 0 0 0 6.07451,-1.20073l0,11.34145c0,2.30347 0.16647,2.46995 2.16888,2.73678l0,1.0626l-8.54328,0.00945zm19.42309,0l0,-1.0626c1.40145,-0.23613 1.5691,-0.33295 1.5691,-2.70372l0,-5.67781c0,-2.40265 -1.10156,-3.13702 -2.30347,-3.13702c-0.83473,0 -1.60216,0.36719 -2.46995,1.03426l0,8.07692c0,2.0697 0.20071,2.16888 1.5691,2.40265l0,1.0626l-8.03796,0l0,-1.0626c2.06852,-0.29989 2.23618,-0.33295 2.23618,-2.56912l0,-6.90924c0,-2.00713 -0.16765,-2.13582 -1.80287,-2.43571l0,-0.96814a40.56168,40.56168 0 0 0 6.04027,-1.26803l0,2.46995c0.66826,-0.47227 1.33533,-1.0012 2.0697,-1.46875c1.0012,-0.63402 1.63522,-0.9339 2.59746,-0.9339c2.70254,0 4.36845,2.00713 4.36845,5.33896l0,6.3071c0,2.10394 0.19953,2.17006 1.93511,2.43689l0,1.0626l-7.77113,0.00472z"/>
    <path stroke="null" id="svg_8" fill="#dc2027" d="m173.64564,22.05945a2.47231,2.47231 0 1 1 -2.47231,-2.47113a2.47231,2.47231 0 0 1 2.47231,2.47113z"/>
   </g>
  </g>
 </g>
</svg>
