<svg width="200" height="60" xmlns="http://www.w3.org/2000/svg">

 <g>
  <title>Layer 1</title>
  <path id="svg_1" fill="#e55d39" d="m71.55924,33.26534l0,2.65954c0,8.11694 -4.15187,12.17591 -10.96276,12.17591c-6.8114,0 -10.96327,-4.05897 -10.96327,-12.17591l0,-11.89622c0,-8.11744 4.15187,-12.12946 10.96327,-12.12946c6.8109,0 10.96276,4.01202 10.96276,12.12946l0,2.239l-6.76445,0l0,-2.3324c0,-4.5719 -1.58573,-6.06473 -4.19831,-6.06473c-2.56614,0 -4.19882,1.49283 -4.19882,6.06473l0,12.12896c0,4.5719 1.58623,6.06524 4.19882,6.06524s4.19831,-1.49334 4.19831,-6.06524l0,-2.79887l6.76445,0l0,-0.00001z" class="b"/>
  <path id="svg_2" fill="#e55d39" d="m82.80775,12.50578l10.35644,0l6.39086,34.98845l-6.67105,0l-1.1662,-7.13753l-7.46417,0l-1.1662,7.13753l-6.62461,0l6.34492,-34.98845l0.00001,0zm7.93065,22.01993l-2.75243,-16.88816l-2.75243,16.88816l5.50486,0z" class="b"/>
  <path id="svg_3" fill="#e55d39" d="m101.65572,12.50578l19.31344,0l0,5.92489l-6.25102,0l0,29.06356l-6.76496,0l0,-29.06356l-6.29747,0l0,-5.92489l0.00001,0z" class="b"/>
  <path id="svg_4" fill="#e55d39" d="m143.95588,47.49422l-16.98105,0l0,-34.98845l6.76496,0l0,29.01712l10.21609,0l0,5.97134l0,-0.00001z" class="b"/>
  <path id="svg_5" fill="#e55d39" d="m155.15743,12.50578l10.35644,0l6.39137,34.98845l-6.67105,0l-1.1662,-7.13753l-7.46366,0l-1.16721,7.13753l-6.6236,0l6.34391,-34.98845zm7.93115,22.01993l-2.75243,-16.88816l-2.75243,16.88816l5.50486,0z" class="b"/>
  <path id="svg_6" fill="#e55d39" d="m177.84023,12.50577l11.10361,0c5.87743,0 10.07575,3.17246 10.07575,9.09735l0,1.35249c0,4.80514 -2.75243,7.65147 -6.76395,8.67732l7.74436,15.8613l-7.69791,0l-7.74436,-17.21429l0,17.21429l-6.7175,0l0,-34.98845l0,-0.00001zm6.7175,5.83149l0,9.37704l3.63894,0c2.51919,0 4.10542,-1.35299 4.10542,-4.61834l0,-0.60683c0,-3.03211 -1.58623,-4.15187 -4.10542,-4.15187l-3.63894,0z" class="b"/>
  <g id="svg_7">
   <path id="svg_8" fill="#e55d39" d="m6.75237,16.10105l0,5.41129l5.37497,3.10331l5.37497,-3.10331l0,-6.20652l-4.68631,-2.7056c-0.42612,-0.24607 -0.95118,-0.24607 -1.3774,0l-3.99757,2.30798c-0.42612,0.24607 -0.68865,0.70079 -0.68865,1.19284l0,0l-0.00001,0.00001z" class="b"/>
   <path id="svg_9" fill="#e55d39" d="m25.63206,24.61565l5.37497,-3.10331l0,-6.20652l-5.37497,-3.10321l-5.37497,3.10321l0,6.20652l5.37497,3.10331z" class="b"/>
   <path id="svg_10" fill="#e55d39" d="m10.74994,33.20785l0,-6.20652l-5.37497,-3.10331l-4.68632,2.70569c-0.42612,0.24607 -0.68865,0.70079 -0.68865,1.19284l0,4.61606c0,0.49214 0.26253,0.94686 0.68874,1.19284l4.68632,2.7056l5.37488,-3.10322l0,0.00002z" class="b"/>
   <path id="svg_11" fill="#e55d39" d="m17.5023,38.7008l-5.37497,-3.1033l-5.37497,3.1033l0,5.4112c0,0.49205 0.26253,0.94677 0.68865,1.19284l3.99757,2.30798c0.42621,0.24607 0.95128,0.24607 1.3774,0l4.68631,-2.7056l0,-6.20643l0.00001,0.00001z" class="b"/>
   <path id="svg_12" fill="#e55d39" d="m31.00703,44.112l0,-5.4112l-5.37497,-3.1033l-5.37497,3.1033l0,6.20643l4.68632,2.7056c0.42621,0.24607 0.95128,0.24607 1.3774,0l3.99757,-2.30798c0.42612,-0.24607 0.68865,-0.70079 0.68865,-1.19284l0,0l0,-0.00001z" class="b"/>
   <path id="svg_13" fill="#e55d39" d="m32.38443,23.89803l-5.37497,3.10331l0,6.20652l5.37497,3.10321l4.68632,-2.7056c0.42621,-0.24607 0.68874,-0.70079 0.68874,-1.19284l0,-4.61606c0,-0.49205 -0.26253,-0.94677 -0.68865,-1.19284l-4.68641,-2.70569l0,-0.00001z" class="b"/>
  </g>
 </g>
</svg>