<svg width="200" height="50" xmlns="http://www.w3.org/2000/svg" version="1.1">

 <g>
  <title>Layer 1</title>
  <g stroke="null" id="surface1">
   <path stroke="null" id="svg_1" fill="rgb(0%,0%,0%)" fill-rule="nonzero" d="m58.02453,0.31453l-5.58131,0c-3.09147,0 -5.75717,2.70273 -5.75717,5.84048l0,24.34298c0,3.13775 2.6657,5.84048 5.75717,5.84048l5.58131,0l0,-36.02395zm0,0"/>
   <path stroke="null" id="svg_2" fill="rgb(0%,0%,0%)" fill-rule="nonzero" d="m71.94539,42.44736l0,7.23812l-2.91561,0c-4.64646,0 -8.85789,-3.84119 -8.85789,-7.41398l0,-41.95697l5.59055,0c3.09147,0 5.75717,2.70273 5.75717,5.84048l0,24.34298c0,3.13775 -2.6657,5.84048 -5.75717,5.84048c3.09147,0 6.18295,2.44356 6.18295,6.10888"/>
   <path stroke="null" id="svg_3" fill="rgb(0%,0%,0%)" fill-rule="nonzero" d="m144.03029,13.56897l-2.65643,0c-2.23992,0 -3.95227,1.83267 -3.95227,4.01705l0,14.6521c0,2.26769 1.8049,4.01705 3.95227,4.01705l2.65643,0l0,-22.6862zm0,0"/>
   <path stroke="null" id="svg_4" fill="rgb(0%,0%,0%)" fill-rule="nonzero" d="m108.97821,13.56897l-2.92485,0c-2.23068,0 -3.95227,1.83267 -3.95227,4.01705l0,14.6521c0,2.26769 1.8049,4.01705 3.95227,4.01705l2.92485,0l0,-22.6862zm0,0"/>
   <path stroke="null" id="svg_5" fill="rgb(0%,0%,0%)" fill-rule="nonzero" d="m77.70254,13.56897l2.6657,0l0,22.51034l-2.6657,0c-2.23066,0 -3.95225,-1.83267 -3.95225,-4.01705l0,-18.40073l3.95225,0l0,-0.09255zm0,0"/>
   <path stroke="null" id="svg_6" fill="rgb(0%,0%,0%)" fill-rule="nonzero" d="m85.52379,36.33848l-2.92487,0l0,-22.76951l6.87712,0l0,22.76951l-3.95225,0zm0,0"/>
   <path stroke="null" id="svg_7" fill="rgb(0%,0%,0%)" fill-rule="nonzero" d="m153.13809,25.08331l0,-7.41398c0,-2.26769 -1.8049,-4.00781 -3.95227,-4.00781l-3.09145,0l0,11.51434l7.04372,0l0,-0.09255zm0,0"/>
   <path stroke="null" id="svg_8" fill="rgb(0%,0%,0%)" fill-rule="nonzero" d="m146.27021,29.79456l0,6.54392l3.09147,0c2.23068,0 3.95227,-1.83267 3.95227,-4.00781l0,-2.44356c0,-0.09255 -7.04374,-0.09255 -7.04374,-0.09255zm0,0"/>
   <path stroke="null" id="svg_9" fill="rgb(0%,0%,0%)" fill-rule="nonzero" d="m117.82686,20.54791l0,-2.96189c0,-2.26769 -1.8049,-4.01705 -3.95227,-4.01705l-2.91561,0l0,6.97894l6.86788,0zm0,0"/>
   <path stroke="null" id="svg_10" fill="rgb(0%,0%,0%)" fill-rule="nonzero" d="m110.95898,29.53538l0,6.71979l2.91561,0c2.23992,0 3.95227,-1.83267 3.95227,-4.01705l0,-2.70273c0,0 -6.86788,0 -6.86788,0zm0,0"/>
   <path stroke="null" id="svg_11" fill="rgb(0%,0%,0%)" fill-rule="nonzero" d="m119.37258,0.31453l7.99709,0l0,36.02395l-7.99709,0l0,-36.02395zm0,0"/>
   <path stroke="null" id="svg_12" fill="rgb(0%,0%,0%)" fill-rule="nonzero" d="m92.39165,0.31453l7.99709,0l0,11.69021l-7.99709,0l0,-11.69021zm0,0"/>
   <path stroke="null" id="svg_13" fill="rgb(0%,0%,0%)" fill-rule="nonzero" d="m92.39165,14.01325l7.99709,0l0,22.24192l-7.99709,0l0,-22.24192zm0,0"/>
   <path stroke="null" id="svg_14" fill="rgb(0%,0%,0%)" fill-rule="nonzero" d="m131.83101,25.08331l0.43504,0c1.9715,0 3.51723,-1.56426 3.51723,-3.57279l0,-7.849l-7.12703,0l0,32.18277c0,2.00851 1.54573,3.58201 3.51725,3.58201l3.52649,0l0,-19.89091c0,-2.00851 -1.54575,-3.57277 -3.52649,-3.57277l-0.42578,0c-0.68493,0 -0.8608,-0.26842 -0.8608,-0.43502c0.08329,-0.26842 0.51833,-0.44428 0.94408,-0.44428"/>
  </g>
 </g>
</svg>