<svg width="200" height="26" xmlns="http://www.w3.org/2000/svg" version="1.1">

 <g>
  <title>Layer 1</title>
  <g stroke="null" id="surface1">
   <path stroke="null" id="svg_1" fill="rgb(90.980392%,77.254902%,20.392157%)" fill-rule="evenodd" d="m93.97872,10.58127c0,0.50604 -0.09284,1.04921 -0.26926,1.62951c-0.17642,0.58495 -0.46424,1.12812 -0.85885,1.6295c-0.39925,0.49675 -0.91921,0.91456 -1.55523,1.25347c-0.64066,0.33426 -1.42059,0.50138 -2.33516,0.50138l-6.57373,0l0,-3.45863l6.57373,0c0.49675,0 0.87742,-0.15321 1.14668,-0.45496c0.27391,-0.30176 0.40854,-0.68244 0.40854,-1.12812c0,-0.47818 -0.15319,-0.84958 -0.45496,-1.12349c-0.3064,-0.26926 -0.66851,-0.40389 -1.10026,-0.40389l-6.57373,0c-0.4921,0 -0.87742,0.15321 -1.1467,0.45496c-0.26926,0.30176 -0.40854,0.67781 -0.40854,1.12812l0,5.08814c0,0.48282 0.15321,0.8635 0.45961,1.13277c0.30176,0.27391 0.67781,0.40854 1.12349,0.40854l6.54587,0l0,3.47256l-6.57373,0c-0.50139,0 -1.04919,-0.08821 -1.62951,-0.26461c-0.58494,-0.17642 -1.12811,-0.46425 -1.62485,-0.86351c-0.50139,-0.39461 -0.91921,-0.91456 -1.25812,-1.55522c-0.33426,-0.64066 -0.50138,-1.41596 -0.50138,-2.33052l0,-5.116c0,-0.50603 0.08821,-1.04919 0.26461,-1.63415c0.17642,-0.58031 0.46425,-1.12347 0.86351,-1.62485c0.39461,-0.49675 0.91456,-0.91921 1.55522,-1.25347c0.64066,-0.33426 1.41596,-0.50603 2.33052,-0.50603l6.57373,0c0.50603,0 1.04919,0.09284 1.63415,0.26926c0.58031,0.17642 1.12347,0.46425 1.62487,0.85886c0.49673,0.39924 0.9192,0.91456 1.25346,1.55522c0.33426,0.64066 0.50603,1.42059 0.50603,2.33516"/>
   <path stroke="null" id="svg_2" fill="rgb(90.980392%,77.254902%,20.392157%)" fill-rule="evenodd" d="m112.65071,5.56277l-6.54587,7.14939l7.37223,7.99897l-5.01386,0l-4.85137,-5.28312l-4.84673,5.28312l-5.03244,0l7.35831,-8.02681l-6.51803,-7.12154l4.99065,0l4.02038,4.38712l4.05286,-4.38712l5.01386,0zm0,0"/>
   <path stroke="null" id="svg_3" fill="rgb(90.980392%,77.254902%,20.392157%)" fill-rule="evenodd" d="m132.00051,15.59513c0,0.62674 -0.07891,1.19312 -0.23677,1.68986c-0.15784,0.50138 -0.3714,0.93777 -0.63138,1.31845c-0.25998,0.37604 -0.56638,0.70102 -0.90992,0.96563c-0.34819,0.26927 -0.70565,0.48282 -1.08633,0.6546c-0.38069,0.16712 -0.75672,0.28782 -1.14205,0.36675c-0.38068,0.08356 -0.74744,0.1207 -1.09098,0.1207l-6.57373,0l0,-3.64433l6.57373,0c0.48282,0 0.84957,-0.12535 1.09098,-0.37604c0.2414,-0.2507 0.36675,-0.61745 0.36675,-1.09563l0,-4.90244c0,-0.50603 -0.12535,-0.87742 -0.3714,-1.11883c-0.2507,-0.24605 -0.6128,-0.36676 -1.08633,-0.36676l-6.54587,0c-0.49675,0 -0.86814,0.12535 -1.11884,0.3714c-0.25533,0.24606 -0.38068,0.60816 -0.38068,1.08635l0,14.78161l-3.64434,0l0,-14.78161c0,-0.62674 0.07893,-1.18384 0.24141,-1.68058c0.15784,-0.49673 0.3714,-0.93313 0.63601,-1.30917c0.26462,-0.38068 0.57102,-0.70101 0.91921,-0.97027c0.34354,-0.26462 0.70565,-0.48282 1.08633,-0.64995c0.37604,-0.16712 0.76137,-0.29247 1.1467,-0.3714c0.38996,-0.07893 0.75208,-0.1207 1.08633,-0.1207l6.57373,0c0.62209,0 1.18382,0.07891 1.68057,0.2414c0.4921,0.15785 0.93314,0.36676 1.30917,0.62674c0.38069,0.26461 0.70102,0.56638 0.96563,0.91456c0.26927,0.34354 0.48282,0.70565 0.6546,1.08633c0.16712,0.37604 0.29247,0.75672 0.3714,1.14205c0.07891,0.38068 0.11605,0.74743 0.11605,1.09098c0,0 0,4.93029 0,4.93029zm0,0"/>
   <path stroke="null" id="svg_4" fill="rgb(90.980392%,77.254902%,20.392157%)" fill-rule="evenodd" d="m150.91391,10.58127c0,0.50604 -0.0882,1.04921 -0.26461,1.62951c-0.18106,0.58495 -0.46425,1.12812 -0.8635,1.6295c-0.39462,0.49675 -0.91458,0.91456 -1.55523,1.25347c-0.64066,0.33426 -1.41594,0.50138 -2.33052,0.50138l-6.57373,0l0,-3.45863l6.57373,0c0.49211,0 0.87744,-0.15321 1.1467,-0.45496c0.26926,-0.30176 0.40854,-0.68244 0.40854,-1.12812c0,-0.47818 -0.15321,-0.84958 -0.45961,-1.12349c-0.30176,-0.26926 -0.66851,-0.40389 -1.09563,-0.40389l-6.57373,0c-0.49673,0 -0.87742,0.15321 -1.15133,0.45496c-0.26926,0.30176 -0.40389,0.67781 -0.40389,1.12812l0,5.08814c0,0.48282 0.15321,0.8635 0.45496,1.13277c0.30176,0.27391 0.67781,0.40854 1.12812,0.40854l6.54587,0l0,3.47256l-6.57373,0c-0.50603,0 -1.04919,-0.08821 -1.63415,-0.26461c-0.58494,-0.17642 -1.12347,-0.46425 -1.62485,-0.86351c-0.49675,-0.39461 -0.91456,-0.91456 -1.25347,-1.55522c-0.33426,-0.64066 -0.50603,-1.41596 -0.50603,-2.33052l0,-5.116c0,-0.50603 0.08821,-1.04919 0.26926,-1.63415c0.17642,-0.58031 0.46425,-1.12347 0.85886,-1.62485c0.39924,-0.49675 0.9192,-0.91921 1.55522,-1.25347c0.64066,-0.33426 1.42059,-0.50603 2.33516,-0.50603l6.57373,0c0.50139,0 1.04456,0.09284 1.62951,0.26926c0.58495,0.17642 1.12812,0.46425 1.62487,0.85886c0.50138,0.39924 0.9192,0.91456 1.25346,1.55522c0.3389,0.64066 0.50603,1.42059 0.50603,2.33516"/>
   <path stroke="null" id="svg_5" fill="rgb(90.980392%,77.254902%,20.392157%)" fill-rule="evenodd" d="m166.12728,9.2071l-8.1986,0c-0.4921,0 -0.86814,0.12535 -1.11884,0.3714c-0.25533,0.24606 -0.38068,0.60816 -0.38068,1.08635l0,10.04629l-3.63969,0l0,-10.04629c0,-0.62674 0.07893,-1.18847 0.23677,-1.68058c0.15784,-0.49673 0.3714,-0.93313 0.63601,-1.30917c0.26927,-0.38068 0.57102,-0.70101 0.91921,-0.97027c0.34354,-0.26462 0.70565,-0.48282 1.08633,-0.64995c0.37604,-0.16712 0.76137,-0.29247 1.1467,-0.3714c0.38996,-0.07893 0.75208,-0.1207 1.08633,-0.1207l8.22645,0l0,3.64433zm0,0"/>
   <path stroke="null" id="svg_6" fill="rgb(90.980392%,77.254902%,20.392157%)" fill-rule="evenodd" d="m183.03977,9.2071l-6.36017,0l0,11.50403l-3.68611,0l0,-11.50403l-4.73532,0l0,-3.64433l4.73532,0l0,-4.94423l3.68611,0l0,4.94423l6.36017,0l0,3.64433zm0,0"/>
   <path stroke="null" id="svg_7" fill="rgb(90.980392%,77.254902%,20.392157%)" fill-rule="evenodd" d="m199.83157,15.59513c0,0.62674 -0.07893,1.19312 -0.23677,1.68986c-0.16249,0.50138 -0.3714,0.93777 -0.63138,1.31845c-0.26461,0.37604 -0.56638,0.70102 -0.90992,0.96563c-0.34819,0.26927 -0.7103,0.48282 -1.08635,0.6546c-0.38068,0.16712 -0.76136,0.28782 -1.15133,0.36675c-0.38531,0.08356 -0.75208,0.1207 -1.10026,0.1207l-9.86524,0l0,-3.64433l9.83739,0c0.49673,0 0.86813,-0.12535 1.12347,-0.37604c0.2507,-0.2507 0.37603,-0.61745 0.37603,-1.09563c-0.04642,-0.97027 -0.53852,-1.45308 -1.47166,-1.45308l-5.64524,0c-0.80314,0 -1.48559,-0.14392 -2.04732,-0.42247c-0.5571,-0.27855 -1.0167,-0.63138 -1.36489,-1.04919c-0.35283,-0.42247 -0.60352,-0.87742 -0.75672,-1.36024c-0.15321,-0.48746 -0.23212,-0.93779 -0.23212,-1.36025c0,-0.81243 0.14391,-1.49487 0.43639,-2.05197c0.28782,-0.5571 0.65459,-1.00741 1.09097,-1.35096c0.44104,-0.34819 0.91458,-0.59887 1.42989,-0.75208c0.51531,-0.15321 0.99349,-0.23212 1.4438,-0.23212l8.95532,0l0,3.64433l-8.92746,0c-0.1857,0 -0.33426,0.02322 -0.44103,0.065c-0.10678,0.04179 -0.1857,0.09749 -0.23677,0.16713c-0.05107,0.06963 -0.08356,0.14391 -0.09286,0.22284c-0.00928,0.07891 -0.01393,0.15784 -0.01393,0.23212c0.00929,0.14856 0.03714,0.26462 0.08357,0.34819c0.04642,0.08356 0.10677,0.14856 0.1764,0.1857c0.06964,0.03714 0.14856,0.0557 0.23677,0.06035c0.08821,0.00465 0.17642,0.00928 0.25998,0.00928l5.64524,0c0.93779,0 1.73164,0.16713 2.38159,0.50603c0.65459,0.33426 1.18382,0.75672 1.58308,1.2674c0.40389,0.50603 0.69637,1.06312 0.87742,1.65736c0.18106,0.59888 0.27391,1.15598 0.27391,1.66664"/>
   <path stroke="null" id="svg_8" fill="rgb(90.980392%,77.254902%,20.392157%)" fill-rule="evenodd" d="m1.59366,7.71223c1.03991,0 1.88484,0.84028 1.88484,1.8802c0,0.50603 -0.20427,0.961 -0.52925,1.29989l1.49952,1.49952c0.08821,-0.03714 0.1857,-0.0557 0.28784,-0.0557l1.77806,0c0.00929,0 0.01393,-0.00465 0.02322,-0.00465l2.17731,-1.93127c-0.24605,-0.1857 -0.46425,-0.48282 -0.46425,-0.81243l0,-2.60443c0,-0.56638 0.58495,-1.04456 1.15133,-1.04456l2.60443,0c0.56638,0 0.95635,0.47818 0.95635,1.04456l0,2.60443c0,0.32496 -0.12071,0.61745 -0.35748,0.80314l1.46238,1.35559c0.09286,-0.04642 0.2182,-0.08356 0.33426,-0.08356l1.77807,0c0.11142,0 0.21354,0.03249 0.3064,0.07893l1.31845,-1.2024c-0.23676,-0.3064 -0.38068,-0.69637 -0.38068,-1.11419c0,-1.0167 0.82172,-1.83842 1.83842,-1.83842c0.41782,0 0.80314,0.13928 1.10954,0.37604l0,-5.05565c0,-1.29989 -1.05384,-2.35373 -2.35837,-2.35373l-15.48726,0c-1.30454,0 -2.35838,1.05384 -2.35838,2.35373l0,5.45954c0.34354,-0.39924 0.85421,-0.65459 1.42524,-0.65459"/>
   <path stroke="null" id="svg_9" fill="rgb(10.980392%,21.176471%,36.862745%)" fill-rule="evenodd" d="m19.26289,11.26372c-0.36676,0 -0.7103,-0.11142 -0.99814,-0.29712l-1.33238,1.27668c0.00465,0.04179 0.07428,0.08821 0.07428,0.13463l0,1.77807c0,0.38533 -0.44103,0.53852 -0.82636,0.53852l-1.77807,0c-0.38996,0 -0.76601,-0.15319 -0.76601,-0.53852l0,-1.77807c0,-0.04642 0.03714,-0.06963 0.04179,-0.11142l-1.70843,-1.61094l-2.49764,0l-2.35373,2.01947c0.06963,0.10678 0.1207,0.21356 0.1207,0.35283l0,1.77806c0,0.38997 -0.33426,0.56174 -0.72423,0.56174l-1.77806,0c-0.38996,0 -0.8635,-0.17177 -0.8635,-0.56174l0,-1.77806c0,-0.065 0.08821,-0.12999 0.10677,-0.19035l-1.55522,-1.58773c-0.26462,0.13928 -0.53388,0.22284 -0.84958,0.22284c-0.57101,0 -1.06312,-0.25533 -1.40666,-0.65459l0,7.58115c0,1.29989 1.05384,2.35837 2.35838,2.35837l15.48726,0c1.30453,0 2.35837,-1.05848 2.35837,-2.35837l0,-7.51151c-0.3064,0.23212 -0.69173,0.37603 -1.10954,0.37603"/>
   <path stroke="null" id="svg_10" fill="rgb(10.980392%,21.176471%,36.862745%)" fill-rule="evenodd" d="m47.9069,18.91914c0,0.26462 -0.04642,0.50603 -0.13928,0.72887c-0.09284,0.22749 -0.22284,0.41782 -0.39461,0.58495c-0.16712,0.16249 -0.36212,0.29247 -0.58495,0.38533c-0.22747,0.09284 -0.46424,0.13927 -0.71494,0.13927l-8.21253,0c-0.77529,0 -1.55987,-0.08356 -2.35372,-0.25533c-0.79386,-0.16712 -1.56452,-0.4271 -2.30731,-0.77529c-0.74279,-0.35283 -1.43917,-0.79851 -2.09375,-1.33703c-0.65459,-0.54317 -1.22561,-1.18384 -1.71771,-1.92663c-0.48746,-0.74279 -0.87279,-1.59236 -1.15598,-2.55335c-0.27854,-0.95635 -0.41782,-2.02412 -0.41782,-3.19866l0,-10.0463l3.64434,0l0,10.0463c0,1.02598 0.13927,1.89413 0.4271,2.60443c0.28319,0.71029 0.6453,1.30453 1.08633,1.77806c0.43639,0.47817 0.91921,0.85421 1.43917,1.12347c0.5246,0.26926 1.02135,0.47353 1.49487,0.60352c0.47353,0.12999 0.88672,0.20892 1.24882,0.24141c0.35748,0.03249 0.59424,0.05107 0.70565,0.05107l6.40196,0l0,-16.44826l3.64434,0c0,0 0,18.25418 0,18.25418zm0,0"/>
   <path stroke="null" id="svg_11" fill="rgb(10.980392%,21.176471%,36.862745%)" fill-rule="evenodd" d="m67.90663,20.75756l-13.14281,0c-0.3389,0 -0.70101,-0.04177 -1.09098,-0.1207c-0.38533,-0.07891 -0.77065,-0.20426 -1.14668,-0.3714c-0.38068,-0.16712 -0.74279,-0.38533 -1.08633,-0.64994c-0.34355,-0.26927 -0.64995,-0.5896 -0.91921,-0.96563c-0.26462,-0.38069 -0.47818,-0.81707 -0.63602,-1.31847c-0.15784,-0.50138 -0.23677,-1.06312 -0.23677,-1.68985l0,-9.86524c0,-0.33426 0.03714,-0.69637 0.11607,-1.08635c0.07893,-0.38533 0.20426,-0.77064 0.3714,-1.14668c0.17177,-0.38068 0.38996,-0.74279 0.65923,-1.08633c0.27391,-0.34819 0.59424,-0.65459 0.97491,-0.91921c0.37604,-0.26462 0.81243,-0.47817 1.30917,-0.63602c0.49675,-0.15784 1.05849,-0.23677 1.68522,-0.23677l13.14281,0l0,3.63969l-13.14281,0c-0.47817,0 -0.84493,0.12535 -1.09562,0.38069c-0.2507,0.25068 -0.38069,0.62673 -0.38069,1.11883l0,9.83739c0,0.46889 0.12999,0.831 0.38533,1.08633c0.25998,0.25533 0.62209,0.38533 1.09098,0.38533l13.14281,0l0,3.64433zm0,0"/>
  </g>
 </g>
</svg>