<svg width="200" height="30" xmlns="http://www.w3.org/2000/svg" version="1.1">

 <g>
  <title>Layer 1</title>
  <g stroke="null" id="surface1">
   <path stroke="rgb(11.372549%,11.372549%,10.588235%)" id="svg_1" stroke-miterlimit="4" stroke-width="0.75" fill="none" d="m33.90458,4.40731l3.23896,0c13.61148,-0.39631 11.43423,12.68188 4.49149,13.14668l6.94274,9.49673l-3.96798,0l-7.46625,-9.96153l0,9.96153l-3.23896,0c0,0 0,-22.64341 0,-22.64341zm0,0"/>
   <path stroke="rgb(11.372549%,11.372549%,10.588235%)" id="svg_2" stroke-miterlimit="4" stroke-width="0.75" fill="rgb(11.372549%,11.372549%,10.588235%)" fill-rule="evenodd" d="m0.26241,4.53942l3.76738,0.06849l4.8878,14.272l5.0933,-14.34049l3.30257,0.06849l-8.45947,22.44281l-8.59158,-22.5113zm0,0"/>
   <path stroke="rgb(11.372549%,11.372549%,10.588235%)" id="svg_3" stroke-miterlimit="4" stroke-width="0.75" fill="rgb(11.372549%,11.372549%,10.588235%)" fill-rule="evenodd" d="m18.89868,4.40731l12.82376,0l0,3.18515l-9.38419,0l0.06361,8.3029l8.79217,0.06361l0,3.19004l-8.85578,0l0.06361,4.91226l9.32058,0.20061l0,2.78884l-12.82376,0l0,-22.64341zm0,0"/>
   <path stroke="null" id="svg_4" fill="rgb(11.372549%,11.372549%,10.588235%)" fill-rule="evenodd" d="m41.63504,17.55399c6.94274,-0.46481 9.11998,-13.54298 -4.4915,-13.14668l-3.23897,0l0,22.6434l3.23897,0l0,-9.96153l7.46626,9.96153l3.96798,0l-6.94274,-9.49672zm-4.4915,-2.65674l0,-7.569c2.90626,-0.0636 6.34093,-0.20059 6.47304,3.91905c-0.0636,3.58634 -3.69888,3.71845 -6.47304,3.64995zm0,0"/>
   <path stroke="rgb(11.372549%,11.372549%,10.588235%)" id="svg_5" stroke-miterlimit="4" stroke-width="0.75" fill="none" d="m37.14355,7.32825l0,7.569c2.83776,0.06849 6.40943,-0.06361 6.47303,-3.64996c-0.1321,-4.11964 -3.56678,-3.98265 -6.47303,-3.91905zm0,0"/>
   <path stroke="rgb(11.372549%,11.372549%,10.588235%)" id="svg_6" stroke-miterlimit="4" stroke-width="0.75" fill="rgb(11.372549%,11.372549%,10.588235%)" fill-rule="evenodd" d="m50.82352,4.40731l0,22.64341l11.43423,0l0.0636,-2.85734l-0.32781,-0.2642l-7.73535,0.1321l-0.13211,-19.32126l-0.45991,-0.3327l-2.84265,0zm0,0"/>
   <path stroke="rgb(11.372549%,11.372549%,10.588235%)" id="svg_7" stroke-miterlimit="4" stroke-width="0.75" fill="rgb(11.372549%,11.372549%,10.588235%)" fill-rule="evenodd" d="m64.17569,4.40731l3.17046,0l0.2006,0.2006l0,22.17371l-0.2006,0.2691l-3.23896,0l-0.1321,-0.2691l0,-22.17371l0.2006,-0.2006zm0,0"/>
   <path stroke="rgb(11.372549%,11.372549%,10.588235%)" id="svg_8" stroke-miterlimit="4" stroke-width="0.75" fill="rgb(11.372549%,11.372549%,10.588235%)" fill-rule="evenodd" d="m121.14622,4.40731l3.23896,0l0.13211,0.2006l0,22.17371l-0.06361,0.2691l-3.30746,0l-0.1321,-0.2691l0,-22.17371l0.1321,-0.2006zm0,0"/>
   <path stroke="rgb(11.372549%,11.372549%,10.588235%)" id="svg_9" stroke-miterlimit="4" stroke-width="0.75" fill="rgb(11.372549%,11.372549%,10.588235%)" fill-rule="evenodd" d="m126.43523,4.40731l-0.0685,22.37431l0.26421,0.2691l3.04326,0l0.19571,-0.2691l-0.1321,-13.34239l0.2006,-0.06849l10.70521,13.67998l0.39631,0.4648l0.33271,0l0,-0.4648l-0.0685,-22.3792l-0.26421,-0.2642l-2.50995,0l-0.26421,0.2642l0.06361,13.67999l-0.59202,0l-10.8422,-14.2084l-0.26421,0l-0.19571,0.2642zm0,0"/>
   <path stroke="null" id="svg_10" fill="rgb(11.372549%,11.372549%,10.588235%)" fill-rule="evenodd" d="m168.46837,24.92238c0,1.19871 -1.05682,2.19193 -2.30935,2.19193c-1.25743,0 -2.31425,-0.99322 -2.31425,-2.19193c0,-1.19382 1.05682,-2.18704 2.31425,-2.18704c1.25253,0 2.30935,0.99322 2.30935,2.18704"/>
   <path stroke="rgb(11.372549%,11.372549%,10.588235%)" id="svg_11" stroke-miterlimit="4" stroke-width="0.75" fill="none" d="m169.65729,2.48448l2.84266,0l0.1321,0.13211l0.0685,11.68376c4.09519,-4.18326 11.69843,-1.79073 11.83053,5.24497c0.13211,4.25175 -3.03836,7.83321 -6.87423,7.7011c-1.71734,0.0685 -3.56678,-0.72901 -4.9563,-1.99132l-0.0685,1.46291l-0.19571,0.3327l-2.37785,0l-0.3327,-0.3327l-0.0685,-24.23353zm0,0"/>
   <path stroke="rgb(11.372549%,11.372549%,10.588235%)" id="svg_12" stroke-miterlimit="4" stroke-width="0.75" fill="rgb(11.372549%,11.372549%,10.588235%)" fill-rule="evenodd" d="m86.38362,9.12387c-5.68531,-4.78017 -13.42066,-1.33082 -13.55276,6.23819c0,7.3733 7.20693,11.41956 13.55276,6.30669l0,3.98755c-7.27054,2.98455 -16.85533,0.59691 -17.05593,-10.22573c0,-11.02325 10.5095,-13.61149 17.05593,-10.35784l0,4.05115zm0,0"/>
   <path stroke="rgb(11.372549%,11.372549%,10.588235%)" id="svg_13" stroke-miterlimit="4" stroke-width="0.75" fill="rgb(11.372549%,11.372549%,10.588235%)" fill-rule="evenodd" d="m89.35349,4.67151l0,22.11011l0.13211,0.2691l2.84266,0l0.1321,-0.2691l0,-7.4369l0.2006,-0.39631l7.59836,0.06849l0.2006,0.19571l0,7.569l0.19571,0.2691l2.84266,0l0.1321,-0.2691l0.13211,-22.11011l-0.13211,-0.2642l-3.03836,0l-0.1321,0.2642l0,11.09175l-0.2006,0.2642l-7.66686,0l-0.1321,-0.2642l0,-11.09175l-0.19571,-0.2642l-2.71056,0l-0.2006,0.2642zm0,0"/>
   <path stroke="rgb(11.372549%,11.372549%,10.588235%)" id="svg_14" stroke-miterlimit="4" stroke-width="0.75" fill="rgb(11.372549%,11.372549%,10.588235%)" fill-rule="evenodd" d="m106.07672,4.40731l-0.32782,0.2642l0,2.65674l0.32782,0.2006l4.69209,0l0,19.25277l0.26421,0.2691l2.77905,0l0.26421,-0.2691l0,-19.25277l4.7557,0l0.39631,-0.2006l-0.06361,-2.65674l-0.3327,-0.2642l-12.75526,0zm0,0"/>
   <path stroke="null" id="svg_15" fill="rgb(11.372549%,11.372549%,10.588235%)" fill-rule="evenodd" d="m160.73791,9.05537l0,-3.85055c-4.42789,-2.25553 -17.18314,-3.45424 -17.51584,10.55844c0,7.3684 5.02479,10.95474 11.56632,11.28745c3.23897,0.2642 5.48472,-0.46481 7.00634,-1.92773l0,-10.28933l-0.26421,-0.3327l-7.47114,0l-0.39631,0.2642l0,2.45614l0.26421,0.33271l4.36429,0l0.3327,0.2642l0,5.51407c-7.40265,1.99132 -11.56632,-1.92773 -11.70333,-7.569c0,-6.83999 5.81741,-11.75225 13.81697,-6.70789"/>
   <path stroke="rgb(11.372549%,11.372549%,10.588235%)" id="svg_16" stroke-miterlimit="4" stroke-width="0.75" fill="none" d="m160.73791,9.05537l0,-3.85055c-4.42788,-2.25553 -17.18314,-3.45425 -17.51585,10.55844c0,7.3684 5.0248,10.95475 11.56634,11.28745c3.23896,0.2642 5.4847,-0.46481 7.00633,-1.92773l0,-10.28934l-0.26421,-0.3327l-7.47114,0l-0.39631,0.2642l0,2.45613l0.26421,0.3327l4.36428,0l0.33271,0.2642l0,5.51408c-7.40265,1.99132 -11.56634,-1.92773 -11.70333,-7.569c0,-6.83999 5.81741,-11.75226 13.81697,-6.70789zm0,0"/>
   <path stroke="rgb(11.372549%,11.372549%,10.588235%)" id="svg_17" stroke-miterlimit="4" stroke-width="0.75" fill="none" d="m186.31692,19.80952c-0.2006,-3.38574 2.11364,-7.5005 6.40943,-7.63261c6.61004,0 7.06994,5.04437 7.00634,8.63072l-10.11321,0.1321l0,0.46481c0.33271,1.65863 1.45314,2.78884 3.83588,2.98943c1.58524,0.13211 3.37106,-0.2691 4.8242,-1.39441l0.0636,0l0,3.25364c-6.21372,2.25553 -11.83053,0.13211 -12.02624,-6.44368zm0,0"/>
   <path stroke="null" id="svg_18" fill="rgb(11.372549%,11.372549%,10.588235%)" fill-rule="evenodd" d="m172.76415,14.36884l-0.0636,-11.68865l-0.20059,-0.19571l-2.84267,0l0,24.23351l0.33271,0.33271l2.37785,0l0.2642,-0.33271l0.0685,-1.46292c1.38953,1.26232 3.23897,1.99133 4.9563,1.99133c3.83587,0.20059 7.00634,-3.44935 6.87423,-7.7011c-0.06849,-6.97209 -7.73535,-9.35973 -11.76693,-5.17647zm4.42789,10.42144c-2.44146,0 -4.42789,-2.19193 -4.42789,-4.84377c0,-2.65673 1.98644,-4.84866 4.42789,-4.84866c2.44634,0 4.43278,2.19193 4.43278,4.84866c0,2.65184 -1.98644,4.84377 -4.43278,4.84377zm0,0"/>
   <path stroke="null" id="svg_19" fill="rgb(11.372549%,11.372549%,10.588235%)" fill-rule="evenodd" d="m199.73268,20.80762c0.0636,-3.51784 -0.3963,-8.63071 -7.00634,-8.63071c-4.23217,0.0636 -6.54153,4.18325 -6.40942,7.6326c0.19571,6.57578 5.81252,8.6356 11.96264,6.44368l0,-3.25365l-0.0685,0c-1.45314,1.06172 -3.17047,1.52652 -4.82419,1.39442c-2.37785,-0.20059 -3.43467,-1.39442 -3.83099,-2.98944l0,-0.4648l10.17681,-0.1321zm-10.441,-2.25553c-0.0685,-2.78883 2.17725,-3.71845 3.63527,-3.71845c1.32103,0 3.96308,0.79261 3.96308,3.71845l-7.59835,0zm0,0"/>
  </g>
 </g>
</svg>